# MagicaVoxel @ Ephtracy

# group
o 

# material
mtllib koorpys.mtl
usemtl palette

# normals
vn -1 0 0
vn 1 0 0
vn 0 0 1
vn 0 0 -1
vn 0 -1 0
vn 0 1 0

# texcoords
vt 0.970703 0.5
vt 0.974609 0.5
vt 0.978516 0.5

# verts
v -0.3 0 -0.1
v -0.3 0 -0.3
v -0.3 1.8 -0.1
v -0.3 1.8 -0.3
v -0.3 2.5 -5.96046e-08
v -0.3 2.5 -0.4
v -0.3 2.6 -5.96046e-08
v -0.3 2.6 -0.4
v -0.3 3.2 0.2
v -0.3 3.2 -0.6
v -0.3 4.5 0.2
v -0.3 4.5 -5.96046e-08
v -0.3 4.5 -0.4
v -0.3 4.5 -0.6
v -0.3 4.6 0.2
v -0.3 4.6 -5.96046e-08
v -0.3 4.6 -0.4
v -0.3 4.6 -0.6
v -0.3 4.7 -5.96046e-08
v -0.3 4.7 -0.4
v -0.2 0 -5.96046e-08
v -0.2 0 -0.1
v -0.2 0 -0.3
v -0.2 0 -0.4
v -0.2 1.8 -5.96046e-08
v -0.2 1.8 -0.1
v -0.2 1.8 -0.3
v -0.2 1.8 -0.4
v -0.2 2.5 -0.1
v -0.2 2.5 -0.3
v -0.2 2.6 -0.1
v -0.2 2.6 -0.3
v -0.2 3.1 0.0999999
v -0.2 3.1 -0.1
v -0.2 3.1 -0.3
v -0.2 3.1 -0.5
v -0.2 3.2 0.0999999
v -0.2 3.2 -0.5
v 1.49012e-07 0 -5.96046e-08
v 1.49012e-07 0 -0.1
v 1.49012e-07 0 -0.3
v 1.49012e-07 0 -0.4
v 1.49012e-07 1.8 -5.96046e-08
v 1.49012e-07 1.8 -0.1
v 1.49012e-07 1.8 -0.3
v 1.49012e-07 1.8 -0.4
v 1.49012e-07 2.5 -0.1
v 1.49012e-07 2.5 -0.3
v 1.49012e-07 2.6 -0.1
v 1.49012e-07 2.6 -0.3
v 1.49012e-07 3.1 0.0999999
v 1.49012e-07 3.1 -0.1
v 1.49012e-07 3.1 -0.3
v 1.49012e-07 3.1 -0.5
v 1.49012e-07 3.2 0.0999999
v 1.49012e-07 3.2 -0.5
v 0.1 0 -0.1
v 0.1 0 -0.3
v 0.1 1.8 -0.1
v 0.1 1.8 -0.3
v 0.1 2.5 -5.96046e-08
v 0.1 2.5 -0.4
v 0.1 2.6 -5.96046e-08
v 0.1 2.6 -0.4
v 0.1 3.2 0.2
v 0.1 3.2 -0.6
v 0.1 3.8 0.2
v 0.1 3.8 -5.96046e-08
v 0.1 3.8 -0.4
v 0.1 3.8 -0.6
v 0.1 3.9 0.2
v 0.1 3.9 -5.96046e-08
v 0.1 3.9 -0.4
v 0.1 3.9 -0.6
v 0.1 4 -5.96046e-08
v 0.1 4 -0.4
v 0.1 4.5 0.2
v 0.1 4.5 -5.96046e-08
v 0.1 4.5 -0.4
v 0.1 4.5 -0.6
v 0.1 4.6 -5.96046e-08
v 0.1 4.6 -0.4
v 0.2 3.8 0.2
v 0.2 3.8 -5.96046e-08
v 0.2 3.8 -0.4
v 0.2 3.8 -0.6
v 0.2 3.9 0.2
v 0.2 3.9 -5.96046e-08
v 0.2 3.9 -0.4
v 0.2 3.9 -0.6
v 0.2 4 -5.96046e-08
v 0.2 4 -0.4
v 0.2 4.5 0.2
v 0.2 4.5 -5.96046e-08
v 0.2 4.5 -0.4
v 0.2 4.5 -0.6
v 0.2 4.6 0.2
v 0.2 4.6 -5.96046e-08
v 0.2 4.6 -0.4
v 0.2 4.6 -0.6
v 0.2 4.7 -5.96046e-08
v 0.2 4.7 -0.4
v -0.3 3.2 0.2
v -0.3 4.5 0.2
v -0.3 4.6 0.2
v 0.1 3.2 0.2
v 0.1 3.8 0.2
v 0.1 3.9 0.2
v 0.1 4.5 0.2
v 0.2 3.8 0.2
v 0.2 3.9 0.2
v 0.2 4.5 0.2
v 0.2 4.6 0.2
v -0.2 3.1 0.0999999
v -0.2 3.2 0.0999999
v 1.49012e-07 3.1 0.0999999
v 1.49012e-07 3.2 0.0999999
v -0.3 2.5 -5.96046e-08
v -0.3 2.6 -5.96046e-08
v -0.3 4.6 -5.96046e-08
v -0.3 4.7 -5.96046e-08
v -0.2 0 -5.96046e-08
v -0.2 1.8 -5.96046e-08
v 1.49012e-07 0 -5.96046e-08
v 1.49012e-07 1.8 -5.96046e-08
v 0.1 2.5 -5.96046e-08
v 0.1 2.6 -5.96046e-08
v 0.1 3.9 -5.96046e-08
v 0.1 4 -5.96046e-08
v 0.2 3.9 -5.96046e-08
v 0.2 4 -5.96046e-08
v 0.2 4.6 -5.96046e-08
v 0.2 4.7 -5.96046e-08
v -0.3 0 -0.1
v -0.3 1.8 -0.1
v -0.2 0 -0.1
v -0.2 1.8 -0.1
v -0.2 2.5 -0.1
v -0.2 2.6 -0.1
v -0.2 3.1 -0.1
v 1.49012e-07 0 -0.1
v 1.49012e-07 1.8 -0.1
v 1.49012e-07 2.5 -0.1
v 1.49012e-07 2.6 -0.1
v 1.49012e-07 3.1 -0.1
v 0.1 0 -0.1
v 0.1 1.8 -0.1
v 0.1 3.8 -0.4
v 0.1 3.9 -0.4
v 0.1 4.5 -0.4
v 0.1 4.6 -0.4
v 0.2 3.8 -0.4
v 0.2 3.9 -0.4
v 0.2 4.5 -0.4
v 0.2 4.6 -0.4
v 0.1 3.8 -5.96046e-08
v 0.1 3.9 -5.96046e-08
v 0.1 4.5 -5.96046e-08
v 0.1 4.6 -5.96046e-08
v 0.2 3.8 -5.96046e-08
v 0.2 3.9 -5.96046e-08
v 0.2 4.5 -5.96046e-08
v 0.2 4.6 -5.96046e-08
v -0.3 0 -0.3
v -0.3 1.8 -0.3
v -0.2 0 -0.3
v -0.2 1.8 -0.3
v -0.2 2.5 -0.3
v -0.2 2.6 -0.3
v -0.2 3.1 -0.3
v 1.49012e-07 0 -0.3
v 1.49012e-07 1.8 -0.3
v 1.49012e-07 2.5 -0.3
v 1.49012e-07 2.6 -0.3
v 1.49012e-07 3.1 -0.3
v 0.1 0 -0.3
v 0.1 1.8 -0.3
v -0.3 2.5 -0.4
v -0.3 2.6 -0.4
v -0.3 4.6 -0.4
v -0.3 4.7 -0.4
v -0.2 0 -0.4
v -0.2 1.8 -0.4
v 1.49012e-07 0 -0.4
v 1.49012e-07 1.8 -0.4
v 0.1 2.5 -0.4
v 0.1 2.6 -0.4
v 0.1 3.9 -0.4
v 0.1 4 -0.4
v 0.2 3.9 -0.4
v 0.2 4 -0.4
v 0.2 4.6 -0.4
v 0.2 4.7 -0.4
v -0.2 3.1 -0.5
v -0.2 3.2 -0.5
v 1.49012e-07 3.1 -0.5
v 1.49012e-07 3.2 -0.5
v -0.3 3.2 -0.6
v -0.3 4.5 -0.6
v -0.3 4.6 -0.6
v 0.1 3.2 -0.6
v 0.1 3.8 -0.6
v 0.1 3.9 -0.6
v 0.1 4.5 -0.6
v 0.2 3.8 -0.6
v 0.2 3.9 -0.6
v 0.2 4.5 -0.6
v 0.2 4.6 -0.6
v -0.2 0 -5.96046e-08
v 1.49012e-07 0 -5.96046e-08
v -0.3 0 -0.1
v -0.2 0 -0.1
v 1.49012e-07 0 -0.1
v 0.1 0 -0.1
v -0.3 0 -0.3
v -0.2 0 -0.3
v 1.49012e-07 0 -0.3
v 0.1 0 -0.3
v -0.2 0 -0.4
v 1.49012e-07 0 -0.4
v -0.3 2.5 -5.96046e-08
v 0.1 2.5 -5.96046e-08
v -0.2 2.5 -0.1
v 1.49012e-07 2.5 -0.1
v -0.2 2.5 -0.3
v 1.49012e-07 2.5 -0.3
v -0.3 2.5 -0.4
v 0.1 2.5 -0.4
v -0.2 3.1 0.0999999
v 1.49012e-07 3.1 0.0999999
v -0.2 3.1 -0.1
v 1.49012e-07 3.1 -0.1
v -0.2 3.1 -0.3
v 1.49012e-07 3.1 -0.3
v -0.2 3.1 -0.5
v 1.49012e-07 3.1 -0.5
v -0.3 3.2 0.2
v 0.1 3.2 0.2
v -0.2 3.2 0.0999999
v 1.49012e-07 3.2 0.0999999
v -0.2 3.2 -0.5
v 1.49012e-07 3.2 -0.5
v -0.3 3.2 -0.6
v 0.1 3.2 -0.6
v 0.1 3.8 0.2
v 0.2 3.8 0.2
v 0.1 3.8 -5.96046e-08
v 0.2 3.8 -5.96046e-08
v 0.1 3.8 -0.4
v 0.2 3.8 -0.4
v 0.1 3.8 -0.6
v 0.2 3.8 -0.6
v 0.1 3.9 -5.96046e-08
v 0.2 3.9 -5.96046e-08
v 0.1 3.9 -0.4
v 0.2 3.9 -0.4
v 0.1 4.5 0.2
v 0.2 4.5 0.2
v 0.1 4.5 -5.96046e-08
v 0.2 4.5 -5.96046e-08
v 0.1 4.5 -0.4
v 0.2 4.5 -0.4
v 0.1 4.5 -0.6
v 0.2 4.5 -0.6
v 0.1 4.6 -5.96046e-08
v 0.2 4.6 -5.96046e-08
v 0.1 4.6 -0.4
v 0.2 4.6 -0.4
v -0.2 1.8 -5.96046e-08
v 1.49012e-07 1.8 -5.96046e-08
v -0.3 1.8 -0.1
v -0.2 1.8 -0.1
v 1.49012e-07 1.8 -0.1
v 0.1 1.8 -0.1
v -0.3 1.8 -0.3
v -0.2 1.8 -0.3
v 1.49012e-07 1.8 -0.3
v 0.1 1.8 -0.3
v -0.2 1.8 -0.4
v 1.49012e-07 1.8 -0.4
v -0.3 2.6 -5.96046e-08
v 0.1 2.6 -5.96046e-08
v -0.2 2.6 -0.1
v 1.49012e-07 2.6 -0.1
v -0.2 2.6 -0.3
v 1.49012e-07 2.6 -0.3
v -0.3 2.6 -0.4
v 0.1 2.6 -0.4
v 0.1 3.9 0.2
v 0.2 3.9 0.2
v 0.1 3.9 -5.96046e-08
v 0.2 3.9 -5.96046e-08
v 0.1 3.9 -0.4
v 0.2 3.9 -0.4
v 0.1 3.9 -0.6
v 0.2 3.9 -0.6
v 0.1 4 -5.96046e-08
v 0.2 4 -5.96046e-08
v 0.1 4 -0.4
v 0.2 4 -0.4
v -0.3 4.6 0.2
v 0.2 4.6 0.2
v -0.3 4.6 -5.96046e-08
v 0.2 4.6 -5.96046e-08
v -0.3 4.6 -0.4
v 0.2 4.6 -0.4
v -0.3 4.6 -0.6
v 0.2 4.6 -0.6
v -0.3 4.7 -5.96046e-08
v 0.2 4.7 -5.96046e-08
v -0.3 4.7 -0.4
v 0.2 4.7 -0.4

# faces
f 3/1/1 2/1/1 1/1/1
f 4/1/1 2/1/1 3/1/1
f 7/1/1 6/1/1 5/1/1
f 8/1/1 6/1/1 7/1/1
f 11/2/1 10/2/1 9/2/1
f 12/2/1 10/2/1 11/2/1
f 13/2/1 10/2/1 12/2/1
f 14/2/1 10/2/1 13/2/1
f 15/3/1 12/3/1 11/3/1
f 16/2/1 13/2/1 12/2/1
f 16/3/1 12/3/1 15/3/1
f 17/3/1 14/3/1 13/3/1
f 17/2/1 13/2/1 16/2/1
f 18/3/1 14/3/1 17/3/1
f 19/3/1 17/3/1 16/3/1
f 20/3/1 17/3/1 19/3/1
f 25/1/1 22/1/1 21/1/1
f 26/1/1 22/1/1 25/1/1
f 27/1/1 24/1/1 23/1/1
f 28/1/1 24/1/1 27/1/1
f 29/1/1 27/1/1 26/1/1
f 30/1/1 27/1/1 29/1/1
f 34/1/1 32/1/1 31/1/1
f 35/1/1 32/1/1 34/1/1
f 37/2/1 35/2/1 34/2/1
f 37/2/1 36/2/1 35/2/1
f 37/2/1 34/2/1 33/2/1
f 38/2/1 36/2/1 37/2/1
f 39/1/2 40/1/2 43/1/2
f 43/1/2 40/1/2 44/1/2
f 41/1/2 42/1/2 45/1/2
f 45/1/2 42/1/2 46/1/2
f 44/1/2 45/1/2 47/1/2
f 47/1/2 45/1/2 48/1/2
f 49/1/2 50/1/2 52/1/2
f 52/1/2 50/1/2 53/1/2
f 52/2/2 53/2/2 55/2/2
f 53/2/2 54/2/2 55/2/2
f 51/2/2 52/2/2 55/2/2
f 55/2/2 54/2/2 56/2/2
f 57/1/2 58/1/2 59/1/2
f 59/1/2 58/1/2 60/1/2
f 61/1/2 62/1/2 63/1/2
f 63/1/2 62/1/2 64/1/2
f 65/2/2 66/2/2 67/2/2
f 67/2/2 66/2/2 68/2/2
f 68/2/2 66/2/2 69/2/2
f 69/2/2 66/2/2 70/2/2
f 68/2/2 69/2/2 72/2/2
f 72/2/2 69/2/2 73/2/2
f 71/2/2 72/2/2 75/2/2
f 73/2/2 74/2/2 76/2/2
f 71/2/2 75/2/2 77/2/2
f 75/2/2 76/2/2 77/2/2
f 77/2/2 76/2/2 78/2/2
f 76/2/2 74/2/2 79/2/2
f 78/2/2 76/2/2 79/2/2
f 79/2/2 74/2/2 80/2/2
f 78/2/2 79/2/2 81/2/2
f 81/2/2 79/2/2 82/2/2
f 83/3/2 84/3/2 87/3/2
f 87/3/2 84/3/2 88/3/2
f 85/3/2 86/3/2 89/3/2
f 89/3/2 86/3/2 90/3/2
f 88/3/2 89/3/2 91/3/2
f 91/3/2 89/3/2 92/3/2
f 93/3/2 94/3/2 97/3/2
f 97/3/2 94/3/2 98/3/2
f 95/3/2 96/3/2 99/3/2
f 99/3/2 96/3/2 100/3/2
f 98/3/2 99/3/2 101/3/2
f 101/3/2 99/3/2 102/3/2
f 106/2/3 104/2/3 103/2/3
f 107/2/3 104/2/3 106/2/3
f 108/2/3 104/2/3 107/2/3
f 109/3/3 105/3/3 104/3/3
f 109/2/3 104/2/3 108/2/3
f 110/3/3 108/3/3 107/3/3
f 111/3/3 108/3/3 110/3/3
f 112/3/3 105/3/3 109/3/3
f 113/3/3 105/3/3 112/3/3
f 116/2/3 115/2/3 114/2/3
f 117/2/3 115/2/3 116/2/3
f 124/1/3 123/1/3 122/1/3
f 125/1/3 123/1/3 124/1/3
f 126/1/3 119/1/3 118/1/3
f 127/1/3 119/1/3 126/1/3
f 130/3/3 129/3/3 128/3/3
f 131/3/3 129/3/3 130/3/3
f 132/3/3 121/3/3 120/3/3
f 133/3/3 121/3/3 132/3/3
f 136/1/3 135/1/3 134/1/3
f 137/1/3 135/1/3 136/1/3
f 142/1/3 138/1/3 137/1/3
f 143/1/3 138/1/3 142/1/3
f 144/1/3 140/1/3 139/1/3
f 145/1/3 140/1/3 144/1/3
f 146/1/3 142/1/3 141/1/3
f 147/1/3 142/1/3 146/1/3
f 152/3/3 149/3/3 148/3/3
f 153/3/3 149/3/3 152/3/3
f 154/3/3 151/3/3 150/3/3
f 155/3/3 151/3/3 154/3/3
f 156/3/4 157/3/4 160/3/4
f 160/3/4 157/3/4 161/3/4
f 158/3/4 159/3/4 162/3/4
f 162/3/4 159/3/4 163/3/4
f 164/1/4 165/1/4 166/1/4
f 166/1/4 165/1/4 167/1/4
f 167/1/4 168/1/4 172/1/4
f 172/1/4 168/1/4 173/1/4
f 169/1/4 170/1/4 174/1/4
f 174/1/4 170/1/4 175/1/4
f 171/1/4 172/1/4 176/1/4
f 176/1/4 172/1/4 177/1/4
f 182/1/4 183/1/4 184/1/4
f 184/1/4 183/1/4 185/1/4
f 178/1/4 179/1/4 186/1/4
f 186/1/4 179/1/4 187/1/4
f 188/3/4 189/3/4 190/3/4
f 190/3/4 189/3/4 191/3/4
f 180/3/4 181/3/4 192/3/4
f 192/3/4 181/3/4 193/3/4
f 194/2/4 195/2/4 196/2/4
f 196/2/4 195/2/4 197/2/4
f 198/2/4 199/2/4 201/2/4
f 201/2/4 199/2/4 202/2/4
f 202/2/4 199/2/4 203/2/4
f 199/3/4 200/3/4 204/3/4
f 203/2/4 199/2/4 204/2/4
f 202/3/4 203/3/4 205/3/4
f 205/3/4 203/3/4 206/3/4
f 204/3/4 200/3/4 207/3/4
f 207/3/4 200/3/4 208/3/4
f 212/1/5 210/1/5 209/1/5
f 213/1/5 210/1/5 212/1/5
f 215/1/5 212/1/5 211/1/5
f 215/1/5 214/1/5 213/1/5
f 215/1/5 213/1/5 212/1/5
f 216/1/5 214/1/5 215/1/5
f 217/1/5 214/1/5 216/1/5
f 218/1/5 214/1/5 217/1/5
f 219/1/5 217/1/5 216/1/5
f 220/1/5 217/1/5 219/1/5
f 223/1/5 222/1/5 221/1/5
f 224/1/5 222/1/5 223/1/5
f 225/1/5 223/1/5 221/1/5
f 226/1/5 222/1/5 224/1/5
f 227/1/5 225/1/5 221/1/5
f 227/1/5 226/1/5 225/1/5
f 228/1/5 222/1/5 226/1/5
f 228/1/5 226/1/5 227/1/5
f 231/2/5 230/2/5 229/2/5
f 232/2/5 230/2/5 231/2/5
f 235/2/5 234/2/5 233/2/5
f 236/2/5 234/2/5 235/2/5
f 239/2/5 238/2/5 237/2/5
f 240/2/5 238/2/5 239/2/5
f 241/2/5 239/2/5 237/2/5
f 242/2/5 238/2/5 240/2/5
f 243/2/5 241/2/5 237/2/5
f 243/2/5 242/2/5 241/2/5
f 244/2/5 238/2/5 242/2/5
f 244/2/5 242/2/5 243/2/5
f 247/3/5 246/3/5 245/3/5
f 248/3/5 246/3/5 247/3/5
f 251/3/5 250/3/5 249/3/5
f 252/3/5 250/3/5 251/3/5
f 255/3/5 254/3/5 253/3/5
f 256/3/5 254/3/5 255/3/5
f 259/3/5 258/3/5 257/3/5
f 260/3/5 258/3/5 259/3/5
f 263/3/5 262/3/5 261/3/5
f 264/3/5 262/3/5 263/3/5
f 267/3/5 266/3/5 265/3/5
f 268/3/5 266/3/5 267/3/5
f 269/1/6 270/1/6 272/1/6
f 272/1/6 270/1/6 273/1/6
f 271/1/6 272/1/6 275/1/6
f 275/1/6 272/1/6 276/1/6
f 273/1/6 274/1/6 277/1/6
f 277/1/6 274/1/6 278/1/6
f 276/1/6 277/1/6 279/1/6
f 279/1/6 277/1/6 280/1/6
f 281/1/6 282/1/6 283/1/6
f 283/1/6 282/1/6 284/1/6
f 281/1/6 283/1/6 285/1/6
f 284/1/6 282/1/6 286/1/6
f 281/1/6 285/1/6 287/1/6
f 285/1/6 286/1/6 287/1/6
f 286/1/6 282/1/6 288/1/6
f 287/1/6 286/1/6 288/1/6
f 289/3/6 290/3/6 291/3/6
f 291/3/6 290/3/6 292/3/6
f 293/3/6 294/3/6 295/3/6
f 295/3/6 294/3/6 296/3/6
f 297/3/6 298/3/6 299/3/6
f 299/3/6 298/3/6 300/3/6
f 301/3/6 302/3/6 303/3/6
f 303/3/6 302/3/6 304/3/6
f 305/3/6 306/3/6 307/3/6
f 307/3/6 306/3/6 308/3/6
f 309/3/6 310/3/6 311/3/6
f 311/3/6 310/3/6 312/3/6
