# MagicaVoxel @ Ephtracy

# group
o 

# material
mtllib ohrannik.mtl
usemtl palette

# normals
vn -1 0 0
vn 1 0 0
vn 0 0 1
vn 0 0 -1
vn 0 -1 0
vn 0 1 0

# texcoords
vt 0.876953 0.5
vt 0.935547 0.5
vt 0.955078 0.5
vt 0.958984 0.5
vt 0.962891 0.5

# verts
v -1.4 1.3 -9.68575e-08
v -1.4 1.3 -0.1
v -1.4 1.3 -0.2
v -1.4 1.3 -0.3
v -1.4 1.3 -0.4
v -1.4 1.3 -0.5
v -1.4 1.3 -0.6
v -1.4 1.3 -0.7
v -1.4 1.6 -0.1
v -1.4 1.6 -0.2
v -1.4 1.6 -0.3
v -1.4 1.6 -0.4
v -1.4 1.6 -0.5
v -1.4 1.6 -0.6
v -1.4 1.7 -9.68575e-08
v -1.4 1.7 -0.1
v -1.4 1.7 -0.6
v -1.4 1.7 -0.7
v -1.4 1.8 -0.1
v -1.4 1.8 -0.6
v -1.4 1.9 -0.1
v -1.4 1.9 -0.2
v -1.4 1.9 -0.3
v -1.4 1.9 -0.4
v -1.4 1.9 -0.5
v -1.4 1.9 -0.6
v -1.4 2.1 -0.3
v -1.4 2.1 -0.4
v -1.4 2.2 -0.4
v -1.4 2.2 -0.5
v -1.4 2.2 -0.6
v -1.4 2.4 -0.4
v -1.4 2.4 -0.5
v -1.4 2.5 -0.1
v -1.4 2.5 -0.2
v -1.4 2.5 -0.3
v -1.4 2.5 -0.6
v -1.4 2.7 -0.1
v -1.4 2.7 -0.2
v -1.4 2.7 -0.5
v -1.4 2.7 -0.6
v -1.4 2.8 -0.1
v -1.4 2.8 -0.2
v -1.4 2.9 -0.2
v -1.4 2.9 -0.3
v -1.4 3 -0.2
v -1.4 3 -0.5
v -1.4 3.1 -0.1
v -1.4 3.1 -0.6
v -1 1.3 -9.68575e-08
v -1 1.3 -0.6
v -1 1.3 -0.7
v -1 1.6 -0.6
v -1 1.6 -0.7
v -1 1.7 -9.68575e-08
v -1 1.7 -0.1
v -1 1.7 -0.2
v -1 1.7 -0.5
v -1 1.7 -0.6
v -1 1.7 -0.7
v -0.9 1.7 -0.1
v -0.9 1.7 -0.2
v -0.9 1.7 -0.5
v -0.9 1.7 -0.6
v -0.9 1.8 -0.1
v -0.9 1.8 -0.2
v -0.9 1.8 -0.5
v -0.9 1.8 -0.6
v -0.9 1.9 -0.1
v -0.9 1.9 -0.2
v -0.9 2 -0.1
v -0.9 2 -0.2
v -0.9 2.2 -0.5
v -0.9 2.2 -0.6
v -0.9 2.4 -0.5
v -0.9 2.4 -0.6
v -0.9 2.5 -0.1
v -0.9 2.5 -0.2
v -0.9 2.5 -0.5
v -0.9 2.5 -0.6
v -0.9 2.9 -0.1
v -0.9 2.9 -0.2
v -0.9 2.9 -0.5
v -0.9 2.9 -0.6
v -0.9 3.1 -0.1
v -0.9 3.1 -0.6
v -1.4 1.3 -9.68575e-08
v -1.4 1.7 -9.68575e-08
v -1 1.3 -9.68575e-08
v -1 1.7 -9.68575e-08
v -1.4 1.7 -0.1
v -1.4 1.8 -0.1
v -1.4 1.9 -0.1
v -1.4 2.5 -0.1
v -1.4 2.7 -0.1
v -1.4 2.8 -0.1
v -1.4 3.1 -0.1
v -1.3 2.2 -0.1
v -1.3 2.5 -0.1
v -1.3 2.7 -0.1
v -1.3 2.8 -0.1
v -1.3 3 -0.1
v -1.2 2 -0.1
v -1.2 2.2 -0.1
v -1.2 2.5 -0.1
v -1.2 2.6 -0.1
v -1.1 2 -0.1
v -1.1 2.1 -0.1
v -1.1 2.2 -0.1
v -1.1 2.6 -0.1
v -1.1 3 -0.1
v -1.1 3.1 -0.1
v -1 1.7 -0.1
v -1 1.8 -0.1
v -1 2 -0.1
v -1 2.1 -0.1
v -1 2.2 -0.1
v -1 2.5 -0.1
v -1 2.6 -0.1
v -1 2.9 -0.1
v -1 3 -0.1
v -1 3.1 -0.1
v -0.9 1.7 -0.1
v -0.9 1.8 -0.1
v -0.9 1.9 -0.1
v -0.9 2 -0.1
v -0.9 2.5 -0.1
v -0.9 2.9 -0.1
v -0.9 3.1 -0.1
v -1.4 1.7 -0.6
v -1.4 1.8 -0.6
v -1.4 1.9 -0.6
v -1.4 2.2 -0.6
v -1.4 2.5 -0.6
v -1.4 2.7 -0.6
v -1.4 3.1 -0.6
v -1.3 1.9 -0.6
v -1.3 2.2 -0.6
v -1.3 2.3 -0.6
v -1.3 2.4 -0.6
v -1.3 2.5 -0.6
v -1.3 2.6 -0.6
v -1.3 2.7 -0.6
v -1.3 2.8 -0.6
v -1.3 2.9 -0.6
v -1.3 3 -0.6
v -1.2 2 -0.6
v -1.2 2.2 -0.6
v -1.2 2.4 -0.6
v -1.2 2.6 -0.6
v -1.2 2.8 -0.6
v -1.2 2.9 -0.6
v -1.2 3 -0.6
v -1.1 1.8 -0.6
v -1.1 2 -0.6
v -1.1 2.3 -0.6
v -1.1 2.6 -0.6
v -1.1 2.9 -0.6
v -1.1 3 -0.6
v -1 1.7 -0.6
v -1 1.8 -0.6
v -1 2.2 -0.6
v -1 2.4 -0.6
v -1 2.5 -0.6
v -1 2.6 -0.6
v -1 2.9 -0.6
v -1 3 -0.6
v -0.9 1.7 -0.6
v -0.9 1.8 -0.6
v -0.9 2.2 -0.6
v -0.9 2.4 -0.6
v -0.9 2.5 -0.6
v -0.9 2.9 -0.6
v -0.9 3.1 -0.6
v -1.4 1.3 -0.7
v -1.4 1.7 -0.7
v -1.3 1.3 -0.7
v -1.3 1.6 -0.7
v -1.2 1.3 -0.7
v -1.2 1.6 -0.7
v -1.1 1.3 -0.7
v -1.1 1.6 -0.7
v -1 1.3 -0.7
v -1 1.6 -0.7
v -1 1.7 -0.7
v -1.4 1.3 -9.68575e-08
v -1 1.3 -9.68575e-08
v -1.4 1.3 -0.1
v -1.3 1.3 -0.1
v -1.4 1.3 -0.2
v -1.3 1.3 -0.2
v -1.4 1.3 -0.3
v -1.3 1.3 -0.3
v -1.4 1.3 -0.4
v -1.3 1.3 -0.4
v -1.4 1.3 -0.5
v -1.3 1.3 -0.5
v -1.4 1.3 -0.6
v -1.3 1.3 -0.6
v -1.2 1.3 -0.6
v -1.1 1.3 -0.6
v -1 1.3 -0.6
v -1.4 1.3 -0.7
v -1.3 1.3 -0.7
v -1.2 1.3 -0.7
v -1.1 1.3 -0.7
v -1 1.3 -0.7
v -1 1.7 -0.1
v -0.9 1.7 -0.1
v -1 1.7 -0.2
v -0.9 1.7 -0.2
v -1 1.7 -0.5
v -0.9 1.7 -0.5
v -1 1.7 -0.6
v -0.9 1.7 -0.6
v -1.4 1.7 -9.68575e-08
v -1 1.7 -9.68575e-08
v -1.4 1.7 -0.1
v -1 1.7 -0.1
v -1.4 1.7 -0.6
v -1 1.7 -0.6
v -1.4 1.7 -0.7
v -1 1.7 -0.7
v -1.4 3.1 -0.1
v -1.1 3.1 -0.1
v -1 3.1 -0.1
v -0.9 3.1 -0.1
v -1.1 3.1 -0.2
v -1 3.1 -0.2
v -1.4 3.1 -0.6
v -0.9 3.1 -0.6

# faces
f 9/3/1 2/3/1 1/3/1
f 9/5/1 3/5/1 2/5/1
f 10/3/1 4/3/1 3/3/1
f 10/5/1 3/5/1 9/5/1
f 11/5/1 5/5/1 4/5/1
f 11/3/1 4/3/1 10/3/1
f 12/3/1 6/3/1 5/3/1
f 12/5/1 5/5/1 11/5/1
f 13/5/1 7/5/1 6/5/1
f 13/3/1 6/3/1 12/3/1
f 14/3/1 8/3/1 7/3/1
f 14/5/1 7/5/1 13/5/1
f 15/3/1 13/3/1 12/3/1
f 15/3/1 12/3/1 11/3/1
f 15/3/1 14/3/1 13/3/1
f 15/3/1 11/3/1 10/3/1
f 15/3/1 10/3/1 9/3/1
f 15/3/1 9/3/1 1/3/1
f 16/3/1 14/3/1 15/3/1
f 17/3/1 8/3/1 14/3/1
f 17/3/1 14/3/1 16/3/1
f 18/3/1 8/3/1 17/3/1
f 19/5/1 17/5/1 16/5/1
f 20/5/1 17/5/1 19/5/1
f 21/2/1 20/2/1 19/2/1
f 22/2/1 20/2/1 21/2/1
f 23/2/1 20/2/1 22/2/1
f 24/2/1 20/2/1 23/2/1
f 25/2/1 20/2/1 24/2/1
f 26/2/1 20/2/1 25/2/1
f 27/2/1 23/2/1 22/2/1
f 27/1/1 24/1/1 23/1/1
f 28/2/1 25/2/1 24/2/1
f 28/1/1 24/1/1 27/1/1
f 29/2/1 28/2/1 27/2/1
f 29/2/1 25/2/1 28/2/1
f 30/1/1 26/1/1 25/1/1
f 30/2/1 25/2/1 29/2/1
f 31/1/1 26/1/1 30/1/1
f 32/2/1 29/2/1 27/2/1
f 32/1/1 30/1/1 29/1/1
f 33/2/1 31/2/1 30/2/1
f 33/1/1 30/1/1 32/1/1
f 34/1/1 22/1/1 21/1/1
f 35/2/1 27/2/1 22/2/1
f 35/1/1 22/1/1 34/1/1
f 35/2/1 32/2/1 27/2/1
f 35/2/1 33/2/1 32/2/1
f 36/2/1 33/2/1 35/2/1
f 37/2/1 31/2/1 33/2/1
f 37/2/1 33/2/1 36/2/1
f 38/2/1 36/2/1 35/2/1
f 38/2/1 35/2/1 34/2/1
f 39/2/1 36/2/1 38/2/1
f 40/1/1 37/1/1 36/1/1
f 41/1/1 37/1/1 40/1/1
f 42/1/1 39/1/1 38/1/1
f 43/2/1 36/2/1 39/2/1
f 43/1/1 39/1/1 42/1/1
f 44/2/1 43/2/1 42/2/1
f 44/2/1 36/2/1 43/2/1
f 45/1/1 40/1/1 36/1/1
f 45/2/1 36/2/1 44/2/1
f 46/2/1 44/2/1 42/2/1
f 46/1/1 45/1/1 44/1/1
f 47/1/1 40/1/1 45/1/1
f 47/1/1 45/1/1 46/1/1
f 47/2/1 41/2/1 40/2/1
f 48/2/1 46/2/1 42/2/1
f 48/2/1 47/2/1 46/2/1
f 49/2/1 41/2/1 47/2/1
f 49/2/1 47/2/1 48/2/1
f 50/3/2 51/3/2 53/3/2
f 51/5/2 52/5/2 53/5/2
f 53/5/2 52/5/2 54/5/2
f 50/3/2 53/3/2 55/3/2
f 53/3/2 54/3/2 55/3/2
f 55/3/2 54/3/2 56/3/2
f 56/3/2 54/3/2 57/3/2
f 57/3/2 54/3/2 58/3/2
f 58/3/2 54/3/2 59/3/2
f 59/3/2 54/3/2 60/3/2
f 61/4/2 62/4/2 65/4/2
f 62/3/2 63/3/2 66/3/2
f 65/4/2 62/4/2 66/4/2
f 63/4/2 64/4/2 67/4/2
f 66/3/2 63/3/2 67/3/2
f 67/4/2 64/4/2 68/4/2
f 65/2/2 66/2/2 69/2/2
f 66/2/2 67/2/2 69/2/2
f 67/2/2 68/2/2 69/2/2
f 69/2/2 68/2/2 70/2/2
f 69/1/2 70/1/2 71/1/2
f 70/2/2 68/2/2 72/2/2
f 71/1/2 70/1/2 72/1/2
f 71/2/2 72/2/2 73/2/2
f 72/2/2 68/2/2 73/2/2
f 73/2/2 68/2/2 74/2/2
f 71/2/2 73/2/2 75/2/2
f 73/1/2 74/1/2 75/1/2
f 75/1/2 74/1/2 76/1/2
f 71/2/2 75/2/2 77/2/2
f 75/2/2 76/2/2 77/2/2
f 77/2/2 76/2/2 78/2/2
f 78/2/2 76/2/2 79/2/2
f 79/2/2 76/2/2 80/2/2
f 77/1/2 78/1/2 81/1/2
f 78/2/2 79/2/2 82/2/2
f 81/1/2 78/1/2 82/1/2
f 79/1/2 80/1/2 83/1/2
f 82/2/2 79/2/2 83/2/2
f 83/1/2 80/1/2 84/1/2
f 81/2/2 82/2/2 85/2/2
f 82/2/2 83/2/2 85/2/2
f 83/2/2 84/2/2 85/2/2
f 85/2/2 84/2/2 86/2/2
f 89/3/3 88/3/3 87/3/3
f 90/3/3 88/3/3 89/3/3
f 98/1/3 94/1/3 93/1/3
f 99/2/3 95/2/3 94/2/3
f 99/1/3 94/1/3 98/1/3
f 100/1/3 96/1/3 95/1/3
f 100/2/3 95/2/3 99/2/3
f 101/2/3 97/2/3 96/2/3
f 101/1/3 96/1/3 100/1/3
f 102/2/3 97/2/3 101/2/3
f 103/1/3 98/1/3 93/1/3
f 104/2/3 99/2/3 98/2/3
f 104/1/3 98/1/3 103/1/3
f 105/1/3 100/1/3 99/1/3
f 105/2/3 99/2/3 104/2/3
f 105/1/3 101/1/3 100/1/3
f 105/1/3 102/1/3 101/1/3
f 106/1/3 102/1/3 105/1/3
f 107/2/3 104/2/3 103/2/3
f 107/1/3 103/1/3 93/1/3
f 107/2/3 106/2/3 105/2/3
f 107/2/3 105/2/3 104/2/3
f 108/2/3 106/2/3 107/2/3
f 109/2/3 106/2/3 108/2/3
f 110/1/3 102/1/3 106/1/3
f 110/2/3 106/2/3 109/2/3
f 111/2/3 97/2/3 102/2/3
f 111/1/3 102/1/3 110/1/3
f 112/2/3 97/2/3 111/2/3
f 113/5/3 92/5/3 91/5/3
f 114/2/3 93/2/3 92/2/3
f 114/5/3 92/5/3 113/5/3
f 115/1/3 107/1/3 93/1/3
f 115/1/3 108/1/3 107/1/3
f 116/2/3 109/2/3 108/2/3
f 116/1/3 108/1/3 115/1/3
f 117/1/3 110/1/3 109/1/3
f 117/2/3 109/2/3 116/2/3
f 118/1/3 110/1/3 117/1/3
f 119/2/3 111/2/3 110/2/3
f 119/1/3 110/1/3 118/1/3
f 120/2/3 111/2/3 119/2/3
f 121/1/3 112/1/3 111/1/3
f 121/2/3 111/2/3 120/2/3
f 122/1/3 112/1/3 121/1/3
f 123/4/3 114/4/3 113/4/3
f 124/2/3 93/2/3 114/2/3
f 124/4/3 114/4/3 123/4/3
f 125/1/3 115/1/3 93/1/3
f 125/2/3 93/2/3 124/2/3
f 126/2/3 116/2/3 115/2/3
f 126/1/3 115/1/3 125/1/3
f 126/2/3 118/2/3 117/2/3
f 126/2/3 117/2/3 116/2/3
f 127/1/3 120/1/3 119/1/3
f 127/2/3 118/2/3 126/2/3
f 127/1/3 119/1/3 118/1/3
f 128/2/3 122/2/3 121/2/3
f 128/1/3 120/1/3 127/1/3
f 128/2/3 121/2/3 120/2/3
f 129/2/3 122/2/3 128/2/3
f 131/2/4 132/2/4 137/2/4
f 132/1/4 133/1/4 137/1/4
f 133/2/4 134/2/4 138/2/4
f 137/1/4 133/1/4 138/1/4
f 138/2/4 134/2/4 139/2/4
f 139/2/4 134/2/4 140/2/4
f 134/1/4 135/1/4 141/1/4
f 140/2/4 134/2/4 141/2/4
f 141/1/4 135/1/4 142/1/4
f 135/2/4 136/2/4 143/2/4
f 142/1/4 135/1/4 143/1/4
f 143/2/4 136/2/4 144/2/4
f 144/2/4 136/2/4 145/2/4
f 145/2/4 136/2/4 146/2/4
f 137/2/4 138/2/4 147/2/4
f 138/2/4 139/2/4 147/2/4
f 147/2/4 139/2/4 148/2/4
f 141/2/4 142/2/4 149/2/4
f 139/1/4 140/1/4 149/1/4
f 140/2/4 141/2/4 149/2/4
f 142/1/4 143/1/4 150/1/4
f 149/2/4 142/2/4 150/2/4
f 143/1/4 144/1/4 150/1/4
f 144/2/4 145/2/4 151/2/4
f 150/1/4 144/1/4 151/1/4
f 145/1/4 146/1/4 152/1/4
f 151/2/4 145/2/4 152/2/4
f 146/2/4 136/2/4 153/2/4
f 152/1/4 146/1/4 153/1/4
f 130/5/4 131/5/4 154/5/4
f 131/2/4 137/2/4 154/2/4
f 137/2/4 147/2/4 154/2/4
f 147/1/4 148/1/4 155/1/4
f 154/2/4 147/2/4 155/2/4
f 148/2/4 139/2/4 156/2/4
f 151/1/4 152/1/4 156/1/4
f 150/1/4 151/1/4 156/1/4
f 139/1/4 149/1/4 156/1/4
f 149/1/4 150/1/4 156/1/4
f 156/1/4 152/1/4 157/1/4
f 152/2/4 153/2/4 158/2/4
f 157/1/4 152/1/4 158/1/4
f 153/2/4 136/2/4 159/2/4
f 158/2/4 153/2/4 159/2/4
f 130/5/4 154/5/4 160/5/4
f 154/1/4 155/1/4 161/1/4
f 160/5/4 154/5/4 161/5/4
f 155/1/4 148/1/4 162/1/4
f 161/1/4 155/1/4 162/1/4
f 156/2/4 157/2/4 162/2/4
f 148/2/4 156/2/4 162/2/4
f 162/2/4 157/2/4 163/2/4
f 163/2/4 157/2/4 164/2/4
f 157/1/4 158/1/4 165/1/4
f 164/2/4 157/2/4 165/2/4
f 158/1/4 159/1/4 165/1/4
f 165/1/4 159/1/4 166/1/4
f 159/2/4 136/2/4 167/2/4
f 166/1/4 159/1/4 167/1/4
f 160/4/4 161/4/4 168/4/4
f 161/2/4 162/2/4 169/2/4
f 168/4/4 161/4/4 169/4/4
f 162/1/4 163/1/4 170/1/4
f 169/2/4 162/2/4 170/2/4
f 163/2/4 164/2/4 171/2/4
f 170/1/4 163/1/4 171/1/4
f 165/1/4 166/1/4 172/1/4
f 171/2/4 164/2/4 172/2/4
f 164/1/4 165/1/4 172/1/4
f 166/2/4 167/2/4 173/2/4
f 172/1/4 166/1/4 173/1/4
f 167/2/4 136/2/4 174/2/4
f 173/2/4 167/2/4 174/2/4
f 175/3/4 176/3/4 177/3/4
f 177/3/4 176/3/4 178/3/4
f 177/5/4 178/5/4 179/5/4
f 178/3/4 176/3/4 180/3/4
f 179/5/4 178/5/4 180/5/4
f 179/3/4 180/3/4 181/3/4
f 180/3/4 176/3/4 182/3/4
f 181/3/4 180/3/4 182/3/4
f 181/5/4 182/5/4 183/5/4
f 182/3/4 176/3/4 184/3/4
f 183/5/4 182/5/4 184/5/4
f 184/3/4 176/3/4 185/3/4
f 188/3/5 187/3/5 186/3/5
f 189/3/5 187/3/5 188/3/5
f 190/5/5 189/5/5 188/5/5
f 191/3/5 187/3/5 189/3/5
f 191/5/5 189/5/5 190/5/5
f 192/3/5 191/3/5 190/3/5
f 193/3/5 187/3/5 191/3/5
f 193/3/5 191/3/5 192/3/5
f 194/5/5 193/5/5 192/5/5
f 195/3/5 187/3/5 193/3/5
f 195/5/5 193/5/5 194/5/5
f 196/3/5 195/3/5 194/3/5
f 197/3/5 187/3/5 195/3/5
f 197/3/5 195/3/5 196/3/5
f 198/5/5 197/5/5 196/5/5
f 199/3/5 187/3/5 197/3/5
f 199/5/5 197/5/5 198/5/5
f 200/3/5 187/3/5 199/3/5
f 201/3/5 187/3/5 200/3/5
f 202/3/5 187/3/5 201/3/5
f 203/3/5 199/3/5 198/3/5
f 204/5/5 200/5/5 199/5/5
f 204/3/5 199/3/5 203/3/5
f 205/3/5 201/3/5 200/3/5
f 205/5/5 200/5/5 204/5/5
f 206/5/5 202/5/5 201/5/5
f 206/3/5 201/3/5 205/3/5
f 207/5/5 202/5/5 206/5/5
f 210/4/5 209/4/5 208/4/5
f 211/4/5 209/4/5 210/4/5
f 212/3/5 211/3/5 210/3/5
f 213/3/5 211/3/5 212/3/5
f 214/4/5 213/4/5 212/4/5
f 215/4/5 213/4/5 214/4/5
f 216/3/6 217/3/6 218/3/6
f 218/3/6 217/3/6 219/3/6
f 220/3/6 221/3/6 222/3/6
f 222/3/6 221/3/6 223/3/6
f 224/2/6 225/2/6 228/2/6
f 225/1/6 226/1/6 228/1/6
f 226/2/6 227/2/6 229/2/6
f 228/1/6 226/1/6 229/1/6
f 224/2/6 228/2/6 230/2/6
f 228/2/6 229/2/6 230/2/6
f 229/2/6 227/2/6 231/2/6
f 230/2/6 229/2/6 231/2/6
