# MagicaVoxel @ Ephtracy

# group
o 

# material
mtllib mini_sofa.mtl
usemtl palette

# normals
vn -1 0 0
vn 1 0 0
vn 0 0 1
vn 0 0 -1
vn 0 -1 0
vn 0 1 0

# texcoords
vt 0.306641 0.5
vt 0.970703 0.5
vt 0.974609 0.5
vt 0.978516 0.5
vt 0.982422 0.5

# verts
v -3.3 0.3 2.3
v -3.3 0.3 -1.1
v -3.3 2.6 2.3
v -3.3 2.6 -1.1
v -3.1 0 2
v -3.1 0 1.7
v -3.1 0 -0.6
v -3.1 0 -0.9
v -3.1 0.3 2
v -3.1 0.3 1.7
v -3.1 0.3 -0.6
v -3.1 0.3 -0.9
v -2.7 0.3 2.3
v -2.7 0.3 2.2
v -2.7 0.7 2.3
v -2.7 0.7 2.2
v -2.7 0.8 2.3
v -2.7 0.8 2.2
v -2.7 1.2 2.3
v -2.7 1.2 2.2
v -2.7 1.2 1.8
v -2.7 1.2 0.0999999
v -2.7 1.2 -0.6
v -2.7 1.3 2.3
v -2.7 1.3 1.8
v -2.7 1.3 0.0999999
v -2.7 1.3 -2.38419e-07
v -2.7 1.9 0.0999999
v -2.7 1.9 -2.38419e-07
v -2.7 2 0.0999999
v -2.7 2 -2.38419e-07
v -2.7 2 -0.6
v -2.7 2 -0.7
v -2.7 2.6 -0.7
v -2.7 2.7 -2.38419e-07
v -2.7 2.7 -0.1
v -2.7 2.7 -0.7
v -2.7 2.7 -0.8
v -2.7 3 -0.1
v -2.7 3 -0.8
v 0.0999999 0 2
v 0.0999999 0 1.7
v 0.0999999 0 -0.6
v 0.0999999 0 -0.9
v 0.0999999 0.3 2.3
v 0.0999999 0.3 2.2
v 0.0999999 0.3 2
v 0.0999999 0.3 1.7
v 0.0999999 0.3 -0.6
v 0.0999999 0.3 -0.9
v 0.0999999 1.1 2.3
v 0.0999999 1.1 2.2
v 0.0999999 1.2 2.3
v 0.0999999 1.2 2.2
v 0.0999999 1.2 -0.7
v 0.0999999 1.3 2.2
v 0.0999999 1.3 2
v 0.0999999 1.4 2
v 0.0999999 1.4 1.9
v 0.0999999 1.5 1.9
v 0.0999999 1.5 1.8
v 0.0999999 1.6 1.8
v 0.0999999 1.6 1.7
v 0.0999999 1.7 1.7
v 0.0999999 1.7 1.5
v 0.0999999 1.8 1.5
v 0.0999999 1.8 1.3
v 0.0999999 1.9 1.3
v 0.0999999 1.9 1.1
v 0.0999999 2 1.1
v 0.0999999 2 0.9
v 0.0999999 2.1 0.9
v 0.0999999 2.1 0.7
v 0.0999999 2.2 0.7
v 0.0999999 2.2 0.3
v 0.0999999 2.3 0.3
v 0.0999999 2.3 0.2
v 0.0999999 2.4 0.2
v 0.0999999 2.4 -0.6
v 0.0999999 2.5 -0.6
v 0.0999999 2.5 -0.7
v 0.0999999 2.6 2.3
v 0.0999999 2.6 -0.7
v -2.8 0 2
v -2.8 0 1.7
v -2.8 0 -0.6
v -2.8 0 -0.9
v -2.8 0.3 2.3
v -2.8 0.3 2.2
v -2.8 0.3 2
v -2.8 0.3 1.7
v -2.8 0.3 -0.6
v -2.8 0.3 -0.9
v -2.8 1.2 2.2
v -2.8 1.2 -0.7
v -2.8 1.3 2.2
v -2.8 1.3 2
v -2.8 1.4 2
v -2.8 1.4 1.9
v -2.8 1.5 1.9
v -2.8 1.5 1.8
v -2.8 1.6 1.8
v -2.8 1.6 1.7
v -2.8 1.7 1.7
v -2.8 1.7 1.5
v -2.8 1.8 1.5
v -2.8 1.8 1.3
v -2.8 1.9 1.3
v -2.8 1.9 1.1
v -2.8 2 1.1
v -2.8 2 0.9
v -2.8 2.1 0.9
v -2.8 2.1 0.7
v -2.8 2.2 0.7
v -2.8 2.2 0.3
v -2.8 2.3 0.3
v -2.8 2.3 0.2
v -2.8 2.4 0.2
v -2.8 2.4 -0.6
v -2.8 2.5 -0.6
v -2.8 2.5 -0.7
v -2.8 2.6 2.3
v -2.8 2.6 -0.7
v 0 0.3 2.3
v 0 0.3 2.2
v 0 0.7 2.3
v 0 0.7 2.2
v 0 0.8 2.3
v 0 0.8 2.2
v 0 1.1 2.3
v 0 1.1 2.2
v 0 1.2 2.3
v 0 1.2 1.9
v 0 1.2 0.0999999
v 0 1.2 -0.6
v 0 1.3 2.3
v 0 1.3 1.9
v 0 1.3 0.0999999
v 0 1.3 -2.38419e-07
v 0 2 0.0999999
v 0 2 -2.38419e-07
v 0 2 -0.6
v 0 2 -0.7
v 0 2.6 -0.7
v 0 2.7 -2.38419e-07
v 0 2.7 -0.1
v 0 2.7 -0.7
v 0 2.7 -0.8
v 0 3 -0.1
v 0 3 -0.8
v 0.4 0 2
v 0.4 0 1.7
v 0.4 0 -0.6
v 0.4 0 -0.9
v 0.4 0.3 2
v 0.4 0.3 1.7
v 0.4 0.3 -0.6
v 0.4 0.3 -0.9
v 0.6 0.3 2.3
v 0.6 0.3 -1.1
v 0.6 2.6 2.3
v 0.6 2.6 -1.1
v -3.3 0.3 2.3
v -3.3 2.6 2.3
v -3.2 0.4 2.3
v -3.2 2.6 2.3
v -2.9 0.4 2.3
v -2.9 2.6 2.3
v -2.8 0.3 2.3
v -2.8 2.6 2.3
v -2.7 0.3 2.3
v -2.7 0.7 2.3
v -2.7 0.8 2.3
v -2.7 1.2 2.3
v -2.7 1.3 2.3
v -2.6 1.1 2.3
v -2.6 1.2 2.3
v -2.5 1 2.3
v -2.5 1.1 2.3
v -2.4 0.3 2.3
v -2.4 0.4 2.3
v -2.2 0.9 2.3
v -2.2 1 2.3
v -2.1 0.4 2.3
v -2.1 0.5 2.3
v -2 0.8 2.3
v -2 0.9 2.3
v -1.9 0.5 2.3
v -1.9 0.6 2.3
v -1.7 0.6 2.3
v -1.7 0.7 2.3
v -1 0.6 2.3
v -1 0.7 2.3
v -0.8 0.8 2.3
v -0.8 0.9 2.3
v -0.7 0.5 2.3
v -0.7 0.6 2.3
v -0.6 0.9 2.3
v -0.6 1 2.3
v -0.5 0.4 2.3
v -0.5 0.5 2.3
v -0.4 1 2.3
v -0.4 1.1 2.3
v -0.3 0.3 2.3
v -0.3 0.4 2.3
v -0.1 1.1 2.3
v -0.1 1.2 2.3
v 0 0.3 2.3
v 0 0.7 2.3
v 0 0.8 2.3
v 0 1.1 2.3
v 0 1.2 2.3
v 0 1.3 2.3
v 0.0999999 0.3 2.3
v 0.0999999 1.1 2.3
v 0.0999999 1.2 2.3
v 0.0999999 2.6 2.3
v 0.2 0.4 2.3
v 0.2 2.6 2.3
v 0.5 0.4 2.3
v 0.5 2.6 2.3
v 0.6 0.3 2.3
v 0.6 2.6 2.3
v -2.8 0.3 2.2
v -2.8 1.2 2.2
v -2.7 0.3 2.2
v -2.7 0.7 2.2
v -2.7 0.8 2.2
v -2.7 1.2 2.2
v -2 0.8 2.2
v -1.7 0.7 2.2
v -1 0.7 2.2
v -0.8 0.8 2.2
v 0 0.3 2.2
v 0 0.7 2.2
v 0 0.8 2.2
v 0 1.1 2.2
v 0.0999999 0.3 2.2
v 0.0999999 1.1 2.2
v -3.1 0 2
v -3.1 0.3 2
v -2.8 0 2
v -2.8 0.3 2
v 0.0999999 0 2
v 0.0999999 0.3 2
v 0.4 0 2
v 0.4 0.3 2
v -2.7 1.3 0.0999999
v -2.7 1.9 0.0999999
v -2.7 2 0.0999999
v -2.6 1.8 0.0999999
v -2.6 1.9 0.0999999
v -2.5 1.7 0.0999999
v -2.5 1.8 0.0999999
v -2.2 1.6 0.0999999
v -2.2 1.7 0.0999999
v -2 1.5 0.0999999
v -2 1.6 0.0999999
v -1.6 1.4 0.0999999
v -1.6 1.5 0.0999999
v -0.8 1.4 0.0999999
v -0.8 1.5 0.0999999
v -0.6 1.5 0.0999999
v -0.6 1.6 0.0999999
v -0.5 1.6 0.0999999
v -0.5 1.7 0.0999999
v -0.3 1.7 0.0999999
v -0.3 1.8 0.0999999
v -0.2 1.8 0.0999999
v -0.2 1.9 0.0999999
v -0.1 1.9 0.0999999
v -0.1 2 0.0999999
v 0 1.3 0.0999999
v 0 2 0.0999999
v -2.7 2 -2.38419e-07
v -2.7 2.7 -2.38419e-07
v -0.1 2 -2.38419e-07
v 0 2 -2.38419e-07
v 0 2.7 -2.38419e-07
v -2.7 2.7 -0.1
v -2.7 3 -0.1
v 0 2.7 -0.1
v 0 3 -0.1
v -3.1 0 -0.6
v -3.1 0.3 -0.6
v -2.8 0 -0.6
v -2.8 0.3 -0.6
v 0.0999999 0 -0.6
v 0.0999999 0.3 -0.6
v 0.4 0 -0.6
v 0.4 0.3 -0.6
v -2.8 1.2 -0.7
v -2.8 2.5 -0.7
v -2.8 2.6 -0.7
v -2.7 1.2 -0.7
v -2.7 2 -0.7
v -2.7 2.6 -0.7
v 0 1.2 -0.7
v 0 2 -0.7
v 0 2.6 -0.7
v 0.0999999 1.2 -0.7
v 0.0999999 2.5 -0.7
v 0.0999999 2.6 -0.7
v -3.1 0 1.7
v -3.1 0.3 1.7
v -2.8 0 1.7
v -2.8 0.3 1.7
v 0.0999999 0 1.7
v 0.0999999 0.3 1.7
v 0.4 0 1.7
v 0.4 0.3 1.7
v -2.7 1.2 -0.6
v -2.7 2 -0.6
v 0 1.2 -0.6
v 0 2 -0.6
v -2.7 2.6 -0.7
v -2.7 2.7 -0.7
v 0 2.6 -0.7
v 0 2.7 -0.7
v -2.7 2.7 -0.8
v -2.7 3 -0.8
v 0 2.7 -0.8
v 0 3 -0.8
v -3.1 0 -0.9
v -3.1 0.3 -0.9
v -2.8 0 -0.9
v -2.8 0.3 -0.9
v 0.0999999 0 -0.9
v 0.0999999 0.3 -0.9
v 0.4 0 -0.9
v 0.4 0.3 -0.9
v -3.3 0.3 -1.1
v -3.3 2.6 -1.1
v 0.6 0.3 -1.1
v 0.6 2.6 -1.1
v -3.1 0 2
v -2.8 0 2
v 0.0999999 0 2
v 0.4 0 2
v -3.1 0 1.7
v -2.8 0 1.7
v 0.0999999 0 1.7
v 0.4 0 1.7
v -3.1 0 -0.6
v -2.8 0 -0.6
v 0.0999999 0 -0.6
v 0.4 0 -0.6
v -3.1 0 -0.9
v -2.8 0 -0.9
v 0.0999999 0 -0.9
v 0.4 0 -0.9
v -3.3 0.3 2.3
v -2.8 0.3 2.3
v -2.7 0.3 2.3
v -2.4 0.3 2.3
v -0.3 0.3 2.3
v 0 0.3 2.3
v 0.0999999 0.3 2.3
v 0.6 0.3 2.3
v -2.8 0.3 2.2
v -2.7 0.3 2.2
v -2.4 0.3 2.2
v -0.3 0.3 2.2
v 0 0.3 2.2
v 0.0999999 0.3 2.2
v -2.8 0.3 2.1
v -2.7 0.3 2.1
v 0 0.3 2.1
v 0.0999999 0.3 2.1
v -3.1 0.3 2
v -2.8 0.3 2
v 0.0999999 0.3 2
v 0.4 0.3 2
v -3.1 0.3 1.7
v -2.8 0.3 1.7
v 0.0999999 0.3 1.7
v 0.4 0.3 1.7
v -3.1 0.3 -0.6
v -2.8 0.3 -0.6
v 0.0999999 0.3 -0.6
v 0.4 0.3 -0.6
v -3.1 0.3 -0.9
v -2.8 0.3 -0.9
v 0.0999999 0.3 -0.9
v 0.4 0.3 -0.9
v -3.3 0.3 -1.1
v 0.6 0.3 -1.1
v -2.7 0.8 2.3
v -2 0.8 2.3
v -0.8 0.8 2.3
v 0 0.8 2.3
v -2.7 0.8 2.2
v -2 0.8 2.2
v -0.8 0.8 2.2
v 0 0.8 2.2
v 0 1.1 2.3
v 0.0999999 1.1 2.3
v 0 1.1 2.2
v 0.0999999 1.1 2.2
v -2.7 2 -0.6
v 0 2 -0.6
v -2.7 2 -0.7
v 0 2 -0.7
v -2.7 2.7 -0.7
v 0 2.7 -0.7
v -2.7 2.7 -0.8
v 0 2.7 -0.8
v -2.7 0.7 2.3
v -1.7 0.7 2.3
v -1 0.7 2.3
v 0 0.7 2.3
v -2.7 0.7 2.2
v -1.7 0.7 2.2
v -1 0.7 2.2
v 0 0.7 2.2
v 0 1.2 2.3
v 0.0999999 1.2 2.3
v -2.8 1.2 2.2
v -2.7 1.2 2.2
v 0.0999999 1.2 2.2
v 0 1.2 1.9
v -2.7 1.2 1.8
v -2.7 1.2 0.0999999
v 0 1.2 0.0999999
v -2.7 1.2 -0.6
v 0 1.2 -0.6
v -2.8 1.2 -0.7
v -2.7 1.2 -0.7
v 0 1.2 -0.7
v 0.0999999 1.2 -0.7
v -2.7 1.3 2.3
v 0 1.3 2.3
v -0.1 1.3 1.9
v 0 1.3 1.9
v -2.7 1.3 1.8
v -2.6 1.3 1.8
v -0.2 1.3 1.7
v -0.1 1.3 1.7
v -2.6 1.3 1.5
v -2.5 1.3 1.5
v -0.3 1.3 1.4
v -0.2 1.3 1.4
v -2.5 1.3 1.2
v -2.4 1.3 1.2
v -0.4 1.3 1
v -0.3 1.3 1
v -2.4 1.3 0.9
v -2.3 1.3 0.9
v -0.5 1.3 0.8
v -0.4 1.3 0.8
v -2.3 1.3 0.7
v -2.1 1.3 0.7
v -0.7 1.3 0.7
v -0.5 1.3 0.7
v -2.1 1.3 0.6
v -1.9 1.3 0.6
v -1.1 1.3 0.6
v -0.7 1.3 0.6
v -1.9 1.3 0.5
v -1.6 1.3 0.5
v -1.2 1.3 0.5
v -1.1 1.3 0.5
v -1.6 1.3 0.4
v -1.2 1.3 0.4
v -2.7 1.3 0.0999999
v 0 1.3 0.0999999
v -2.7 2 0.0999999
v -0.1 2 0.0999999
v 0 2 0.0999999
v -2.7 2 -2.38419e-07
v -0.1 2 -2.38419e-07
v 0 2 -2.38419e-07
v -3.3 2.6 2.3
v -3.2 2.6 2.3
v -2.9 2.6 2.3
v -2.8 2.6 2.3
v 0.0999999 2.6 2.3
v 0.2 2.6 2.3
v 0.5 2.6 2.3
v 0.6 2.6 2.3
v -2.8 2.6 -0.7
v -2.7 2.6 -0.7
v 0 2.6 -0.7
v 0.0999999 2.6 -0.7
v -2.9 2.6 -0.8
v 0.2 2.6 -0.8
v -3.2 2.6 -1
v 0.5 2.6 -1
v -3.3 2.6 -1.1
v 0.6 2.6 -1.1
v -2.7 2.7 -2.38419e-07
v 0 2.7 -2.38419e-07
v -2.7 2.7 -0.1
v 0 2.7 -0.1
v -2.7 3 -0.1
v 0 3 -0.1
v -2.7 3 -0.8
v 0 3 -0.8

# faces
f 3/2/1 2/2/1 1/2/1
f 4/2/1 2/2/1 3/2/1
f 9/1/1 6/1/1 5/1/1
f 10/1/1 6/1/1 9/1/1
f 11/1/1 8/1/1 7/1/1
f 12/1/1 8/1/1 11/1/1
f 15/4/1 14/4/1 13/4/1
f 16/4/1 14/4/1 15/4/1
f 19/4/1 18/4/1 17/4/1
f 20/4/1 18/4/1 19/4/1
f 24/2/1 20/2/1 19/2/1
f 24/2/1 21/2/1 20/2/1
f 25/4/1 22/4/1 21/4/1
f 25/2/1 21/2/1 24/2/1
f 26/2/1 23/2/1 22/2/1
f 26/4/1 22/4/1 25/4/1
f 27/2/1 23/2/1 26/2/1
f 28/4/1 27/4/1 26/4/1
f 29/2/1 23/2/1 27/2/1
f 29/4/1 27/4/1 28/4/1
f 30/2/1 29/2/1 28/2/1
f 31/2/1 23/2/1 29/2/1
f 31/2/1 29/2/1 30/2/1
f 32/2/1 23/2/1 31/2/1
f 34/2/1 33/2/1 32/2/1
f 34/2/1 32/2/1 31/2/1
f 35/2/1 34/2/1 31/2/1
f 36/2/1 34/2/1 35/2/1
f 37/2/1 34/2/1 36/2/1
f 39/2/1 37/2/1 36/2/1
f 39/2/1 38/2/1 37/2/1
f 40/2/1 38/2/1 39/2/1
f 47/1/1 42/1/1 41/1/1
f 48/1/1 42/1/1 47/1/1
f 49/1/1 44/1/1 43/1/1
f 50/1/1 44/1/1 49/1/1
f 51/2/1 46/2/1 45/2/1
f 52/2/1 46/2/1 51/2/1
f 56/2/1 54/2/1 53/2/1
f 56/4/1 55/4/1 54/4/1
f 57/4/1 55/4/1 56/4/1
f 58/2/1 57/2/1 56/2/1
f 58/4/1 55/4/1 57/4/1
f 59/4/1 55/4/1 58/4/1
f 60/2/1 59/2/1 58/2/1
f 60/4/1 55/4/1 59/4/1
f 61/4/1 55/4/1 60/4/1
f 62/2/1 61/2/1 60/2/1
f 62/4/1 55/4/1 61/4/1
f 63/4/1 55/4/1 62/4/1
f 64/2/1 63/2/1 62/2/1
f 64/4/1 55/4/1 63/4/1
f 65/4/1 55/4/1 64/4/1
f 66/2/1 65/2/1 64/2/1
f 66/4/1 55/4/1 65/4/1
f 67/4/1 55/4/1 66/4/1
f 68/2/1 67/2/1 66/2/1
f 68/4/1 55/4/1 67/4/1
f 69/4/1 55/4/1 68/4/1
f 70/2/1 69/2/1 68/2/1
f 70/4/1 55/4/1 69/4/1
f 71/4/1 55/4/1 70/4/1
f 72/2/1 71/2/1 70/2/1
f 72/4/1 55/4/1 71/4/1
f 73/4/1 55/4/1 72/4/1
f 74/2/1 73/2/1 72/2/1
f 74/4/1 55/4/1 73/4/1
f 75/4/1 55/4/1 74/4/1
f 76/2/1 75/2/1 74/2/1
f 76/4/1 55/4/1 75/4/1
f 77/4/1 55/4/1 76/4/1
f 78/2/1 77/2/1 76/2/1
f 78/4/1 55/4/1 77/4/1
f 79/4/1 55/4/1 78/4/1
f 80/2/1 79/2/1 78/2/1
f 80/4/1 55/4/1 79/4/1
f 81/4/1 55/4/1 80/4/1
f 82/2/1 56/2/1 53/2/1
f 82/2/1 58/2/1 56/2/1
f 82/2/1 81/2/1 80/2/1
f 82/2/1 80/2/1 78/2/1
f 82/2/1 78/2/1 76/2/1
f 82/2/1 76/2/1 74/2/1
f 82/2/1 74/2/1 72/2/1
f 82/2/1 72/2/1 70/2/1
f 82/2/1 70/2/1 68/2/1
f 82/2/1 68/2/1 66/2/1
f 82/2/1 66/2/1 64/2/1
f 82/2/1 64/2/1 62/2/1
f 82/2/1 62/2/1 60/2/1
f 82/2/1 60/2/1 58/2/1
f 83/2/1 81/2/1 82/2/1
f 84/1/2 85/1/2 90/1/2
f 90/1/2 85/1/2 91/1/2
f 86/1/2 87/1/2 92/1/2
f 92/1/2 87/1/2 93/1/2
f 88/2/2 89/2/2 94/2/2
f 88/2/2 94/2/2 96/2/2
f 94/4/2 95/4/2 96/4/2
f 96/4/2 95/4/2 97/4/2
f 96/2/2 97/2/2 98/2/2
f 97/4/2 95/4/2 98/4/2
f 98/4/2 95/4/2 99/4/2
f 98/2/2 99/2/2 100/2/2
f 99/4/2 95/4/2 100/4/2
f 100/4/2 95/4/2 101/4/2
f 100/2/2 101/2/2 102/2/2
f 101/4/2 95/4/2 102/4/2
f 102/4/2 95/4/2 103/4/2
f 102/2/2 103/2/2 104/2/2
f 103/4/2 95/4/2 104/4/2
f 104/4/2 95/4/2 105/4/2
f 104/2/2 105/2/2 106/2/2
f 105/4/2 95/4/2 106/4/2
f 106/4/2 95/4/2 107/4/2
f 106/2/2 107/2/2 108/2/2
f 107/4/2 95/4/2 108/4/2
f 108/4/2 95/4/2 109/4/2
f 108/2/2 109/2/2 110/2/2
f 109/4/2 95/4/2 110/4/2
f 110/4/2 95/4/2 111/4/2
f 110/2/2 111/2/2 112/2/2
f 111/4/2 95/4/2 112/4/2
f 112/4/2 95/4/2 113/4/2
f 112/2/2 113/2/2 114/2/2
f 113/4/2 95/4/2 114/4/2
f 114/4/2 95/4/2 115/4/2
f 114/2/2 115/2/2 116/2/2
f 115/4/2 95/4/2 116/4/2
f 116/4/2 95/4/2 117/4/2
f 116/2/2 117/2/2 118/2/2
f 117/4/2 95/4/2 118/4/2
f 118/4/2 95/4/2 119/4/2
f 118/2/2 119/2/2 120/2/2
f 119/4/2 95/4/2 120/4/2
f 120/4/2 95/4/2 121/4/2
f 88/2/2 96/2/2 122/2/2
f 96/2/2 98/2/2 122/2/2
f 120/2/2 121/2/2 122/2/2
f 118/2/2 120/2/2 122/2/2
f 116/2/2 118/2/2 122/2/2
f 114/2/2 116/2/2 122/2/2
f 112/2/2 114/2/2 122/2/2
f 110/2/2 112/2/2 122/2/2
f 108/2/2 110/2/2 122/2/2
f 106/2/2 108/2/2 122/2/2
f 104/2/2 106/2/2 122/2/2
f 102/2/2 104/2/2 122/2/2
f 100/2/2 102/2/2 122/2/2
f 98/2/2 100/2/2 122/2/2
f 122/2/2 121/2/2 123/2/2
f 124/4/2 125/4/2 126/4/2
f 126/4/2 125/4/2 127/4/2
f 128/4/2 129/4/2 130/4/2
f 130/4/2 129/4/2 131/4/2
f 132/2/2 133/2/2 136/2/2
f 133/4/2 134/4/2 137/4/2
f 136/2/2 133/2/2 137/2/2
f 134/2/2 135/2/2 138/2/2
f 137/4/2 134/4/2 138/4/2
f 138/2/2 135/2/2 139/2/2
f 138/4/2 139/4/2 140/4/2
f 139/2/2 135/2/2 141/2/2
f 140/4/2 139/4/2 141/4/2
f 141/2/2 135/2/2 142/2/2
f 142/2/2 143/2/2 144/2/2
f 141/2/2 142/2/2 144/2/2
f 141/2/2 144/2/2 145/2/2
f 145/2/2 144/2/2 146/2/2
f 146/2/2 144/2/2 147/2/2
f 146/2/2 147/2/2 149/2/2
f 147/2/2 148/2/2 149/2/2
f 149/2/2 148/2/2 150/2/2
f 151/1/2 152/1/2 155/1/2
f 155/1/2 152/1/2 156/1/2
f 153/1/2 154/1/2 157/1/2
f 157/1/2 154/1/2 158/1/2
f 159/2/2 160/2/2 161/2/2
f 161/2/2 160/2/2 162/2/2
f 165/2/3 164/2/3 163/2/3
f 166/2/3 164/2/3 165/2/3
f 167/2/3 165/2/3 163/2/3
f 167/5/3 166/5/3 165/5/3
f 168/5/3 166/5/3 167/5/3
f 169/2/3 167/2/3 163/2/3
f 169/2/3 168/2/3 167/2/3
f 170/2/3 168/2/3 169/2/3
f 176/4/3 174/4/3 173/4/3
f 177/2/3 175/2/3 174/2/3
f 177/4/3 174/4/3 176/4/3
f 178/4/3 176/4/3 173/4/3
f 179/2/3 177/2/3 176/2/3
f 179/4/3 176/4/3 178/4/3
f 180/4/3 172/4/3 171/4/3
f 181/4/3 172/4/3 180/4/3
f 182/4/3 178/4/3 173/4/3
f 183/2/3 179/2/3 178/2/3
f 183/4/3 178/4/3 182/4/3
f 184/4/3 172/4/3 181/4/3
f 184/2/3 181/2/3 180/2/3
f 185/4/3 172/4/3 184/4/3
f 186/4/3 182/4/3 173/4/3
f 187/2/3 183/2/3 182/2/3
f 187/4/3 182/4/3 186/4/3
f 188/4/3 172/4/3 185/4/3
f 188/2/3 185/2/3 184/2/3
f 189/4/3 172/4/3 188/4/3
f 190/2/3 189/2/3 188/2/3
f 190/4/3 172/4/3 189/4/3
f 191/4/3 172/4/3 190/4/3
f 192/2/3 190/2/3 188/2/3
f 192/2/3 191/2/3 190/2/3
f 193/2/3 191/2/3 192/2/3
f 194/2/3 187/2/3 186/2/3
f 195/2/3 183/2/3 187/2/3
f 195/2/3 187/2/3 194/2/3
f 196/2/3 188/2/3 184/2/3
f 196/2/3 192/2/3 188/2/3
f 197/4/3 193/4/3 192/4/3
f 197/2/3 192/2/3 196/2/3
f 198/2/3 183/2/3 195/2/3
f 198/4/3 195/4/3 194/4/3
f 199/2/3 179/2/3 183/2/3
f 199/2/3 183/2/3 198/2/3
f 200/2/3 184/2/3 180/2/3
f 200/2/3 196/2/3 184/2/3
f 201/4/3 197/4/3 196/4/3
f 201/2/3 196/2/3 200/2/3
f 202/2/3 179/2/3 199/2/3
f 202/4/3 199/4/3 198/4/3
f 203/2/3 177/2/3 179/2/3
f 203/2/3 179/2/3 202/2/3
f 204/2/3 200/2/3 180/2/3
f 205/4/3 201/4/3 200/4/3
f 205/2/3 200/2/3 204/2/3
f 206/2/3 177/2/3 203/2/3
f 206/4/3 203/4/3 202/4/3
f 207/2/3 175/2/3 177/2/3
f 207/2/3 177/2/3 206/2/3
f 208/4/3 205/4/3 204/4/3
f 209/4/3 197/4/3 201/4/3
f 209/4/3 205/4/3 208/4/3
f 209/4/3 193/4/3 197/4/3
f 209/4/3 201/4/3 205/4/3
f 210/4/3 202/4/3 198/4/3
f 210/4/3 206/4/3 202/4/3
f 210/4/3 198/4/3 194/4/3
f 210/4/3 207/4/3 206/4/3
f 211/4/3 207/4/3 210/4/3
f 212/2/3 175/2/3 207/2/3
f 212/4/3 207/4/3 211/4/3
f 213/2/3 175/2/3 212/2/3
f 215/3/3 212/3/3 211/3/3
f 216/3/3 212/3/3 215/3/3
f 218/2/3 216/2/3 215/2/3
f 218/2/3 217/2/3 216/2/3
f 218/2/3 215/2/3 214/2/3
f 219/2/3 217/2/3 218/2/3
f 220/2/3 218/2/3 214/2/3
f 220/5/3 219/5/3 218/5/3
f 221/5/3 219/5/3 220/5/3
f 222/2/3 220/2/3 214/2/3
f 222/2/3 221/2/3 220/2/3
f 223/2/3 221/2/3 222/2/3
f 226/3/3 225/3/3 224/3/3
f 227/3/3 225/3/3 226/3/3
f 228/3/3 225/3/3 227/3/3
f 229/3/3 225/3/3 228/3/3
f 230/3/3 228/3/3 227/3/3
f 231/3/3 230/3/3 227/3/3
f 232/3/3 230/3/3 231/3/3
f 233/3/3 230/3/3 232/3/3
f 235/3/3 233/3/3 232/3/3
f 236/3/3 233/3/3 235/3/3
f 238/3/3 236/3/3 235/3/3
f 238/3/3 237/3/3 236/3/3
f 238/3/3 235/3/3 234/3/3
f 239/3/3 237/3/3 238/3/3
f 242/1/3 241/1/3 240/1/3
f 243/1/3 241/1/3 242/1/3
f 246/1/3 245/1/3 244/1/3
f 247/1/3 245/1/3 246/1/3
f 251/4/3 249/4/3 248/4/3
f 252/2/3 250/2/3 249/2/3
f 252/4/3 249/4/3 251/4/3
f 253/4/3 251/4/3 248/4/3
f 254/2/3 252/2/3 251/2/3
f 254/4/3 251/4/3 253/4/3
f 255/4/3 253/4/3 248/4/3
f 256/2/3 254/2/3 253/2/3
f 256/4/3 253/4/3 255/4/3
f 257/4/3 255/4/3 248/4/3
f 258/2/3 256/2/3 255/2/3
f 258/4/3 255/4/3 257/4/3
f 259/4/3 257/4/3 248/4/3
f 260/2/3 258/2/3 257/2/3
f 260/4/3 257/4/3 259/4/3
f 261/4/3 259/4/3 248/4/3
f 261/2/3 260/2/3 259/2/3
f 262/2/3 258/2/3 260/2/3
f 262/2/3 260/2/3 261/2/3
f 263/4/3 262/4/3 261/4/3
f 263/2/3 258/2/3 262/2/3
f 264/2/3 256/2/3 258/2/3
f 264/2/3 258/2/3 263/2/3
f 265/4/3 264/4/3 263/4/3
f 265/2/3 256/2/3 264/2/3
f 266/2/3 254/2/3 256/2/3
f 266/2/3 256/2/3 265/2/3
f 267/4/3 266/4/3 265/4/3
f 267/2/3 254/2/3 266/2/3
f 268/2/3 252/2/3 254/2/3
f 268/2/3 254/2/3 267/2/3
f 269/4/3 268/4/3 267/4/3
f 269/2/3 252/2/3 268/2/3
f 270/2/3 250/2/3 252/2/3
f 270/2/3 252/2/3 269/2/3
f 271/4/3 270/4/3 269/4/3
f 271/2/3 250/2/3 270/2/3
f 272/2/3 250/2/3 271/2/3
f 273/4/3 269/4/3 267/4/3
f 273/4/3 267/4/3 265/4/3
f 273/4/3 272/4/3 271/4/3
f 273/4/3 271/4/3 269/4/3
f 273/4/3 261/4/3 248/4/3
f 273/4/3 263/4/3 261/4/3
f 273/4/3 265/4/3 263/4/3
f 274/4/3 272/4/3 273/4/3
f 277/2/3 276/2/3 275/2/3
f 278/2/3 276/2/3 277/2/3
f 279/2/3 276/2/3 278/2/3
f 282/2/3 281/2/3 280/2/3
f 283/2/3 281/2/3 282/2/3
f 286/1/3 285/1/3 284/1/3
f 287/1/3 285/1/3 286/1/3
f 290/1/3 289/1/3 288/1/3
f 291/1/3 289/1/3 290/1/3
f 295/2/3 293/2/3 292/2/3
f 295/2/3 294/2/3 293/2/3
f 296/2/3 294/2/3 295/2/3
f 297/2/3 294/2/3 296/2/3
f 298/2/3 296/2/3 295/2/3
f 299/2/3 296/2/3 298/2/3
f 301/2/3 299/2/3 298/2/3
f 301/2/3 300/2/3 299/2/3
f 302/2/3 300/2/3 301/2/3
f 303/2/3 300/2/3 302/2/3
f 304/1/4 305/1/4 306/1/4
f 306/1/4 305/1/4 307/1/4
f 308/1/4 309/1/4 310/1/4
f 310/1/4 309/1/4 311/1/4
f 312/2/4 313/2/4 314/2/4
f 314/2/4 313/2/4 315/2/4
f 316/2/4 317/2/4 318/2/4
f 318/2/4 317/2/4 319/2/4
f 320/2/4 321/2/4 322/2/4
f 322/2/4 321/2/4 323/2/4
f 324/1/4 325/1/4 326/1/4
f 326/1/4 325/1/4 327/1/4
f 328/1/4 329/1/4 330/1/4
f 330/1/4 329/1/4 331/1/4
f 332/2/4 333/2/4 334/2/4
f 334/2/4 333/2/4 335/2/4
f 340/1/5 337/1/5 336/1/5
f 341/1/5 337/1/5 340/1/5
f 342/1/5 339/1/5 338/1/5
f 343/1/5 339/1/5 342/1/5
f 348/1/5 345/1/5 344/1/5
f 349/1/5 345/1/5 348/1/5
f 350/1/5 347/1/5 346/1/5
f 351/1/5 347/1/5 350/1/5
f 360/2/5 353/2/5 352/2/5
f 361/4/5 355/4/5 354/4/5
f 362/2/5 356/2/5 355/2/5
f 362/4/5 355/4/5 361/4/5
f 363/4/5 357/4/5 356/4/5
f 363/2/5 356/2/5 362/2/5
f 364/4/5 357/4/5 363/4/5
f 365/2/5 359/2/5 358/2/5
f 366/2/5 360/2/5 352/2/5
f 366/3/5 361/3/5 360/3/5
f 367/2/5 364/2/5 363/2/5
f 367/3/5 361/3/5 366/3/5
f 367/2/5 362/2/5 361/2/5
f 367/2/5 363/2/5 362/2/5
f 368/3/5 365/3/5 364/3/5
f 368/2/5 364/2/5 367/2/5
f 369/2/5 359/2/5 365/2/5
f 369/3/5 365/3/5 368/3/5
f 370/2/5 366/2/5 352/2/5
f 370/2/5 367/2/5 366/2/5
f 370/2/5 369/2/5 368/2/5
f 370/2/5 368/2/5 367/2/5
f 371/2/5 369/2/5 370/2/5
f 372/2/5 359/2/5 369/2/5
f 372/2/5 369/2/5 371/2/5
f 373/2/5 359/2/5 372/2/5
f 374/2/5 370/2/5 352/2/5
f 375/2/5 372/2/5 371/2/5
f 376/2/5 372/2/5 375/2/5
f 377/2/5 359/2/5 373/2/5
f 378/2/5 376/2/5 375/2/5
f 378/2/5 377/2/5 376/2/5
f 378/2/5 374/2/5 352/2/5
f 378/2/5 375/2/5 374/2/5
f 379/2/5 377/2/5 378/2/5
f 380/2/5 377/2/5 379/2/5
f 381/2/5 359/2/5 377/2/5
f 381/2/5 377/2/5 380/2/5
f 382/2/5 378/2/5 352/2/5
f 383/2/5 380/2/5 379/2/5
f 384/2/5 380/2/5 383/2/5
f 385/2/5 359/2/5 381/2/5
f 386/2/5 382/2/5 352/2/5
f 386/2/5 385/2/5 384/2/5
f 386/2/5 384/2/5 383/2/5
f 386/2/5 383/2/5 382/2/5
f 387/2/5 359/2/5 385/2/5
f 387/2/5 385/2/5 386/2/5
f 392/4/5 389/4/5 388/4/5
f 393/2/5 390/2/5 389/2/5
f 393/4/5 389/4/5 392/4/5
f 394/4/5 391/4/5 390/4/5
f 394/2/5 390/2/5 393/2/5
f 395/4/5 391/4/5 394/4/5
f 398/3/5 397/3/5 396/3/5
f 399/3/5 397/3/5 398/3/5
f 402/2/5 401/2/5 400/2/5
f 403/2/5 401/2/5 402/2/5
f 406/2/5 405/2/5 404/2/5
f 407/2/5 405/2/5 406/2/5
f 408/4/6 409/4/6 412/4/6
f 409/2/6 410/2/6 413/2/6
f 412/4/6 409/4/6 413/4/6
f 410/4/6 411/4/6 414/4/6
f 413/2/6 410/2/6 414/2/6
f 414/4/6 411/4/6 415/4/6
f 416/3/6 417/3/6 420/3/6
f 416/3/6 420/3/6 421/3/6
f 418/3/6 419/3/6 422/3/6
f 418/3/6 422/3/6 423/3/6
f 421/3/6 420/3/6 424/3/6
f 418/3/6 423/3/6 425/3/6
f 424/3/6 420/3/6 426/3/6
f 418/3/6 425/3/6 427/3/6
f 425/2/6 426/2/6 428/2/6
f 427/3/6 425/3/6 428/3/6
f 426/3/6 420/3/6 429/3/6
f 428/2/6 426/2/6 429/2/6
f 429/3/6 420/3/6 430/3/6
f 431/2/6 432/2/6 433/2/6
f 433/2/6 432/2/6 434/2/6
f 431/2/6 433/2/6 435/2/6
f 435/2/6 433/2/6 436/2/6
f 436/2/6 433/2/6 437/2/6
f 433/4/6 434/4/6 438/4/6
f 437/2/6 433/2/6 438/2/6
f 436/2/6 437/2/6 439/2/6
f 435/4/6 436/4/6 439/4/6
f 439/2/6 437/2/6 440/2/6
f 440/2/6 437/2/6 441/2/6
f 437/4/6 438/4/6 442/4/6
f 441/2/6 437/2/6 442/2/6
f 440/2/6 441/2/6 443/2/6
f 439/4/6 440/4/6 443/4/6
f 443/2/6 441/2/6 444/2/6
f 444/2/6 441/2/6 445/2/6
f 441/4/6 442/4/6 446/4/6
f 445/2/6 441/2/6 446/2/6
f 444/2/6 445/2/6 447/2/6
f 443/4/6 444/4/6 447/4/6
f 447/2/6 445/2/6 448/2/6
f 448/2/6 445/2/6 449/2/6
f 445/4/6 446/4/6 450/4/6
f 449/2/6 445/2/6 450/2/6
f 448/2/6 449/2/6 451/2/6
f 447/4/6 448/4/6 451/4/6
f 451/2/6 449/2/6 452/2/6
f 452/2/6 449/2/6 453/2/6
f 449/4/6 450/4/6 454/4/6
f 453/2/6 449/2/6 454/2/6
f 452/2/6 453/2/6 455/2/6
f 451/4/6 452/4/6 455/4/6
f 455/2/6 453/2/6 456/2/6
f 456/2/6 453/2/6 457/2/6
f 453/4/6 454/4/6 458/4/6
f 457/2/6 453/2/6 458/2/6
f 456/2/6 457/2/6 459/2/6
f 455/4/6 456/4/6 459/4/6
f 459/2/6 457/2/6 460/2/6
f 460/2/6 457/2/6 461/2/6
f 457/4/6 458/4/6 462/4/6
f 461/2/6 457/2/6 462/2/6
f 460/2/6 461/2/6 463/2/6
f 459/4/6 460/4/6 463/4/6
f 461/4/6 462/4/6 464/4/6
f 463/2/6 461/2/6 464/2/6
f 435/4/6 439/4/6 465/4/6
f 439/4/6 443/4/6 465/4/6
f 463/4/6 464/4/6 465/4/6
f 459/4/6 463/4/6 465/4/6
f 455/4/6 459/4/6 465/4/6
f 443/4/6 447/4/6 465/4/6
f 451/4/6 455/4/6 465/4/6
f 447/4/6 451/4/6 465/4/6
f 438/4/6 434/4/6 466/4/6
f 465/4/6 464/4/6 466/4/6
f 442/4/6 438/4/6 466/4/6
f 454/4/6 450/4/6 466/4/6
f 458/4/6 454/4/6 466/4/6
f 450/4/6 446/4/6 466/4/6
f 462/4/6 458/4/6 466/4/6
f 446/4/6 442/4/6 466/4/6
f 464/4/6 462/4/6 466/4/6
f 467/2/6 468/2/6 470/2/6
f 468/4/6 469/4/6 471/4/6
f 470/2/6 468/2/6 471/2/6
f 471/4/6 469/4/6 472/4/6
f 475/2/6 476/2/6 481/2/6
f 477/2/6 478/2/6 484/2/6
f 474/5/6 475/5/6 485/5/6
f 483/2/6 484/2/6 485/2/6
f 482/2/6 483/2/6 485/2/6
f 475/2/6 481/2/6 485/2/6
f 481/2/6 482/2/6 485/2/6
f 484/2/6 478/2/6 486/2/6
f 485/2/6 484/2/6 486/2/6
f 478/5/6 479/5/6 486/5/6
f 473/2/6 474/2/6 487/2/6
f 474/5/6 485/5/6 487/5/6
f 485/5/6 486/5/6 487/5/6
f 486/5/6 479/5/6 488/5/6
f 487/5/6 486/5/6 488/5/6
f 479/2/6 480/2/6 488/2/6
f 473/2/6 487/2/6 489/2/6
f 487/2/6 488/2/6 489/2/6
f 488/2/6 480/2/6 490/2/6
f 489/2/6 488/2/6 490/2/6
f 491/2/6 492/2/6 493/2/6
f 493/2/6 492/2/6 494/2/6
f 495/2/6 496/2/6 497/2/6
f 497/2/6 496/2/6 498/2/6
