# MagicaVoxel @ Ephtracy

# group
o 

# material
mtllib konstytsia.mtl
usemtl palette

# normals
vn -1 0 0
vn 1 0 0
vn 0 0 1
vn 0 0 -1
vn 0 -1 0
vn 0 1 0

# texcoords
vt 0.939453 0.5
vt 0.974609 0.5
vt 0.978516 0.5
vt 0.986328 0.5
vt 0.990234 0.5
vt 0.994141 0.5

# verts
v -1.3 3.1 1.5
v -1.3 3.1 1.2
v -1.3 3.1 -1.3
v -1.3 3.1 -1.6
v -1.3 3.2 1.5
v -1.3 3.2 1.2
v -1.3 3.2 -1.3
v -1.3 3.2 -1.6
v -1.2 0 1.5
v -1.2 0 1.2
v -1.2 0 -1.3
v -1.2 0 -1.6
v -1.2 0.1 1.5
v -1.2 0.1 1.2
v -1.2 0.1 -1.3
v -1.2 0.1 -1.6
v -1.2 3.1 1.5
v -1.2 3.1 1.2
v -1.2 3.1 -1.3
v -1.2 3.1 -1.6
v 0.1 0 1.5
v 0.1 0 1.1
v 0.1 0 -1.2
v 0.1 0 -1.6
v 0.1 0.1 1.5
v 0.1 0.1 1.1
v 0.1 0.1 -1.2
v 0.1 0.1 -1.6
v 0.1 0.2 1.5
v 0.1 0.2 1.3
v 0.1 0.2 -1.4
v 0.1 0.2 -1.6
v 0.1 0.4 1.5
v 0.1 0.4 1.3
v 0.1 0.4 -1.4
v 0.1 0.4 -1.6
v 0.1 2 1.2
v 0.1 2 1.1
v 0.1 2 -1.2
v 0.1 2 -1.3
v 0.1 2.1 1.2
v 0.1 2.1 1.1
v 0.1 2.1 -1.2
v 0.1 2.1 -1.3
v 0.1 3 1.5
v 0.1 3 1.2
v 0.1 3 -1.3
v 0.1 3 -1.6
v 0.2 0 1.1
v 0.2 0 1
v 0.2 0 -1.1
v 0.2 0 -1.2
v 0.2 0.1 1.1
v 0.2 0.1 1
v 0.2 0.1 -1.1
v 0.2 0.1 -1.2
v 0.2 1.9 1.1
v 0.2 1.9 1
v 0.2 1.9 -1.1
v 0.2 1.9 -1.2
v 0.2 2 1.1
v 0.2 2 1
v 0.2 2 -1.1
v 0.2 2 -1.2
v 0.2 2.1 1.2
v 0.2 2.1 1.1
v 0.2 2.1 -1.2
v 0.2 2.1 -1.3
v 0.2 2.8 1.2
v 0.2 2.8 1.1
v 0.2 2.8 -1.2
v 0.2 2.8 -1.3
v 0.2 2.9 1.2
v 0.2 2.9 1.1
v 0.2 2.9 -1.2
v 0.2 2.9 -1.3
v 0.2 3 1.2
v 0.2 3 1.1
v 0.2 3 -1.2
v 0.2 3 -1.3
v 0.3 2 1.1
v 0.3 2 1
v 0.3 2 0.9
v 0.3 2 -1
v 0.3 2 -1.1
v 0.3 2 -1.2
v 0.3 2.1 1
v 0.3 2.1 0.9
v 0.3 2.1 -1
v 0.3 2.1 -1.1
v 0.3 2.7 1
v 0.3 2.7 0.9
v 0.3 2.7 -1
v 0.3 2.7 -1.1
v 0.3 2.8 1.1
v 0.3 2.8 1
v 0.3 2.8 0.9
v 0.3 2.8 -1
v 0.3 2.8 -1.1
v 0.3 2.8 -1.2
v 0.3 2.9 1.1
v 0.3 2.9 1
v 0.3 2.9 -1.1
v 0.3 2.9 -1.2
v 1.6 0 1.5
v 1.6 0 1.2
v 1.6 0 -1.3
v 1.6 0 -1.6
v 1.6 0.1 1.5
v 1.6 0.1 1.2
v 1.6 0.1 -1.3
v 1.6 0.1 -1.6
v 1.6 0.2 1.5
v 1.6 0.2 1.3
v 1.6 0.2 -1.4
v 1.6 0.2 -1.6
v 1.6 0.4 1.5
v 1.6 0.4 1.3
v 1.6 0.4 -1.4
v 1.6 0.4 -1.6
v 1.6 3 1.5
v 1.6 3 1.2
v 1.6 3 -1.3
v 1.6 3 -1.6
v -0.9 0 1.5
v -0.9 0 1.2
v -0.9 0 -1.3
v -0.9 0 -1.6
v -0.9 0.1 1.5
v -0.9 0.1 1.2
v -0.9 0.1 -1.3
v -0.9 0.1 -1.6
v -0.9 0.2 1.5
v -0.9 0.2 1.3
v -0.9 0.2 -1.4
v -0.9 0.2 -1.6
v -0.9 0.4 1.5
v -0.9 0.4 1.3
v -0.9 0.4 -1.4
v -0.9 0.4 -1.6
v -0.9 3 1.5
v -0.9 3 1.2
v -0.9 3 -1.3
v -0.9 3 -1.6
v 0.4 2 1.1
v 0.4 2 1
v 0.4 2 0.9
v 0.4 2 -1
v 0.4 2 -1.1
v 0.4 2 -1.2
v 0.4 2.1 1
v 0.4 2.1 0.9
v 0.4 2.1 -1
v 0.4 2.1 -1.1
v 0.4 2.7 1
v 0.4 2.7 0.9
v 0.4 2.7 -1
v 0.4 2.7 -1.1
v 0.4 2.8 1.1
v 0.4 2.8 1
v 0.4 2.8 0.9
v 0.4 2.8 -1
v 0.4 2.8 -1.1
v 0.4 2.8 -1.2
v 0.4 2.9 1.1
v 0.4 2.9 1
v 0.4 2.9 -1.1
v 0.4 2.9 -1.2
v 0.5 0 1.1
v 0.5 0 1
v 0.5 0 -1.1
v 0.5 0 -1.2
v 0.5 0.1 1.1
v 0.5 0.1 1
v 0.5 0.1 -1.1
v 0.5 0.1 -1.2
v 0.5 1.9 1.1
v 0.5 1.9 1
v 0.5 1.9 -1.1
v 0.5 1.9 -1.2
v 0.5 2 1.1
v 0.5 2 1
v 0.5 2 -1.1
v 0.5 2 -1.2
v 0.5 2.1 1.2
v 0.5 2.1 1.1
v 0.5 2.1 -1.2
v 0.5 2.1 -1.3
v 0.5 2.8 1.2
v 0.5 2.8 1.1
v 0.5 2.8 -1.2
v 0.5 2.8 -1.3
v 0.5 2.9 1.2
v 0.5 2.9 1.1
v 0.5 2.9 -1.2
v 0.5 2.9 -1.3
v 0.5 3 1.2
v 0.5 3 1.1
v 0.5 3 -1.2
v 0.5 3 -1.3
v 0.6 0 1.5
v 0.6 0 1.1
v 0.6 0 -1.2
v 0.6 0 -1.6
v 0.6 0.1 1.5
v 0.6 0.1 1.1
v 0.6 0.1 -1.2
v 0.6 0.1 -1.6
v 0.6 0.2 1.5
v 0.6 0.2 1.3
v 0.6 0.2 -1.4
v 0.6 0.2 -1.6
v 0.6 0.4 1.5
v 0.6 0.4 1.3
v 0.6 0.4 -1.4
v 0.6 0.4 -1.6
v 0.6 2 1.2
v 0.6 2 1.1
v 0.6 2 -1.2
v 0.6 2 -1.3
v 0.6 2.1 1.2
v 0.6 2.1 1.1
v 0.6 2.1 -1.2
v 0.6 2.1 -1.3
v 0.6 3 1.5
v 0.6 3 1.2
v 0.6 3 -1.3
v 0.6 3 -1.6
v 1.9 0 1.5
v 1.9 0 1.2
v 1.9 0 -1.3
v 1.9 0 -1.6
v 1.9 0.1 1.5
v 1.9 0.1 1.2
v 1.9 0.1 -1.3
v 1.9 0.1 -1.6
v 1.9 3.1 1.5
v 1.9 3.1 1.2
v 1.9 3.1 -1.3
v 1.9 3.1 -1.6
v 2 3.1 1.5
v 2 3.1 1.2
v 2 3.1 -1.3
v 2 3.1 -1.6
v 2 3.2 1.5
v 2 3.2 1.2
v 2 3.2 -1.3
v 2 3.2 -1.6
v -1.3 3.1 1.5
v -1.3 3.2 1.5
v -1.2 0 1.5
v -1.2 0.1 1.5
v -1.2 3.1 1.5
v -0.9 0 1.5
v -0.9 0.1 1.5
v -0.9 0.2 1.5
v -0.9 0.4 1.5
v -0.9 3 1.5
v 0.1 0 1.5
v 0.1 0.1 1.5
v 0.1 0.2 1.5
v 0.1 0.4 1.5
v 0.1 3 1.5
v 0.6 0 1.5
v 0.6 0.1 1.5
v 0.6 0.2 1.5
v 0.6 0.4 1.5
v 0.6 3 1.5
v 1.6 0 1.5
v 1.6 0.1 1.5
v 1.6 0.2 1.5
v 1.6 0.4 1.5
v 1.6 3 1.5
v 1.9 0 1.5
v 1.9 0.1 1.5
v 1.9 3.1 1.5
v 2 3.1 1.5
v 2 3.2 1.5
v 0.3 2 -1
v 0.3 2.1 -1
v 0.3 2.7 -1
v 0.3 2.8 -1
v 0.4 2 -1
v 0.4 2.1 -1
v 0.4 2.7 -1
v 0.4 2.8 -1
v 0.2 0 -1.1
v 0.2 0.1 -1.1
v 0.2 1.9 -1.1
v 0.2 2 -1.1
v 0.3 2 -1.1
v 0.3 2.1 -1.1
v 0.3 2.7 -1.1
v 0.3 2.8 -1.1
v 0.3 2.9 -1.1
v 0.4 2 -1.1
v 0.4 2.1 -1.1
v 0.4 2.7 -1.1
v 0.4 2.8 -1.1
v 0.4 2.9 -1.1
v 0.5 0 -1.1
v 0.5 0.1 -1.1
v 0.5 1.9 -1.1
v 0.5 2 -1.1
v 0.1 0 -1.2
v 0.1 0.1 -1.2
v 0.1 2 -1.2
v 0.1 2.1 -1.2
v 0.2 0 -1.2
v 0.2 0.1 -1.2
v 0.2 1.9 -1.2
v 0.2 2 -1.2
v 0.2 2.1 -1.2
v 0.2 2.8 -1.2
v 0.2 2.9 -1.2
v 0.2 3 -1.2
v 0.3 2 -1.2
v 0.3 2.8 -1.2
v 0.3 2.9 -1.2
v 0.4 2 -1.2
v 0.4 2.8 -1.2
v 0.4 2.9 -1.2
v 0.5 0 -1.2
v 0.5 0.1 -1.2
v 0.5 1.9 -1.2
v 0.5 2 -1.2
v 0.5 2.1 -1.2
v 0.5 2.8 -1.2
v 0.5 2.9 -1.2
v 0.5 3 -1.2
v 0.6 0 -1.2
v 0.6 0.1 -1.2
v 0.6 2 -1.2
v 0.6 2.1 -1.2
v -1.3 3.1 -1.3
v -1.3 3.2 -1.3
v -1.2 0 -1.3
v -1.2 0.1 -1.3
v -1.2 3.1 -1.3
v -0.9 0 -1.3
v -0.9 0.1 -1.3
v -0.9 3 -1.3
v 0.1 2.1 -1.3
v 0.1 3 -1.3
v 0.2 2.1 -1.3
v 0.2 2.8 -1.3
v 0.2 2.9 -1.3
v 0.2 3 -1.3
v 0.5 2.1 -1.3
v 0.5 2.8 -1.3
v 0.5 2.9 -1.3
v 0.5 3 -1.3
v 0.6 2.1 -1.3
v 0.6 3 -1.3
v 1.6 0 -1.3
v 1.6 0.1 -1.3
v 1.6 3 -1.3
v 1.9 0 -1.3
v 1.9 0.1 -1.3
v 1.9 3.1 -1.3
v 2 3.1 -1.3
v 2 3.2 -1.3
v -0.9 0.2 -1.4
v -0.9 0.4 -1.4
v 0.1 0.2 -1.4
v 0.1 0.4 -1.4
v 0.6 0.2 -1.4
v 0.6 0.4 -1.4
v 1.6 0.2 -1.4
v 1.6 0.4 -1.4
v -0.9 0.2 1.3
v -0.9 0.4 1.3
v 0.1 0.2 1.3
v 0.1 0.4 1.3
v 0.6 0.2 1.3
v 0.6 0.4 1.3
v 1.6 0.2 1.3
v 1.6 0.4 1.3
v -1.3 3.1 1.2
v -1.3 3.2 1.2
v -1.2 0 1.2
v -1.2 0.1 1.2
v -1.2 3.1 1.2
v -0.9 0 1.2
v -0.9 0.1 1.2
v -0.9 3 1.2
v 0.1 2.1 1.2
v 0.1 3 1.2
v 0.2 2.1 1.2
v 0.2 2.8 1.2
v 0.2 2.9 1.2
v 0.2 3 1.2
v 0.5 2.1 1.2
v 0.5 2.8 1.2
v 0.5 2.9 1.2
v 0.5 3 1.2
v 0.6 2.1 1.2
v 0.6 3 1.2
v 1.6 0 1.2
v 1.6 0.1 1.2
v 1.6 3 1.2
v 1.9 0 1.2
v 1.9 0.1 1.2
v 1.9 3.1 1.2
v 2 3.1 1.2
v 2 3.2 1.2
v 0.1 0 1.1
v 0.1 0.1 1.1
v 0.1 2 1.1
v 0.1 2.1 1.1
v 0.2 0 1.1
v 0.2 0.1 1.1
v 0.2 1.9 1.1
v 0.2 2 1.1
v 0.2 2.1 1.1
v 0.2 2.8 1.1
v 0.2 2.9 1.1
v 0.2 3 1.1
v 0.3 2 1.1
v 0.3 2.8 1.1
v 0.3 2.9 1.1
v 0.4 2 1.1
v 0.4 2.8 1.1
v 0.4 2.9 1.1
v 0.5 0 1.1
v 0.5 0.1 1.1
v 0.5 1.9 1.1
v 0.5 2 1.1
v 0.5 2.1 1.1
v 0.5 2.8 1.1
v 0.5 2.9 1.1
v 0.5 3 1.1
v 0.6 0 1.1
v 0.6 0.1 1.1
v 0.6 2 1.1
v 0.6 2.1 1.1
v 0.2 0 1
v 0.2 0.1 1
v 0.2 1.9 1
v 0.2 2 1
v 0.3 2 1
v 0.3 2.1 1
v 0.3 2.7 1
v 0.3 2.8 1
v 0.3 2.9 1
v 0.4 2 1
v 0.4 2.1 1
v 0.4 2.7 1
v 0.4 2.8 1
v 0.4 2.9 1
v 0.5 0 1
v 0.5 0.1 1
v 0.5 1.9 1
v 0.5 2 1
v 0.3 2 0.9
v 0.3 2.1 0.9
v 0.3 2.7 0.9
v 0.3 2.8 0.9
v 0.4 2 0.9
v 0.4 2.1 0.9
v 0.4 2.7 0.9
v 0.4 2.8 0.9
v -1.3 3.1 -1.6
v -1.3 3.2 -1.6
v -1.2 0 -1.6
v -1.2 0.1 -1.6
v -1.2 3.1 -1.6
v -0.9 0 -1.6
v -0.9 0.1 -1.6
v -0.9 0.2 -1.6
v -0.9 0.4 -1.6
v -0.9 3 -1.6
v 0.1 0 -1.6
v 0.1 0.1 -1.6
v 0.1 0.2 -1.6
v 0.1 0.4 -1.6
v 0.1 3 -1.6
v 0.6 0 -1.6
v 0.6 0.1 -1.6
v 0.6 0.2 -1.6
v 0.6 0.4 -1.6
v 0.6 3 -1.6
v 1.6 0 -1.6
v 1.6 0.1 -1.6
v 1.6 0.2 -1.6
v 1.6 0.4 -1.6
v 1.6 3 -1.6
v 1.9 0 -1.6
v 1.9 0.1 -1.6
v 1.9 3.1 -1.6
v 2 3.1 -1.6
v 2 3.2 -1.6
v -1.2 0 1.5
v -0.9 0 1.5
v 0.1 0 1.5
v 0.6 0 1.5
v 1.6 0 1.5
v 1.9 0 1.5
v -1.2 0 1.2
v -0.9 0 1.2
v 1.6 0 1.2
v 1.9 0 1.2
v 0.1 0 1.1
v 0.2 0 1.1
v 0.5 0 1.1
v 0.6 0 1.1
v 0.2 0 1
v 0.5 0 1
v 0.2 0 -1.1
v 0.5 0 -1.1
v 0.1 0 -1.2
v 0.2 0 -1.2
v 0.5 0 -1.2
v 0.6 0 -1.2
v -1.2 0 -1.3
v -0.9 0 -1.3
v 1.6 0 -1.3
v 1.9 0 -1.3
v -1.2 0 -1.6
v -0.9 0 -1.6
v 0.1 0 -1.6
v 0.6 0 -1.6
v 1.6 0 -1.6
v 1.9 0 -1.6
v -0.9 0.2 1.5
v 0.1 0.2 1.5
v 0.6 0.2 1.5
v 1.6 0.2 1.5
v -0.9 0.2 1.3
v 0.1 0.2 1.3
v 0.6 0.2 1.3
v 1.6 0.2 1.3
v -0.9 0.2 -1.4
v 0.1 0.2 -1.4
v 0.6 0.2 -1.4
v 1.6 0.2 -1.4
v -0.9 0.2 -1.6
v 0.1 0.2 -1.6
v 0.6 0.2 -1.6
v 1.6 0.2 -1.6
v 0.3 2 1
v 0.4 2 1
v 0.3 2 0.9
v 0.4 2 0.9
v 0.3 2 -1
v 0.4 2 -1
v 0.3 2 -1.1
v 0.4 2 -1.1
v 0.3 2.7 1
v 0.4 2.7 1
v 0.3 2.7 0.9
v 0.4 2.7 0.9
v 0.3 2.7 -1
v 0.4 2.7 -1
v 0.3 2.7 -1.1
v 0.4 2.7 -1.1
v -0.9 3 1.5
v 0.1 3 1.5
v 0.6 3 1.5
v 1.6 3 1.5
v -0.9 3 1.2
v 0.1 3 1.2
v 0.6 3 1.2
v 1.6 3 1.2
v -0.9 3 -1.3
v 0.1 3 -1.3
v 0.6 3 -1.3
v 1.6 3 -1.3
v -0.9 3 -1.6
v 0.1 3 -1.6
v 0.6 3 -1.6
v 1.6 3 -1.6
v -1.3 3.1 1.5
v -1.2 3.1 1.5
v 1.9 3.1 1.5
v 2 3.1 1.5
v -1.3 3.1 1.2
v -1.2 3.1 1.2
v 1.9 3.1 1.2
v 2 3.1 1.2
v -1.3 3.1 -1.3
v -1.2 3.1 -1.3
v 1.9 3.1 -1.3
v 2 3.1 -1.3
v -1.3 3.1 -1.6
v -1.2 3.1 -1.6
v 1.9 3.1 -1.6
v 2 3.1 -1.6
v -0.9 0.4 1.5
v 0.1 0.4 1.5
v 0.6 0.4 1.5
v 1.6 0.4 1.5
v -0.9 0.4 1.3
v 0.1 0.4 1.3
v 0.6 0.4 1.3
v 1.6 0.4 1.3
v -0.9 0.4 -1.4
v 0.1 0.4 -1.4
v 0.6 0.4 -1.4
v 1.6 0.4 -1.4
v -0.9 0.4 -1.6
v 0.1 0.4 -1.6
v 0.6 0.4 -1.6
v 1.6 0.4 -1.6
v 0.2 2 1.1
v 0.3 2 1.1
v 0.4 2 1.1
v 0.5 2 1.1
v 0.2 2 1
v 0.3 2 1
v 0.4 2 1
v 0.5 2 1
v 0.2 2 -1.1
v 0.3 2 -1.1
v 0.4 2 -1.1
v 0.5 2 -1.1
v 0.2 2 -1.2
v 0.3 2 -1.2
v 0.4 2 -1.2
v 0.5 2 -1.2
v 0.1 2.1 1.2
v 0.2 2.1 1.2
v 0.5 2.1 1.2
v 0.6 2.1 1.2
v 0.1 2.1 1.1
v 0.2 2.1 1.1
v 0.5 2.1 1.1
v 0.6 2.1 1.1
v 0.3 2.1 1
v 0.4 2.1 1
v 0.3 2.1 0.9
v 0.4 2.1 0.9
v 0.3 2.1 -1
v 0.4 2.1 -1
v 0.3 2.1 -1.1
v 0.4 2.1 -1.1
v 0.1 2.1 -1.2
v 0.2 2.1 -1.2
v 0.5 2.1 -1.2
v 0.6 2.1 -1.2
v 0.1 2.1 -1.3
v 0.2 2.1 -1.3
v 0.5 2.1 -1.3
v 0.6 2.1 -1.3
v 0.3 2.8 1
v 0.4 2.8 1
v 0.3 2.8 0.9
v 0.4 2.8 0.9
v 0.3 2.8 -1
v 0.4 2.8 -1
v 0.3 2.8 -1.1
v 0.4 2.8 -1.1
v 0.3 2.9 1.1
v 0.4 2.9 1.1
v 0.3 2.9 1
v 0.4 2.9 1
v 0.3 2.9 -1.1
v 0.4 2.9 -1.1
v 0.3 2.9 -1.2
v 0.4 2.9 -1.2
v 0.2 3 1.2
v 0.5 3 1.2
v 0.2 3 1.1
v 0.5 3 1.1
v 0.2 3 -1.2
v 0.5 3 -1.2
v 0.2 3 -1.3
v 0.5 3 -1.3
v -1.3 3.2 1.5
v 2 3.2 1.5
v -1.3 3.2 1.2
v 2 3.2 1.2
v -1.3 3.2 -1.3
v 2 3.2 -1.3
v -1.3 3.2 -1.6
v 2 3.2 -1.6

# faces
f 5/3/1 2/3/1 1/3/1
f 6/3/1 2/3/1 5/3/1
f 7/3/1 4/3/1 3/3/1
f 8/3/1 4/3/1 7/3/1
f 13/6/1 10/6/1 9/6/1
f 14/6/1 10/6/1 13/6/1
f 15/6/1 12/6/1 11/6/1
f 16/6/1 12/6/1 15/6/1
f 17/2/1 14/2/1 13/2/1
f 18/2/1 14/2/1 17/2/1
f 19/2/1 16/2/1 15/2/1
f 20/2/1 16/2/1 19/2/1
f 25/6/1 22/6/1 21/6/1
f 26/6/1 22/6/1 25/6/1
f 27/6/1 24/6/1 23/6/1
f 28/6/1 24/6/1 27/6/1
f 29/2/1 26/2/1 25/2/1
f 30/2/1 26/2/1 29/2/1
f 31/2/1 28/2/1 27/2/1
f 32/2/1 28/2/1 31/2/1
f 34/2/1 26/2/1 30/2/1
f 35/2/1 31/2/1 27/2/1
f 37/2/1 34/2/1 33/2/1
f 37/2/1 26/2/1 34/2/1
f 38/2/1 26/2/1 37/2/1
f 39/2/1 36/2/1 35/2/1
f 39/2/1 35/2/1 27/2/1
f 40/2/1 36/2/1 39/2/1
f 41/1/1 38/1/1 37/1/1
f 41/2/1 37/2/1 33/2/1
f 42/1/1 38/1/1 41/1/1
f 43/1/1 40/1/1 39/1/1
f 44/2/1 36/2/1 40/2/1
f 44/1/1 40/1/1 43/1/1
f 45/2/1 41/2/1 33/2/1
f 46/2/1 41/2/1 45/2/1
f 47/2/1 36/2/1 44/2/1
f 48/2/1 36/2/1 47/2/1
f 53/6/1 50/6/1 49/6/1
f 54/6/1 50/6/1 53/6/1
f 55/6/1 52/6/1 51/6/1
f 56/6/1 52/6/1 55/6/1
f 57/2/1 54/2/1 53/2/1
f 58/2/1 54/2/1 57/2/1
f 59/2/1 56/2/1 55/2/1
f 60/2/1 56/2/1 59/2/1
f 61/1/1 58/1/1 57/1/1
f 62/1/1 58/1/1 61/1/1
f 63/1/1 60/1/1 59/1/1
f 64/1/1 60/1/1 63/1/1
f 69/2/1 66/2/1 65/2/1
f 70/2/1 66/2/1 69/2/1
f 71/2/1 68/2/1 67/2/1
f 72/2/1 68/2/1 71/2/1
f 73/1/1 70/1/1 69/1/1
f 74/1/1 70/1/1 73/1/1
f 75/1/1 72/1/1 71/1/1
f 76/1/1 72/1/1 75/1/1
f 77/5/1 74/5/1 73/5/1
f 78/5/1 74/5/1 77/5/1
f 79/5/1 76/5/1 75/5/1
f 80/5/1 76/5/1 79/5/1
f 87/2/1 82/2/1 81/2/1
f 87/4/1 83/4/1 82/4/1
f 88/4/1 83/4/1 87/4/1
f 89/4/1 85/4/1 84/4/1
f 90/2/1 86/2/1 85/2/1
f 90/4/1 85/4/1 89/4/1
f 91/2/1 87/2/1 81/2/1
f 94/2/1 86/2/1 90/2/1
f 95/2/1 91/2/1 81/2/1
f 96/4/1 92/4/1 91/4/1
f 96/2/1 91/2/1 95/2/1
f 97/4/1 92/4/1 96/4/1
f 98/4/1 94/4/1 93/4/1
f 99/2/1 86/2/1 94/2/1
f 99/4/1 94/4/1 98/4/1
f 100/2/1 86/2/1 99/2/1
f 101/1/1 96/1/1 95/1/1
f 102/1/1 96/1/1 101/1/1
f 103/1/1 100/1/1 99/1/1
f 104/1/1 100/1/1 103/1/1
f 109/6/1 106/6/1 105/6/1
f 110/6/1 106/6/1 109/6/1
f 111/6/1 108/6/1 107/6/1
f 112/6/1 108/6/1 111/6/1
f 113/2/1 110/2/1 109/2/1
f 114/2/1 110/2/1 113/2/1
f 115/2/1 112/2/1 111/2/1
f 116/2/1 112/2/1 115/2/1
f 118/2/1 110/2/1 114/2/1
f 119/2/1 115/2/1 111/2/1
f 121/2/1 118/2/1 117/2/1
f 122/2/1 110/2/1 118/2/1
f 122/2/1 118/2/1 121/2/1
f 123/2/1 120/2/1 119/2/1
f 123/2/1 119/2/1 111/2/1
f 124/2/1 120/2/1 123/2/1
f 125/6/2 126/6/2 129/6/2
f 129/6/2 126/6/2 130/6/2
f 127/6/2 128/6/2 131/6/2
f 131/6/2 128/6/2 132/6/2
f 129/2/2 130/2/2 133/2/2
f 133/2/2 130/2/2 134/2/2
f 131/2/2 132/2/2 135/2/2
f 135/2/2 132/2/2 136/2/2
f 134/2/2 130/2/2 138/2/2
f 131/2/2 135/2/2 139/2/2
f 137/2/2 138/2/2 141/2/2
f 138/2/2 130/2/2 142/2/2
f 141/2/2 138/2/2 142/2/2
f 139/2/2 140/2/2 143/2/2
f 131/2/2 139/2/2 143/2/2
f 143/2/2 140/2/2 144/2/2
f 145/2/2 146/2/2 151/2/2
f 146/4/2 147/4/2 151/4/2
f 151/4/2 147/4/2 152/4/2
f 148/4/2 149/4/2 153/4/2
f 149/2/2 150/2/2 154/2/2
f 153/4/2 149/4/2 154/4/2
f 145/2/2 151/2/2 155/2/2
f 154/2/2 150/2/2 158/2/2
f 145/2/2 155/2/2 159/2/2
f 155/4/2 156/4/2 160/4/2
f 159/2/2 155/2/2 160/2/2
f 160/4/2 156/4/2 161/4/2
f 157/4/2 158/4/2 162/4/2
f 158/2/2 150/2/2 163/2/2
f 162/4/2 158/4/2 163/4/2
f 163/2/2 150/2/2 164/2/2
f 159/1/2 160/1/2 165/1/2
f 165/1/2 160/1/2 166/1/2
f 163/1/2 164/1/2 167/1/2
f 167/1/2 164/1/2 168/1/2
f 169/6/2 170/6/2 173/6/2
f 173/6/2 170/6/2 174/6/2
f 171/6/2 172/6/2 175/6/2
f 175/6/2 172/6/2 176/6/2
f 173/2/2 174/2/2 177/2/2
f 177/2/2 174/2/2 178/2/2
f 175/2/2 176/2/2 179/2/2
f 179/2/2 176/2/2 180/2/2
f 177/1/2 178/1/2 181/1/2
f 181/1/2 178/1/2 182/1/2
f 179/1/2 180/1/2 183/1/2
f 183/1/2 180/1/2 184/1/2
f 185/2/2 186/2/2 189/2/2
f 189/2/2 186/2/2 190/2/2
f 187/2/2 188/2/2 191/2/2
f 191/2/2 188/2/2 192/2/2
f 189/1/2 190/1/2 193/1/2
f 193/1/2 190/1/2 194/1/2
f 191/1/2 192/1/2 195/1/2
f 195/1/2 192/1/2 196/1/2
f 193/5/2 194/5/2 197/5/2
f 197/5/2 194/5/2 198/5/2
f 195/5/2 196/5/2 199/5/2
f 199/5/2 196/5/2 200/5/2
f 201/6/2 202/6/2 205/6/2
f 205/6/2 202/6/2 206/6/2
f 203/6/2 204/6/2 207/6/2
f 207/6/2 204/6/2 208/6/2
f 205/2/2 206/2/2 209/2/2
f 209/2/2 206/2/2 210/2/2
f 207/2/2 208/2/2 211/2/2
f 211/2/2 208/2/2 212/2/2
f 210/2/2 206/2/2 214/2/2
f 207/2/2 211/2/2 215/2/2
f 213/2/2 214/2/2 217/2/2
f 214/2/2 206/2/2 217/2/2
f 217/2/2 206/2/2 218/2/2
f 215/2/2 216/2/2 219/2/2
f 207/2/2 215/2/2 219/2/2
f 219/2/2 216/2/2 220/2/2
f 217/1/2 218/1/2 221/1/2
f 213/2/2 217/2/2 221/2/2
f 221/1/2 218/1/2 222/1/2
f 219/1/2 220/1/2 223/1/2
f 220/2/2 216/2/2 224/2/2
f 223/1/2 220/1/2 224/1/2
f 213/2/2 221/2/2 225/2/2
f 225/2/2 221/2/2 226/2/2
f 224/2/2 216/2/2 227/2/2
f 227/2/2 216/2/2 228/2/2
f 229/6/2 230/6/2 233/6/2
f 233/6/2 230/6/2 234/6/2
f 231/6/2 232/6/2 235/6/2
f 235/6/2 232/6/2 236/6/2
f 233/2/2 234/2/2 237/2/2
f 237/2/2 234/2/2 238/2/2
f 235/2/2 236/2/2 239/2/2
f 239/2/2 236/2/2 240/2/2
f 241/3/2 242/3/2 245/3/2
f 245/3/2 242/3/2 246/3/2
f 243/3/2 244/3/2 247/3/2
f 247/3/2 244/3/2 248/3/2
f 253/3/3 250/3/3 249/3/3
f 254/6/3 252/6/3 251/6/3
f 255/2/3 253/2/3 252/2/3
f 255/6/3 252/6/3 254/6/3
f 256/2/3 253/2/3 255/2/3
f 257/2/3 253/2/3 256/2/3
f 258/2/3 253/2/3 257/2/3
f 261/2/3 257/2/3 256/2/3
f 262/2/3 257/2/3 261/2/3
f 263/2/3 253/2/3 258/2/3
f 264/6/3 260/6/3 259/6/3
f 265/2/3 262/2/3 261/2/3
f 265/6/3 260/6/3 264/6/3
f 265/2/3 263/2/3 262/2/3
f 265/2/3 261/2/3 260/2/3
f 266/2/3 263/2/3 265/2/3
f 267/2/3 263/2/3 266/2/3
f 268/2/3 253/2/3 263/2/3
f 268/2/3 263/2/3 267/2/3
f 271/2/3 267/2/3 266/2/3
f 272/2/3 267/2/3 271/2/3
f 273/2/3 253/2/3 268/2/3
f 274/6/3 270/6/3 269/6/3
f 275/2/3 273/2/3 272/2/3
f 275/6/3 270/6/3 274/6/3
f 275/2/3 272/2/3 271/2/3
f 275/2/3 271/2/3 270/2/3
f 276/3/3 250/3/3 253/3/3
f 276/2/3 273/2/3 275/2/3
f 276/2/3 253/2/3 273/2/3
f 277/3/3 250/3/3 276/3/3
f 278/3/3 250/3/3 277/3/3
f 283/4/3 280/4/3 279/4/3
f 284/4/3 280/4/3 283/4/3
f 285/4/3 282/4/3 281/4/3
f 286/4/3 282/4/3 285/4/3
f 291/1/3 290/1/3 289/1/3
f 296/1/3 291/1/3 289/1/3
f 297/2/3 293/2/3 292/2/3
f 298/2/3 293/2/3 297/2/3
f 299/1/3 295/1/3 294/1/3
f 300/1/3 295/1/3 299/1/3
f 301/6/3 288/6/3 287/6/3
f 302/2/3 289/2/3 288/2/3
f 302/6/3 288/6/3 301/6/3
f 303/1/3 296/1/3 289/1/3
f 303/2/3 289/2/3 302/2/3
f 304/1/3 296/1/3 303/1/3
f 309/6/3 306/6/3 305/6/3
f 310/2/3 307/2/3 306/2/3
f 310/6/3 306/6/3 309/6/3
f 311/2/3 307/2/3 310/2/3
f 312/1/3 308/1/3 307/1/3
f 312/2/3 307/2/3 311/2/3
f 313/1/3 308/1/3 312/1/3
f 317/2/3 314/2/3 313/2/3
f 317/2/3 313/2/3 312/2/3
f 318/1/3 315/1/3 314/1/3
f 318/2/3 314/2/3 317/2/3
f 319/5/3 316/5/3 315/5/3
f 319/1/3 315/1/3 318/1/3
f 322/5/3 316/5/3 319/5/3
f 326/2/3 321/2/3 320/2/3
f 327/2/3 321/2/3 326/2/3
f 328/1/3 322/1/3 321/1/3
f 328/2/3 321/2/3 327/2/3
f 329/5/3 316/5/3 322/5/3
f 329/1/3 322/1/3 328/1/3
f 330/5/3 316/5/3 329/5/3
f 331/6/3 324/6/3 323/6/3
f 332/2/3 325/2/3 324/2/3
f 332/6/3 324/6/3 331/6/3
f 332/2/3 326/2/3 325/2/3
f 333/1/3 327/1/3 326/1/3
f 333/2/3 326/2/3 332/2/3
f 334/1/3 327/1/3 333/1/3
f 339/3/3 336/3/3 335/3/3
f 340/6/3 338/6/3 337/6/3
f 341/2/3 339/2/3 338/2/3
f 341/6/3 338/6/3 340/6/3
f 342/2/3 339/2/3 341/2/3
f 344/2/3 339/2/3 342/2/3
f 345/2/3 344/2/3 343/2/3
f 346/2/3 344/2/3 345/2/3
f 347/2/3 344/2/3 346/2/3
f 348/2/3 339/2/3 344/2/3
f 348/2/3 344/2/3 347/2/3
f 352/2/3 339/2/3 348/2/3
f 353/2/3 351/2/3 350/2/3
f 353/2/3 352/2/3 351/2/3
f 353/2/3 350/2/3 349/2/3
f 354/2/3 339/2/3 352/2/3
f 354/2/3 352/2/3 353/2/3
f 357/2/3 339/2/3 354/2/3
f 358/6/3 356/6/3 355/6/3
f 359/2/3 357/2/3 356/2/3
f 359/6/3 356/6/3 358/6/3
f 360/3/3 336/3/3 339/3/3
f 360/2/3 357/2/3 359/2/3
f 360/2/3 339/2/3 357/2/3
f 361/3/3 336/3/3 360/3/3
f 362/3/3 336/3/3 361/3/3
f 365/2/3 364/2/3 363/2/3
f 366/2/3 364/2/3 365/2/3
f 369/2/3 368/2/3 367/2/3
f 370/2/3 368/2/3 369/2/3
f 371/2/4 372/2/4 373/2/4
f 373/2/4 372/2/4 374/2/4
f 375/2/4 376/2/4 377/2/4
f 377/2/4 376/2/4 378/2/4
f 379/3/4 380/3/4 383/3/4
f 381/6/4 382/6/4 384/6/4
f 382/2/4 383/2/4 385/2/4
f 384/6/4 382/6/4 385/6/4
f 385/2/4 383/2/4 386/2/4
f 386/2/4 383/2/4 388/2/4
f 387/2/4 388/2/4 389/2/4
f 389/2/4 388/2/4 390/2/4
f 390/2/4 388/2/4 391/2/4
f 388/2/4 383/2/4 392/2/4
f 391/2/4 388/2/4 392/2/4
f 392/2/4 383/2/4 396/2/4
f 394/2/4 395/2/4 397/2/4
f 395/2/4 396/2/4 397/2/4
f 393/2/4 394/2/4 397/2/4
f 396/2/4 383/2/4 398/2/4
f 397/2/4 396/2/4 398/2/4
f 398/2/4 383/2/4 401/2/4
f 399/6/4 400/6/4 402/6/4
f 400/2/4 401/2/4 403/2/4
f 402/6/4 400/6/4 403/6/4
f 383/3/4 380/3/4 404/3/4
f 403/2/4 401/2/4 404/2/4
f 401/2/4 383/2/4 404/2/4
f 404/3/4 380/3/4 405/3/4
f 405/3/4 380/3/4 406/3/4
f 407/6/4 408/6/4 411/6/4
f 408/2/4 409/2/4 412/2/4
f 411/6/4 408/6/4 412/6/4
f 412/2/4 409/2/4 413/2/4
f 409/1/4 410/1/4 414/1/4
f 413/2/4 409/2/4 414/2/4
f 414/1/4 410/1/4 415/1/4
f 415/2/4 416/2/4 419/2/4
f 414/2/4 415/2/4 419/2/4
f 416/1/4 417/1/4 420/1/4
f 419/2/4 416/2/4 420/2/4
f 417/5/4 418/5/4 421/5/4
f 420/1/4 417/1/4 421/1/4
f 421/5/4 418/5/4 424/5/4
f 422/2/4 423/2/4 428/2/4
f 428/2/4 423/2/4 429/2/4
f 423/1/4 424/1/4 430/1/4
f 429/2/4 423/2/4 430/2/4
f 424/5/4 418/5/4 431/5/4
f 430/1/4 424/1/4 431/1/4
f 431/5/4 418/5/4 432/5/4
f 425/6/4 426/6/4 433/6/4
f 426/2/4 427/2/4 434/2/4
f 433/6/4 426/6/4 434/6/4
f 427/2/4 428/2/4 434/2/4
f 428/1/4 429/1/4 435/1/4
f 434/2/4 428/2/4 435/2/4
f 435/1/4 429/1/4 436/1/4
f 439/1/4 440/1/4 441/1/4
f 439/1/4 441/1/4 446/1/4
f 442/2/4 443/2/4 447/2/4
f 447/2/4 443/2/4 448/2/4
f 444/1/4 445/1/4 449/1/4
f 449/1/4 445/1/4 450/1/4
f 437/6/4 438/6/4 451/6/4
f 438/2/4 439/2/4 452/2/4
f 451/6/4 438/6/4 452/6/4
f 439/1/4 446/1/4 453/1/4
f 452/2/4 439/2/4 453/2/4
f 453/1/4 446/1/4 454/1/4
f 455/4/4 456/4/4 459/4/4
f 459/4/4 456/4/4 460/4/4
f 457/4/4 458/4/4 461/4/4
f 461/4/4 458/4/4 462/4/4
f 463/3/4 464/3/4 467/3/4
f 465/6/4 466/6/4 468/6/4
f 466/2/4 467/2/4 469/2/4
f 468/6/4 466/6/4 469/6/4
f 469/2/4 467/2/4 470/2/4
f 470/2/4 467/2/4 471/2/4
f 471/2/4 467/2/4 472/2/4
f 470/2/4 471/2/4 475/2/4
f 475/2/4 471/2/4 476/2/4
f 472/2/4 467/2/4 477/2/4
f 473/6/4 474/6/4 478/6/4
f 475/2/4 476/2/4 479/2/4
f 478/6/4 474/6/4 479/6/4
f 476/2/4 477/2/4 479/2/4
f 474/2/4 475/2/4 479/2/4
f 479/2/4 477/2/4 480/2/4
f 480/2/4 477/2/4 481/2/4
f 477/2/4 467/2/4 482/2/4
f 481/2/4 477/2/4 482/2/4
f 480/2/4 481/2/4 485/2/4
f 485/2/4 481/2/4 486/2/4
f 482/2/4 467/2/4 487/2/4
f 483/6/4 484/6/4 488/6/4
f 486/2/4 487/2/4 489/2/4
f 488/6/4 484/6/4 489/6/4
f 485/2/4 486/2/4 489/2/4
f 484/2/4 485/2/4 489/2/4
f 467/3/4 464/3/4 490/3/4
f 489/2/4 487/2/4 490/2/4
f 487/2/4 467/2/4 490/2/4
f 490/3/4 464/3/4 491/3/4
f 491/3/4 464/3/4 492/3/4
f 499/6/5 494/6/5 493/6/5
f 500/6/5 494/6/5 499/6/5
f 501/6/5 498/6/5 497/6/5
f 502/6/5 498/6/5 501/6/5
f 503/6/5 496/6/5 495/6/5
f 504/6/5 496/6/5 503/6/5
f 505/6/5 496/6/5 504/6/5
f 506/6/5 496/6/5 505/6/5
f 507/6/5 505/6/5 504/6/5
f 508/6/5 505/6/5 507/6/5
f 512/6/5 510/6/5 509/6/5
f 513/6/5 510/6/5 512/6/5
f 519/6/5 516/6/5 515/6/5
f 520/6/5 516/6/5 519/6/5
f 521/6/5 513/6/5 512/6/5
f 521/6/5 512/6/5 511/6/5
f 521/6/5 514/6/5 513/6/5
f 522/6/5 514/6/5 521/6/5
f 523/6/5 518/6/5 517/6/5
f 524/6/5 518/6/5 523/6/5
f 529/2/5 526/2/5 525/2/5
f 530/2/5 526/2/5 529/2/5
f 531/2/5 528/2/5 527/2/5
f 532/2/5 528/2/5 531/2/5
f 537/2/5 534/2/5 533/2/5
f 538/2/5 534/2/5 537/2/5
f 539/2/5 536/2/5 535/2/5
f 540/2/5 536/2/5 539/2/5
f 543/4/5 542/4/5 541/4/5
f 544/4/5 542/4/5 543/4/5
f 547/4/5 546/4/5 545/4/5
f 548/4/5 546/4/5 547/4/5
f 551/4/5 550/4/5 549/4/5
f 552/4/5 550/4/5 551/4/5
f 555/4/5 554/4/5 553/4/5
f 556/4/5 554/4/5 555/4/5
f 561/2/5 558/2/5 557/2/5
f 562/2/5 558/2/5 561/2/5
f 563/2/5 560/2/5 559/2/5
f 564/2/5 560/2/5 563/2/5
f 569/2/5 566/2/5 565/2/5
f 570/2/5 566/2/5 569/2/5
f 571/2/5 568/2/5 567/2/5
f 572/2/5 568/2/5 571/2/5
f 577/3/5 574/3/5 573/3/5
f 578/3/5 574/3/5 577/3/5
f 579/3/5 576/3/5 575/3/5
f 580/3/5 576/3/5 579/3/5
f 585/3/5 582/3/5 581/3/5
f 586/3/5 582/3/5 585/3/5
f 587/3/5 584/3/5 583/3/5
f 588/3/5 584/3/5 587/3/5
f 589/2/6 590/2/6 593/2/6
f 593/2/6 590/2/6 594/2/6
f 591/2/6 592/2/6 595/2/6
f 595/2/6 592/2/6 596/2/6
f 597/2/6 598/2/6 601/2/6
f 601/2/6 598/2/6 602/2/6
f 599/2/6 600/2/6 603/2/6
f 603/2/6 600/2/6 604/2/6
f 605/1/6 606/1/6 609/1/6
f 609/1/6 606/1/6 610/1/6
f 607/1/6 608/1/6 611/1/6
f 611/1/6 608/1/6 612/1/6
f 613/1/6 614/1/6 617/1/6
f 617/1/6 614/1/6 618/1/6
f 615/1/6 616/1/6 619/1/6
f 619/1/6 616/1/6 620/1/6
f 621/1/6 622/1/6 625/1/6
f 625/1/6 622/1/6 626/1/6
f 623/1/6 624/1/6 627/1/6
f 627/1/6 624/1/6 628/1/6
f 629/4/6 630/4/6 631/4/6
f 631/4/6 630/4/6 632/4/6
f 633/4/6 634/4/6 635/4/6
f 635/4/6 634/4/6 636/4/6
f 637/1/6 638/1/6 641/1/6
f 641/1/6 638/1/6 642/1/6
f 639/1/6 640/1/6 643/1/6
f 643/1/6 640/1/6 644/1/6
f 645/4/6 646/4/6 647/4/6
f 647/4/6 646/4/6 648/4/6
f 649/4/6 650/4/6 651/4/6
f 651/4/6 650/4/6 652/4/6
f 653/1/6 654/1/6 655/1/6
f 655/1/6 654/1/6 656/1/6
f 657/1/6 658/1/6 659/1/6
f 659/1/6 658/1/6 660/1/6
f 661/5/6 662/5/6 663/5/6
f 663/5/6 662/5/6 664/5/6
f 665/5/6 666/5/6 667/5/6
f 667/5/6 666/5/6 668/5/6
f 669/3/6 670/3/6 671/3/6
f 671/3/6 670/3/6 672/3/6
f 673/3/6 674/3/6 675/3/6
f 675/3/6 674/3/6 676/3/6
