# MagicaVoxel @ Ephtracy

# group
o 

# material
mtllib стена нижняя часть.mtl
usemtl palette

# normals
vn -1 0 0
vn 1 0 0
vn 0 0 1
vn 0 0 -1
vn 0 -1 0
vn 0 1 0

# texcoords
vt 0.970703 0.5
vt 0.974609 0.5
vt 0.978516 0.5
vt 0.982422 0.5

# verts
v -2.1 0.2 0.1
v -2.1 0.2 1.63913e-07
v -2.1 0.2 -0.0999998
v -2.1 0.3 0.1
v -2.1 0.3 1.63913e-07
v -2.1 1.4 0.1
v -2.1 1.4 1.63913e-07
v -2.1 1.5 0.1
v -2.1 1.5 1.63913e-07
v -2.1 4.2 1.63913e-07
v -2.1 4.2 -0.0999998
v 2.1 0.2 0.1
v 2.1 0.2 1.63913e-07
v 2.1 0.2 -0.0999998
v 2.1 0.3 0.1
v 2.1 0.3 1.63913e-07
v 2.1 1.4 0.1
v 2.1 1.4 1.63913e-07
v 2.1 1.5 0.1
v 2.1 1.5 1.63913e-07
v 2.1 4.2 1.63913e-07
v 2.1 4.2 -0.0999998
v -2.1 0.2 0.1
v -2.1 0.3 0.1
v -2.1 1.4 0.1
v -2.1 1.5 0.1
v 2.1 0.2 0.1
v 2.1 0.3 0.1
v 2.1 1.4 0.1
v 2.1 1.5 0.1
v -2.1 1.5 1.63913e-07
v -2.1 4.2 1.63913e-07
v -2 1.5 1.63913e-07
v -2 4.2 1.63913e-07
v -1.9 1.5 1.63913e-07
v -1.9 4.2 1.63913e-07
v -1.7 1.5 1.63913e-07
v -1.7 4.2 1.63913e-07
v -1.6 1.5 1.63913e-07
v -1.6 4.2 1.63913e-07
v -1.4 1.5 1.63913e-07
v -1.4 4.2 1.63913e-07
v -1.3 1.5 1.63913e-07
v -1.3 4.2 1.63913e-07
v -1.1 1.5 1.63913e-07
v -1.1 4.2 1.63913e-07
v -1 1.5 1.63913e-07
v -1 4.2 1.63913e-07
v -0.8 1.5 1.63913e-07
v -0.8 4.2 1.63913e-07
v -0.7 1.5 1.63913e-07
v -0.7 4.2 1.63913e-07
v -0.5 1.5 1.63913e-07
v -0.5 4.2 1.63913e-07
v -0.4 1.5 1.63913e-07
v -0.4 4.2 1.63913e-07
v -0.2 1.5 1.63913e-07
v -0.2 4.2 1.63913e-07
v -0.0999999 1.5 1.63913e-07
v -0.0999999 4.2 1.63913e-07
v 0.0999999 1.5 1.63913e-07
v 0.0999999 4.2 1.63913e-07
v 0.2 1.5 1.63913e-07
v 0.2 4.2 1.63913e-07
v 0.4 1.5 1.63913e-07
v 0.4 4.2 1.63913e-07
v 0.5 1.5 1.63913e-07
v 0.5 4.2 1.63913e-07
v 0.7 1.5 1.63913e-07
v 0.7 4.2 1.63913e-07
v 0.8 1.5 1.63913e-07
v 0.8 4.2 1.63913e-07
v 1 1.5 1.63913e-07
v 1 4.2 1.63913e-07
v 1.1 1.5 1.63913e-07
v 1.1 4.2 1.63913e-07
v 1.3 1.5 1.63913e-07
v 1.3 4.2 1.63913e-07
v 1.4 1.5 1.63913e-07
v 1.4 4.2 1.63913e-07
v 1.6 1.5 1.63913e-07
v 1.6 4.2 1.63913e-07
v 1.7 1.5 1.63913e-07
v 1.7 4.2 1.63913e-07
v 1.9 1.5 1.63913e-07
v 1.9 4.2 1.63913e-07
v 2 1.5 1.63913e-07
v 2 4.2 1.63913e-07
v 2.1 1.5 1.63913e-07
v 2.1 4.2 1.63913e-07
v -2.1 0.2 -0.0999998
v -2.1 4.2 -0.0999998
v -2 0.2 -0.0999998
v -2 4.2 -0.0999998
v -1.9 0.2 -0.0999998
v -1.9 4.2 -0.0999998
v -1.7 0.2 -0.0999998
v -1.7 4.2 -0.0999998
v -1.6 0.2 -0.0999998
v -1.6 4.2 -0.0999998
v -1.4 0.2 -0.0999998
v -1.4 4.2 -0.0999998
v -1.3 0.2 -0.0999998
v -1.3 4.2 -0.0999998
v -1.1 0.2 -0.0999998
v -1.1 4.2 -0.0999998
v -1 0.2 -0.0999998
v -1 4.2 -0.0999998
v -0.8 0.2 -0.0999998
v -0.8 4.2 -0.0999998
v -0.7 0.2 -0.0999998
v -0.7 4.2 -0.0999998
v -0.5 0.2 -0.0999998
v -0.5 4.2 -0.0999998
v -0.4 0.2 -0.0999998
v -0.4 4.2 -0.0999998
v -0.2 0.2 -0.0999998
v -0.2 4.2 -0.0999998
v -0.0999999 0.2 -0.0999998
v -0.0999999 4.2 -0.0999998
v 0.0999999 0.2 -0.0999998
v 0.0999999 4.2 -0.0999998
v 0.2 0.2 -0.0999998
v 0.2 4.2 -0.0999998
v 0.4 0.2 -0.0999998
v 0.4 4.2 -0.0999998
v 0.5 0.2 -0.0999998
v 0.5 4.2 -0.0999998
v 0.7 0.2 -0.0999998
v 0.7 4.2 -0.0999998
v 0.8 0.2 -0.0999998
v 0.8 4.2 -0.0999998
v 1 0.2 -0.0999998
v 1 4.2 -0.0999998
v 1.1 0.2 -0.0999998
v 1.1 4.2 -0.0999998
v 1.3 0.2 -0.0999998
v 1.3 4.2 -0.0999998
v 1.4 0.2 -0.0999998
v 1.4 4.2 -0.0999998
v 1.6 0.2 -0.0999998
v 1.6 4.2 -0.0999998
v 1.7 0.2 -0.0999998
v 1.7 4.2 -0.0999998
v 1.9 0.2 -0.0999998
v 1.9 4.2 -0.0999998
v 2 0.2 -0.0999998
v 2 4.2 -0.0999998
v 2.1 0.2 -0.0999998
v 2.1 4.2 -0.0999998
v -2.1 0.2 0.1
v 2.1 0.2 0.1
v -2.1 0.2 1.63913e-07
v -2 0.2 1.63913e-07
v -1.9 0.2 1.63913e-07
v -1.7 0.2 1.63913e-07
v -1.6 0.2 1.63913e-07
v -1.4 0.2 1.63913e-07
v -1.3 0.2 1.63913e-07
v -1.1 0.2 1.63913e-07
v -1 0.2 1.63913e-07
v -0.8 0.2 1.63913e-07
v -0.7 0.2 1.63913e-07
v -0.5 0.2 1.63913e-07
v -0.4 0.2 1.63913e-07
v -0.2 0.2 1.63913e-07
v -0.0999999 0.2 1.63913e-07
v 0.0999999 0.2 1.63913e-07
v 0.2 0.2 1.63913e-07
v 0.4 0.2 1.63913e-07
v 0.5 0.2 1.63913e-07
v 0.7 0.2 1.63913e-07
v 0.8 0.2 1.63913e-07
v 1 0.2 1.63913e-07
v 1.1 0.2 1.63913e-07
v 1.3 0.2 1.63913e-07
v 1.4 0.2 1.63913e-07
v 1.6 0.2 1.63913e-07
v 1.7 0.2 1.63913e-07
v 1.9 0.2 1.63913e-07
v 2 0.2 1.63913e-07
v 2.1 0.2 1.63913e-07
v -2.1 0.2 -0.0999998
v -2 0.2 -0.0999998
v -1.9 0.2 -0.0999998
v -1.7 0.2 -0.0999998
v -1.6 0.2 -0.0999998
v -1.4 0.2 -0.0999998
v -1.3 0.2 -0.0999998
v -1.1 0.2 -0.0999998
v -1 0.2 -0.0999998
v -0.8 0.2 -0.0999998
v -0.7 0.2 -0.0999998
v -0.5 0.2 -0.0999998
v -0.4 0.2 -0.0999998
v -0.2 0.2 -0.0999998
v -0.0999999 0.2 -0.0999998
v 0.0999999 0.2 -0.0999998
v 0.2 0.2 -0.0999998
v 0.4 0.2 -0.0999998
v 0.5 0.2 -0.0999998
v 0.7 0.2 -0.0999998
v 0.8 0.2 -0.0999998
v 1 0.2 -0.0999998
v 1.1 0.2 -0.0999998
v 1.3 0.2 -0.0999998
v 1.4 0.2 -0.0999998
v 1.6 0.2 -0.0999998
v 1.7 0.2 -0.0999998
v 1.9 0.2 -0.0999998
v 2 0.2 -0.0999998
v 2.1 0.2 -0.0999998
v -2.1 1.5 0.1
v 2.1 1.5 0.1
v -2.1 1.5 1.63913e-07
v -2 1.5 1.63913e-07
v -1.9 1.5 1.63913e-07
v -1.7 1.5 1.63913e-07
v -1.6 1.5 1.63913e-07
v -1.4 1.5 1.63913e-07
v -1.3 1.5 1.63913e-07
v -1.1 1.5 1.63913e-07
v -1 1.5 1.63913e-07
v -0.8 1.5 1.63913e-07
v -0.7 1.5 1.63913e-07
v -0.5 1.5 1.63913e-07
v -0.4 1.5 1.63913e-07
v -0.2 1.5 1.63913e-07
v -0.0999999 1.5 1.63913e-07
v 0.0999999 1.5 1.63913e-07
v 0.2 1.5 1.63913e-07
v 0.4 1.5 1.63913e-07
v 0.5 1.5 1.63913e-07
v 0.7 1.5 1.63913e-07
v 0.8 1.5 1.63913e-07
v 1 1.5 1.63913e-07
v 1.1 1.5 1.63913e-07
v 1.3 1.5 1.63913e-07
v 1.4 1.5 1.63913e-07
v 1.6 1.5 1.63913e-07
v 1.7 1.5 1.63913e-07
v 1.9 1.5 1.63913e-07
v 2 1.5 1.63913e-07
v 2.1 1.5 1.63913e-07
v -2.1 4.2 1.63913e-07
v -2 4.2 1.63913e-07
v -1.9 4.2 1.63913e-07
v -1.7 4.2 1.63913e-07
v -1.6 4.2 1.63913e-07
v -1.4 4.2 1.63913e-07
v -1.3 4.2 1.63913e-07
v -1.1 4.2 1.63913e-07
v -1 4.2 1.63913e-07
v -0.8 4.2 1.63913e-07
v -0.7 4.2 1.63913e-07
v -0.5 4.2 1.63913e-07
v -0.4 4.2 1.63913e-07
v -0.2 4.2 1.63913e-07
v -0.0999999 4.2 1.63913e-07
v 0.0999999 4.2 1.63913e-07
v 0.2 4.2 1.63913e-07
v 0.4 4.2 1.63913e-07
v 0.5 4.2 1.63913e-07
v 0.7 4.2 1.63913e-07
v 0.8 4.2 1.63913e-07
v 1 4.2 1.63913e-07
v 1.1 4.2 1.63913e-07
v 1.3 4.2 1.63913e-07
v 1.4 4.2 1.63913e-07
v 1.6 4.2 1.63913e-07
v 1.7 4.2 1.63913e-07
v 1.9 4.2 1.63913e-07
v 2 4.2 1.63913e-07
v 2.1 4.2 1.63913e-07
v -2.1 4.2 -0.0999998
v -2 4.2 -0.0999998
v -1.9 4.2 -0.0999998
v -1.7 4.2 -0.0999998
v -1.6 4.2 -0.0999998
v -1.4 4.2 -0.0999998
v -1.3 4.2 -0.0999998
v -1.1 4.2 -0.0999998
v -1 4.2 -0.0999998
v -0.8 4.2 -0.0999998
v -0.7 4.2 -0.0999998
v -0.5 4.2 -0.0999998
v -0.4 4.2 -0.0999998
v -0.2 4.2 -0.0999998
v -0.0999999 4.2 -0.0999998
v 0.0999999 4.2 -0.0999998
v 0.2 4.2 -0.0999998
v 0.4 4.2 -0.0999998
v 0.5 4.2 -0.0999998
v 0.7 4.2 -0.0999998
v 0.8 4.2 -0.0999998
v 1 4.2 -0.0999998
v 1.1 4.2 -0.0999998
v 1.3 4.2 -0.0999998
v 1.4 4.2 -0.0999998
v 1.6 4.2 -0.0999998
v 1.7 4.2 -0.0999998
v 1.9 4.2 -0.0999998
v 2 4.2 -0.0999998
v 2.1 4.2 -0.0999998

# faces
f 4/4/1 2/4/1 1/4/1
f 5/1/1 3/1/1 2/1/1
f 5/4/1 2/4/1 4/4/1
f 6/3/1 5/3/1 4/3/1
f 7/1/1 3/1/1 5/1/1
f 7/3/1 5/3/1 6/3/1
f 8/4/1 7/4/1 6/4/1
f 9/1/1 3/1/1 7/1/1
f 9/4/1 7/4/1 8/4/1
f 10/1/1 3/1/1 9/1/1
f 11/1/1 3/1/1 10/1/1
f 12/4/2 13/4/2 15/4/2
f 13/1/2 14/1/2 16/1/2
f 15/4/2 13/4/2 16/4/2
f 15/3/2 16/3/2 17/3/2
f 16/1/2 14/1/2 18/1/2
f 17/3/2 16/3/2 18/3/2
f 17/4/2 18/4/2 19/4/2
f 18/1/2 14/1/2 20/1/2
f 19/4/2 18/4/2 20/4/2
f 20/1/2 14/1/2 21/1/2
f 21/1/2 14/1/2 22/1/2
f 27/4/3 24/4/3 23/4/3
f 28/3/3 25/3/3 24/3/3
f 28/4/3 24/4/3 27/4/3
f 29/4/3 26/4/3 25/4/3
f 29/3/3 25/3/3 28/3/3
f 30/4/3 26/4/3 29/4/3
f 33/1/3 32/1/3 31/1/3
f 34/1/3 32/1/3 33/1/3
f 35/2/3 34/2/3 33/2/3
f 36/2/3 34/2/3 35/2/3
f 37/1/3 36/1/3 35/1/3
f 38/1/3 36/1/3 37/1/3
f 39/2/3 38/2/3 37/2/3
f 40/2/3 38/2/3 39/2/3
f 41/1/3 40/1/3 39/1/3
f 42/1/3 40/1/3 41/1/3
f 43/2/3 42/2/3 41/2/3
f 44/2/3 42/2/3 43/2/3
f 45/1/3 44/1/3 43/1/3
f 46/1/3 44/1/3 45/1/3
f 47/2/3 46/2/3 45/2/3
f 48/2/3 46/2/3 47/2/3
f 49/1/3 48/1/3 47/1/3
f 50/1/3 48/1/3 49/1/3
f 51/2/3 50/2/3 49/2/3
f 52/2/3 50/2/3 51/2/3
f 53/1/3 52/1/3 51/1/3
f 54/1/3 52/1/3 53/1/3
f 55/2/3 54/2/3 53/2/3
f 56/2/3 54/2/3 55/2/3
f 57/1/3 56/1/3 55/1/3
f 58/1/3 56/1/3 57/1/3
f 59/2/3 58/2/3 57/2/3
f 60/2/3 58/2/3 59/2/3
f 61/1/3 60/1/3 59/1/3
f 62/1/3 60/1/3 61/1/3
f 63/2/3 62/2/3 61/2/3
f 64/2/3 62/2/3 63/2/3
f 65/1/3 64/1/3 63/1/3
f 66/1/3 64/1/3 65/1/3
f 67/2/3 66/2/3 65/2/3
f 68/2/3 66/2/3 67/2/3
f 69/1/3 68/1/3 67/1/3
f 70/1/3 68/1/3 69/1/3
f 71/2/3 70/2/3 69/2/3
f 72/2/3 70/2/3 71/2/3
f 73/1/3 72/1/3 71/1/3
f 74/1/3 72/1/3 73/1/3
f 75/2/3 74/2/3 73/2/3
f 76/2/3 74/2/3 75/2/3
f 77/1/3 76/1/3 75/1/3
f 78/1/3 76/1/3 77/1/3
f 79/2/3 78/2/3 77/2/3
f 80/2/3 78/2/3 79/2/3
f 81/1/3 80/1/3 79/1/3
f 82/1/3 80/1/3 81/1/3
f 83/2/3 82/2/3 81/2/3
f 84/2/3 82/2/3 83/2/3
f 85/1/3 84/1/3 83/1/3
f 86/1/3 84/1/3 85/1/3
f 87/2/3 86/2/3 85/2/3
f 88/2/3 86/2/3 87/2/3
f 89/1/3 88/1/3 87/1/3
f 90/1/3 88/1/3 89/1/3
f 91/1/4 92/1/4 93/1/4
f 93/1/4 92/1/4 94/1/4
f 93/2/4 94/2/4 95/2/4
f 95/2/4 94/2/4 96/2/4
f 95/1/4 96/1/4 97/1/4
f 97/1/4 96/1/4 98/1/4
f 97/2/4 98/2/4 99/2/4
f 99/2/4 98/2/4 100/2/4
f 99/1/4 100/1/4 101/1/4
f 101/1/4 100/1/4 102/1/4
f 101/2/4 102/2/4 103/2/4
f 103/2/4 102/2/4 104/2/4
f 103/1/4 104/1/4 105/1/4
f 105/1/4 104/1/4 106/1/4
f 105/2/4 106/2/4 107/2/4
f 107/2/4 106/2/4 108/2/4
f 107/1/4 108/1/4 109/1/4
f 109/1/4 108/1/4 110/1/4
f 109/2/4 110/2/4 111/2/4
f 111/2/4 110/2/4 112/2/4
f 111/1/4 112/1/4 113/1/4
f 113/1/4 112/1/4 114/1/4
f 113/2/4 114/2/4 115/2/4
f 115/2/4 114/2/4 116/2/4
f 115/1/4 116/1/4 117/1/4
f 117/1/4 116/1/4 118/1/4
f 117/2/4 118/2/4 119/2/4
f 119/2/4 118/2/4 120/2/4
f 119/1/4 120/1/4 121/1/4
f 121/1/4 120/1/4 122/1/4
f 121/2/4 122/2/4 123/2/4
f 123/2/4 122/2/4 124/2/4
f 123/1/4 124/1/4 125/1/4
f 125/1/4 124/1/4 126/1/4
f 125/2/4 126/2/4 127/2/4
f 127/2/4 126/2/4 128/2/4
f 127/1/4 128/1/4 129/1/4
f 129/1/4 128/1/4 130/1/4
f 129/2/4 130/2/4 131/2/4
f 131/2/4 130/2/4 132/2/4
f 131/1/4 132/1/4 133/1/4
f 133/1/4 132/1/4 134/1/4
f 133/2/4 134/2/4 135/2/4
f 135/2/4 134/2/4 136/2/4
f 135/1/4 136/1/4 137/1/4
f 137/1/4 136/1/4 138/1/4
f 137/2/4 138/2/4 139/2/4
f 139/2/4 138/2/4 140/2/4
f 139/1/4 140/1/4 141/1/4
f 141/1/4 140/1/4 142/1/4
f 141/2/4 142/2/4 143/2/4
f 143/2/4 142/2/4 144/2/4
f 143/1/4 144/1/4 145/1/4
f 145/1/4 144/1/4 146/1/4
f 145/2/4 146/2/4 147/2/4
f 147/2/4 146/2/4 148/2/4
f 147/1/4 148/1/4 149/1/4
f 149/1/4 148/1/4 150/1/4
f 153/4/5 152/4/5 151/4/5
f 154/4/5 152/4/5 153/4/5
f 155/4/5 152/4/5 154/4/5
f 156/4/5 152/4/5 155/4/5
f 157/4/5 152/4/5 156/4/5
f 158/4/5 152/4/5 157/4/5
f 159/4/5 152/4/5 158/4/5
f 160/4/5 152/4/5 159/4/5
f 161/4/5 152/4/5 160/4/5
f 162/4/5 152/4/5 161/4/5
f 163/4/5 152/4/5 162/4/5
f 164/4/5 152/4/5 163/4/5
f 165/4/5 152/4/5 164/4/5
f 166/4/5 152/4/5 165/4/5
f 167/4/5 152/4/5 166/4/5
f 168/4/5 152/4/5 167/4/5
f 169/4/5 152/4/5 168/4/5
f 170/4/5 152/4/5 169/4/5
f 171/4/5 152/4/5 170/4/5
f 172/4/5 152/4/5 171/4/5
f 173/4/5 152/4/5 172/4/5
f 174/4/5 152/4/5 173/4/5
f 175/4/5 152/4/5 174/4/5
f 176/4/5 152/4/5 175/4/5
f 177/4/5 152/4/5 176/4/5
f 178/4/5 152/4/5 177/4/5
f 179/4/5 152/4/5 178/4/5
f 180/4/5 152/4/5 179/4/5
f 181/4/5 152/4/5 180/4/5
f 182/4/5 152/4/5 181/4/5
f 183/1/5 154/1/5 153/1/5
f 184/2/5 155/2/5 154/2/5
f 184/1/5 154/1/5 183/1/5
f 185/1/5 156/1/5 155/1/5
f 185/2/5 155/2/5 184/2/5
f 186/2/5 157/2/5 156/2/5
f 186/1/5 156/1/5 185/1/5
f 187/1/5 158/1/5 157/1/5
f 187/2/5 157/2/5 186/2/5
f 188/2/5 159/2/5 158/2/5
f 188/1/5 158/1/5 187/1/5
f 189/1/5 160/1/5 159/1/5
f 189/2/5 159/2/5 188/2/5
f 190/2/5 161/2/5 160/2/5
f 190/1/5 160/1/5 189/1/5
f 191/1/5 162/1/5 161/1/5
f 191/2/5 161/2/5 190/2/5
f 192/2/5 163/2/5 162/2/5
f 192/1/5 162/1/5 191/1/5
f 193/1/5 164/1/5 163/1/5
f 193/2/5 163/2/5 192/2/5
f 194/2/5 165/2/5 164/2/5
f 194/1/5 164/1/5 193/1/5
f 195/1/5 166/1/5 165/1/5
f 195/2/5 165/2/5 194/2/5
f 196/2/5 167/2/5 166/2/5
f 196/1/5 166/1/5 195/1/5
f 197/1/5 168/1/5 167/1/5
f 197/2/5 167/2/5 196/2/5
f 198/2/5 169/2/5 168/2/5
f 198/1/5 168/1/5 197/1/5
f 199/1/5 170/1/5 169/1/5
f 199/2/5 169/2/5 198/2/5
f 200/2/5 171/2/5 170/2/5
f 200/1/5 170/1/5 199/1/5
f 201/1/5 172/1/5 171/1/5
f 201/2/5 171/2/5 200/2/5
f 202/2/5 173/2/5 172/2/5
f 202/1/5 172/1/5 201/1/5
f 203/1/5 174/1/5 173/1/5
f 203/2/5 173/2/5 202/2/5
f 204/2/5 175/2/5 174/2/5
f 204/1/5 174/1/5 203/1/5
f 205/1/5 176/1/5 175/1/5
f 205/2/5 175/2/5 204/2/5
f 206/2/5 177/2/5 176/2/5
f 206/1/5 176/1/5 205/1/5
f 207/1/5 178/1/5 177/1/5
f 207/2/5 177/2/5 206/2/5
f 208/2/5 179/2/5 178/2/5
f 208/1/5 178/1/5 207/1/5
f 209/1/5 180/1/5 179/1/5
f 209/2/5 179/2/5 208/2/5
f 210/2/5 181/2/5 180/2/5
f 210/1/5 180/1/5 209/1/5
f 211/1/5 182/1/5 181/1/5
f 211/2/5 181/2/5 210/2/5
f 212/1/5 182/1/5 211/1/5
f 213/4/6 214/4/6 215/4/6
f 215/4/6 214/4/6 216/4/6
f 216/4/6 214/4/6 217/4/6
f 217/4/6 214/4/6 218/4/6
f 218/4/6 214/4/6 219/4/6
f 219/4/6 214/4/6 220/4/6
f 220/4/6 214/4/6 221/4/6
f 221/4/6 214/4/6 222/4/6
f 222/4/6 214/4/6 223/4/6
f 223/4/6 214/4/6 224/4/6
f 224/4/6 214/4/6 225/4/6
f 225/4/6 214/4/6 226/4/6
f 226/4/6 214/4/6 227/4/6
f 227/4/6 214/4/6 228/4/6
f 228/4/6 214/4/6 229/4/6
f 229/4/6 214/4/6 230/4/6
f 230/4/6 214/4/6 231/4/6
f 231/4/6 214/4/6 232/4/6
f 232/4/6 214/4/6 233/4/6
f 233/4/6 214/4/6 234/4/6
f 234/4/6 214/4/6 235/4/6
f 235/4/6 214/4/6 236/4/6
f 236/4/6 214/4/6 237/4/6
f 237/4/6 214/4/6 238/4/6
f 238/4/6 214/4/6 239/4/6
f 239/4/6 214/4/6 240/4/6
f 240/4/6 214/4/6 241/4/6
f 241/4/6 214/4/6 242/4/6
f 242/4/6 214/4/6 243/4/6
f 243/4/6 214/4/6 244/4/6
f 245/1/6 246/1/6 275/1/6
f 246/2/6 247/2/6 276/2/6
f 275/1/6 246/1/6 276/1/6
f 247/1/6 248/1/6 277/1/6
f 276/2/6 247/2/6 277/2/6
f 248/2/6 249/2/6 278/2/6
f 277/1/6 248/1/6 278/1/6
f 249/1/6 250/1/6 279/1/6
f 278/2/6 249/2/6 279/2/6
f 250/2/6 251/2/6 280/2/6
f 279/1/6 250/1/6 280/1/6
f 251/1/6 252/1/6 281/1/6
f 280/2/6 251/2/6 281/2/6
f 252/2/6 253/2/6 282/2/6
f 281/1/6 252/1/6 282/1/6
f 253/1/6 254/1/6 283/1/6
f 282/2/6 253/2/6 283/2/6
f 254/2/6 255/2/6 284/2/6
f 283/1/6 254/1/6 284/1/6
f 255/1/6 256/1/6 285/1/6
f 284/2/6 255/2/6 285/2/6
f 256/2/6 257/2/6 286/2/6
f 285/1/6 256/1/6 286/1/6
f 257/1/6 258/1/6 287/1/6
f 286/2/6 257/2/6 287/2/6
f 258/2/6 259/2/6 288/2/6
f 287/1/6 258/1/6 288/1/6
f 259/1/6 260/1/6 289/1/6
f 288/2/6 259/2/6 289/2/6
f 260/2/6 261/2/6 290/2/6
f 289/1/6 260/1/6 290/1/6
f 261/1/6 262/1/6 291/1/6
f 290/2/6 261/2/6 291/2/6
f 262/2/6 263/2/6 292/2/6
f 291/1/6 262/1/6 292/1/6
f 263/1/6 264/1/6 293/1/6
f 292/2/6 263/2/6 293/2/6
f 264/2/6 265/2/6 294/2/6
f 293/1/6 264/1/6 294/1/6
f 265/1/6 266/1/6 295/1/6
f 294/2/6 265/2/6 295/2/6
f 266/2/6 267/2/6 296/2/6
f 295/1/6 266/1/6 296/1/6
f 267/1/6 268/1/6 297/1/6
f 296/2/6 267/2/6 297/2/6
f 268/2/6 269/2/6 298/2/6
f 297/1/6 268/1/6 298/1/6
f 269/1/6 270/1/6 299/1/6
f 298/2/6 269/2/6 299/2/6
f 270/2/6 271/2/6 300/2/6
f 299/1/6 270/1/6 300/1/6
f 271/1/6 272/1/6 301/1/6
f 300/2/6 271/2/6 301/2/6
f 272/2/6 273/2/6 302/2/6
f 301/1/6 272/1/6 302/1/6
f 273/1/6 274/1/6 303/1/6
f 302/2/6 273/2/6 303/2/6
f 303/1/6 274/1/6 304/1/6
