# MagicaVoxel @ Ephtracy

# group
o 

# material
mtllib noga.mtl
usemtl palette

# normals
vn -1 0 0
vn 1 0 0
vn 0 0 1
vn 0 0 -1
vn 0 -1 0
vn 0 1 0

# texcoords
vt 0.974609 0.5
vt 0.978516 0.5
vt 0.982422 0.5
vt 0.986328 0.5
vt 0.990234 0.5
vt 0.994141 0.5

# verts
v -0.2 2.7 1.7
v -0.2 2.7 0.8
v -0.2 2.8 1.7
v -0.2 2.8 0.8
v -0.2 3 1.7
v -0.2 3 1
v -0.2 3 0.8
v -0.2 3.1 1.7
v -0.2 3.1 1
v -0.2 3.2 1.7
v -0.2 3.2 1.5
v -0.2 3.2 1.4
v -0.2 3.2 1
v -0.2 3.3 1.6
v -0.2 3.3 1.5
v -0.2 3.3 1.4
v -0.2 3.3 1.2
v -0.2 3.3 1.1
v -0.2 3.3 1
v -0.2 3.4 1.4
v -0.2 3.4 1.3
v -0.2 3.4 1.1
v -0.2 3.4 1
v -0.2 3.5 1.6
v -0.2 3.5 1.5
v -0.2 3.5 1.3
v -0.2 3.5 1.2
v -0.2 3.5 1
v -0.2 3.6 1.4
v -0.2 3.6 1.3
v -0.2 3.6 1.2
v -0.2 3.6 1
v -0.2 3.8 1.3
v -0.2 3.8 1.2
v -0.2 3.9 1.5
v -0.2 3.9 1.3
v -0.2 3.9 1.1
v -0.2 3.9 1
v -0.2 4 1.7
v -0.2 4 1.3
v -0.2 4 1.2
v -0.2 4 1.1
v -0.2 4 1
v -0.0999999 2.7 0.8
v -0.0999999 2.7 0.7
v -0.0999999 2.8 0.8
v -0.0999999 2.8 0.7
v -0.0999999 3 1
v -0.0999999 3 0.9
v -0.0999999 3 0.8
v -0.0999999 3 0.7
v -0.0999999 3.1 1
v -0.0999999 3.1 0.9
v -0.0999999 3.1 0.8
v 0.2 2.7 0.8
v 0.2 2.7 0.7
v 0.2 2.8 0.8
v 0.2 2.8 0.7
v 0.2 3 1
v 0.2 3 0.9
v 0.2 3 0.8
v 0.2 3 0.7
v 0.2 3.1 1
v 0.2 3.1 0.9
v 0.2 3.1 0.8
v 0.3 2.7 1.7
v 0.3 2.7 0.8
v 0.3 2.8 1.7
v 0.3 2.8 0.8
v 0.3 3 1.7
v 0.3 3 1
v 0.3 3 0.8
v 0.3 3.1 1.7
v 0.3 3.1 1
v 0.3 3.2 1.7
v 0.3 3.2 1.6
v 0.3 3.2 1.3
v 0.3 3.2 1.2
v 0.3 3.2 1
v 0.3 3.3 1.7
v 0.3 3.3 1.6
v 0.3 3.3 1.5
v 0.3 3.3 1.4
v 0.3 3.3 1.3
v 0.3 3.3 1.2
v 0.3 3.3 1.1
v 0.3 3.4 1.4
v 0.3 3.4 1.3
v 0.3 3.5 1.7
v 0.3 3.5 1.6
v 0.3 3.5 1.5
v 0.3 3.5 1.4
v 0.3 3.5 1.2
v 0.3 3.5 1.1
v 0.3 3.5 1
v 0.3 3.6 1.7
v 0.3 3.6 1.6
v 0.3 3.7 1.7
v 0.3 3.7 1.5
v 0.3 3.7 1.4
v 0.3 3.7 1.3
v 0.3 3.8 1.2
v 0.3 3.8 1.1
v 0.3 3.9 1.6
v 0.3 3.9 1.5
v 0.3 3.9 1.3
v 0.3 3.9 1.2
v 0.3 3.9 1.1
v 0.3 3.9 1
v 0.3 4 1.7
v 0.3 4 1.6
v 0.3 4 1
v -0.2 2.7 1.7
v -0.2 2.8 1.7
v -0.2 3 1.7
v -0.2 3.1 1.7
v -0.2 3.2 1.7
v -0.2 4 1.7
v -0.0999999 3.2 1.7
v -0.0999999 3.5 1.7
v -0.0999999 3.6 1.7
v -0.0999999 3.9 1.7
v 5.96046e-08 3.3 1.7
v 5.96046e-08 3.5 1.7
v 5.96046e-08 3.6 1.7
v 5.96046e-08 3.7 1.7
v 0.1 3.2 1.7
v 0.1 3.3 1.7
v 0.1 3.5 1.7
v 0.1 3.6 1.7
v 0.1 3.7 1.7
v 0.1 3.8 1.7
v 0.1 3.9 1.7
v 0.2 3.2 1.7
v 0.2 3.3 1.7
v 0.2 3.5 1.7
v 0.2 3.6 1.7
v 0.2 3.7 1.7
v 0.2 3.8 1.7
v 0.2 4 1.7
v 0.3 2.7 1.7
v 0.3 2.8 1.7
v 0.3 3 1.7
v 0.3 3.1 1.7
v 0.3 3.2 1.7
v 0.3 3.3 1.7
v 0.3 3.5 1.7
v 0.3 3.6 1.7
v 0.3 3.7 1.7
v 0.3 4 1.7
v -0.2 3 1
v -0.2 3.1 1
v -0.2 3.2 1
v -0.2 3.3 1
v -0.2 3.4 1
v -0.2 3.5 1
v -0.2 3.6 1
v -0.2 3.9 1
v -0.2 4 1
v -0.0999999 3 1
v -0.0999999 3.1 1
v -0.0999999 3.3 1
v -0.0999999 3.4 1
v -0.0999999 3.6 1
v -0.0999999 3.8 1
v -0.0999999 3.9 1
v -0.0999999 4 1
v 5.96046e-08 3.3 1
v 5.96046e-08 3.5 1
v 5.96046e-08 3.6 1
v 5.96046e-08 3.8 1
v 0.1 3.3 1
v 0.1 3.4 1
v 0.1 3.6 1
v 0.1 3.8 1
v 0.2 3 1
v 0.2 3.1 1
v 0.2 3.4 1
v 0.2 3.5 1
v 0.2 3.8 1
v 0.2 3.9 1
v 0.3 3 1
v 0.3 3.1 1
v 0.3 3.2 1
v 0.3 3.5 1
v 0.3 3.9 1
v 0.3 4 1
v -0.2 2.7 0.8
v -0.2 2.8 0.8
v -0.2 3 0.8
v -0.0999999 2.7 0.8
v -0.0999999 2.8 0.8
v -0.0999999 3 0.8
v -0.0999999 3.1 0.8
v 0.2 2.7 0.8
v 0.2 2.8 0.8
v 0.2 3 0.8
v 0.2 3.1 0.8
v 0.3 2.7 0.8
v 0.3 2.8 0.8
v 0.3 3 0.8
v -0.0999999 2.7 0.7
v -0.0999999 2.8 0.7
v -0.0999999 3 0.7
v 5.96046e-08 2.8 0.7
v 5.96046e-08 2.9 0.7
v 0.1 2.8 0.7
v 0.1 2.9 0.7
v 0.2 2.7 0.7
v 0.2 2.8 0.7
v 0.2 3 0.7
v -0.2 2.7 1.7
v 0.3 2.7 1.7
v -0.2 2.7 0.8
v -0.0999999 2.7 0.8
v 0.2 2.7 0.8
v 0.3 2.7 0.8
v -0.0999999 2.7 0.7
v 0.2 2.7 0.7
v -0.2 3 1
v -0.0999999 3 1
v 0.2 3 1
v 0.3 3 1
v -0.0999999 3 0.9
v 0.2 3 0.9
v -0.2 3 0.8
v -0.0999999 3 0.8
v 0.2 3 0.8
v 0.3 3 0.8
v -0.0999999 3 0.7
v 0.2 3 0.7
v -0.0999999 3.1 1
v 0.2 3.1 1
v -0.0999999 3.1 0.9
v 0.2 3.1 0.9
v -0.0999999 3.1 0.8
v 0.2 3.1 0.8
v -0.2 4 1.7
v 0.2 4 1.7
v 0.3 4 1.7
v 0.2 4 1.6
v 0.3 4 1.6
v -0.2 4 1.3
v -0.0999999 4 1.3
v -0.2 4 1.2
v -0.0999999 4 1.2
v -0.2 4 1.1
v -0.0999999 4 1.1
v -0.2 4 1
v -0.0999999 4 1
v 0.3 4 1

# faces
f 3/2/1 2/2/1 1/2/1
f 4/2/1 2/2/1 3/2/1
f 5/3/1 4/3/1 3/3/1
f 6/3/1 4/3/1 5/3/1
f 7/3/1 4/3/1 6/3/1
f 8/4/1 6/4/1 5/4/1
f 9/4/1 6/4/1 8/4/1
f 10/5/1 9/5/1 8/5/1
f 11/5/1 9/5/1 10/5/1
f 12/5/1 9/5/1 11/5/1
f 13/5/1 9/5/1 12/5/1
f 14/1/1 11/1/1 10/1/1
f 15/6/1 12/6/1 11/6/1
f 15/1/1 11/1/1 14/1/1
f 16/1/1 13/1/1 12/1/1
f 16/6/1 12/6/1 15/6/1
f 17/1/1 13/1/1 16/1/1
f 18/1/1 13/1/1 17/1/1
f 19/1/1 13/1/1 18/1/1
f 20/6/1 15/6/1 14/6/1
f 20/6/1 16/6/1 15/6/1
f 20/6/1 17/6/1 16/6/1
f 21/6/1 17/6/1 20/6/1
f 22/6/1 19/6/1 18/6/1
f 22/1/1 18/1/1 17/1/1
f 23/6/1 19/6/1 22/6/1
f 24/1/1 14/1/1 10/1/1
f 24/6/1 20/6/1 14/6/1
f 25/6/1 20/6/1 24/6/1
f 26/6/1 17/6/1 21/6/1
f 26/1/1 21/1/1 20/1/1
f 27/1/1 23/1/1 22/1/1
f 27/6/1 17/6/1 26/6/1
f 27/1/1 22/1/1 17/1/1
f 28/1/1 23/1/1 27/1/1
f 29/6/1 20/6/1 25/6/1
f 29/1/1 26/1/1 20/1/1
f 29/1/1 27/1/1 26/1/1
f 30/1/1 27/1/1 29/1/1
f 31/6/1 28/6/1 27/6/1
f 31/1/1 27/1/1 30/1/1
f 32/6/1 28/6/1 31/6/1
f 33/6/1 30/6/1 29/6/1
f 33/1/1 31/1/1 30/1/1
f 33/1/1 32/1/1 31/1/1
f 34/1/1 32/1/1 33/1/1
f 35/1/1 25/1/1 24/1/1
f 35/6/1 29/6/1 25/6/1
f 35/6/1 34/6/1 33/6/1
f 35/6/1 33/6/1 29/6/1
f 36/6/1 34/6/1 35/6/1
f 37/1/1 32/1/1 34/1/1
f 38/1/1 32/1/1 37/1/1
f 39/1/1 24/1/1 10/1/1
f 39/1/1 35/1/1 24/1/1
f 39/1/1 36/1/1 35/1/1
f 40/6/1 34/6/1 36/6/1
f 40/1/1 36/1/1 39/1/1
f 41/1/1 37/1/1 34/1/1
f 41/6/1 34/6/1 40/6/1
f 42/6/1 38/6/1 37/6/1
f 42/1/1 37/1/1 41/1/1
f 43/6/1 38/6/1 42/6/1
f 46/2/1 45/2/1 44/2/1
f 47/2/1 45/2/1 46/2/1
f 50/3/1 47/3/1 46/3/1
f 51/3/1 47/3/1 50/3/1
f 52/4/1 49/4/1 48/4/1
f 53/3/1 50/3/1 49/3/1
f 53/4/1 49/4/1 52/4/1
f 54/3/1 50/3/1 53/3/1
f 55/2/2 56/2/2 57/2/2
f 57/2/2 56/2/2 58/2/2
f 57/3/2 58/3/2 61/3/2
f 61/3/2 58/3/2 62/3/2
f 59/4/2 60/4/2 63/4/2
f 60/3/2 61/3/2 64/3/2
f 63/4/2 60/4/2 64/4/2
f 64/3/2 61/3/2 65/3/2
f 66/2/2 67/2/2 68/2/2
f 68/2/2 67/2/2 69/2/2
f 68/3/2 69/3/2 70/3/2
f 70/3/2 69/3/2 71/3/2
f 71/3/2 69/3/2 72/3/2
f 70/4/2 71/4/2 73/4/2
f 73/4/2 71/4/2 74/4/2
f 73/5/2 74/5/2 75/5/2
f 75/5/2 74/5/2 76/5/2
f 76/5/2 74/5/2 77/5/2
f 77/5/2 74/5/2 78/5/2
f 78/5/2 74/5/2 79/5/2
f 75/6/2 76/6/2 80/6/2
f 76/1/2 77/1/2 81/1/2
f 80/6/2 76/6/2 81/6/2
f 81/1/2 77/1/2 82/1/2
f 82/1/2 77/1/2 83/1/2
f 77/6/2 78/6/2 84/6/2
f 83/1/2 77/1/2 84/1/2
f 78/1/2 79/1/2 85/1/2
f 84/6/2 78/6/2 85/6/2
f 85/1/2 79/1/2 86/1/2
f 82/1/2 83/1/2 87/1/2
f 83/6/2 84/6/2 87/6/2
f 84/1/2 85/1/2 88/1/2
f 87/6/2 84/6/2 88/6/2
f 80/1/2 81/1/2 89/1/2
f 81/6/2 82/6/2 90/6/2
f 89/1/2 81/1/2 90/1/2
f 82/1/2 87/1/2 91/1/2
f 90/6/2 82/6/2 91/6/2
f 87/1/2 88/1/2 91/1/2
f 91/1/2 88/1/2 92/1/2
f 85/6/2 86/6/2 93/6/2
f 92/1/2 88/1/2 93/1/2
f 88/1/2 85/1/2 93/1/2
f 86/1/2 79/1/2 94/1/2
f 93/6/2 86/6/2 94/6/2
f 94/1/2 79/1/2 95/1/2
f 89/6/2 90/6/2 96/6/2
f 91/1/2 92/1/2 97/1/2
f 96/6/2 90/6/2 97/6/2
f 90/1/2 91/1/2 97/1/2
f 96/1/2 97/1/2 98/1/2
f 97/1/2 92/1/2 99/1/2
f 98/1/2 97/1/2 99/1/2
f 92/6/2 93/6/2 100/6/2
f 99/1/2 92/1/2 100/1/2
f 94/6/2 95/6/2 100/6/2
f 93/6/2 94/6/2 100/6/2
f 100/6/2 95/6/2 101/6/2
f 101/6/2 95/6/2 102/6/2
f 102/6/2 95/6/2 103/6/2
f 98/6/2 99/6/2 104/6/2
f 99/1/2 100/1/2 105/1/2
f 104/6/2 99/6/2 105/6/2
f 100/1/2 101/1/2 105/1/2
f 101/6/2 102/6/2 106/6/2
f 105/1/2 101/1/2 106/1/2
f 102/1/2 103/1/2 107/1/2
f 106/6/2 102/6/2 107/6/2
f 103/6/2 95/6/2 108/6/2
f 107/1/2 103/1/2 108/1/2
f 108/6/2 95/6/2 109/6/2
f 98/6/2 104/6/2 110/6/2
f 106/1/2 107/1/2 111/1/2
f 110/6/2 104/6/2 111/6/2
f 105/1/2 106/1/2 111/1/2
f 108/1/2 109/1/2 111/1/2
f 107/1/2 108/1/2 111/1/2
f 104/1/2 105/1/2 111/1/2
f 111/1/2 109/1/2 112/1/2
f 119/5/3 117/5/3 116/5/3
f 119/1/3 118/1/3 117/1/3
f 120/1/3 118/1/3 119/1/3
f 121/1/3 118/1/3 120/1/3
f 122/1/3 118/1/3 121/1/3
f 123/6/3 120/6/3 119/6/3
f 124/1/3 121/1/3 120/1/3
f 124/6/3 120/6/3 123/6/3
f 125/6/3 122/6/3 121/6/3
f 125/1/3 121/1/3 124/1/3
f 126/6/3 122/6/3 125/6/3
f 127/5/3 119/5/3 116/5/3
f 127/6/3 123/6/3 119/6/3
f 128/1/3 126/1/3 125/1/3
f 128/6/3 123/6/3 127/6/3
f 128/1/3 124/1/3 123/1/3
f 128/1/3 125/1/3 124/1/3
f 129/1/3 126/1/3 128/1/3
f 130/1/3 126/1/3 129/1/3
f 131/6/3 122/6/3 126/6/3
f 131/1/3 126/1/3 130/1/3
f 132/6/3 122/6/3 131/6/3
f 133/1/3 118/1/3 122/1/3
f 133/6/3 122/6/3 132/6/3
f 134/5/3 127/5/3 116/5/3
f 134/1/3 128/1/3 127/1/3
f 135/6/3 129/6/3 128/6/3
f 135/1/3 128/1/3 134/1/3
f 136/1/3 130/1/3 129/1/3
f 136/6/3 129/6/3 135/6/3
f 137/6/3 132/6/3 131/6/3
f 137/1/3 130/1/3 136/1/3
f 137/6/3 131/6/3 130/6/3
f 138/6/3 132/6/3 137/6/3
f 139/1/3 133/1/3 132/1/3
f 139/6/3 132/6/3 138/6/3
f 140/1/3 118/1/3 133/1/3
f 140/1/3 133/1/3 139/1/3
f 141/2/3 114/2/3 113/2/3
f 142/3/3 115/3/3 114/3/3
f 142/2/3 114/2/3 141/2/3
f 143/4/3 116/4/3 115/4/3
f 143/3/3 115/3/3 142/3/3
f 144/5/3 134/5/3 116/5/3
f 144/4/3 116/4/3 143/4/3
f 145/6/3 135/6/3 134/6/3
f 145/5/3 134/5/3 144/5/3
f 146/1/3 136/1/3 135/1/3
f 146/6/3 135/6/3 145/6/3
f 147/6/3 137/6/3 136/6/3
f 147/1/3 136/1/3 146/1/3
f 148/1/3 138/1/3 137/1/3
f 148/6/3 137/6/3 147/6/3
f 149/6/3 139/6/3 138/6/3
f 149/1/3 138/1/3 148/1/3
f 149/6/3 140/6/3 139/6/3
f 150/6/3 140/6/3 149/6/3
f 151/4/4 152/4/4 160/4/4
f 152/5/4 153/5/4 161/5/4
f 160/4/4 152/4/4 161/4/4
f 153/1/4 154/1/4 162/1/4
f 154/6/4 155/6/4 162/6/4
f 155/1/4 156/1/4 163/1/4
f 162/6/4 155/6/4 163/6/4
f 156/6/4 157/6/4 164/6/4
f 157/1/4 158/1/4 164/1/4
f 164/1/4 158/1/4 165/1/4
f 158/6/4 159/6/4 166/6/4
f 165/1/4 158/1/4 166/1/4
f 166/6/4 159/6/4 167/6/4
f 153/1/4 162/1/4 168/1/4
f 162/1/4 163/1/4 168/1/4
f 164/6/4 165/6/4 169/6/4
f 168/1/4 163/1/4 169/1/4
f 163/1/4 156/1/4 169/1/4
f 156/6/4 164/6/4 169/6/4
f 169/6/4 165/6/4 170/6/4
f 166/1/4 167/1/4 171/1/4
f 170/6/4 165/6/4 171/6/4
f 165/1/4 166/1/4 171/1/4
f 153/1/4 168/1/4 172/1/4
f 169/6/4 170/6/4 172/6/4
f 168/6/4 169/6/4 172/6/4
f 172/6/4 170/6/4 173/6/4
f 170/1/4 171/1/4 174/1/4
f 173/6/4 170/6/4 174/6/4
f 171/1/4 167/1/4 175/1/4
f 174/1/4 171/1/4 175/1/4
f 161/5/4 153/5/4 177/5/4
f 173/6/4 174/6/4 178/6/4
f 172/1/4 173/1/4 178/1/4
f 174/6/4 175/6/4 178/6/4
f 178/6/4 175/6/4 179/6/4
f 175/1/4 167/1/4 180/1/4
f 179/6/4 175/6/4 180/6/4
f 180/1/4 167/1/4 181/1/4
f 176/4/4 177/4/4 182/4/4
f 177/5/4 153/5/4 183/5/4
f 182/4/4 177/4/4 183/4/4
f 178/1/4 179/1/4 184/1/4
f 183/5/4 153/5/4 184/5/4
f 153/1/4 172/1/4 184/1/4
f 172/1/4 178/1/4 184/1/4
f 180/6/4 181/6/4 185/6/4
f 184/1/4 179/1/4 185/1/4
f 179/6/4 180/6/4 185/6/4
f 181/1/4 167/1/4 186/1/4
f 185/6/4 181/6/4 186/6/4
f 186/1/4 167/1/4 187/1/4
f 188/2/4 189/2/4 191/2/4
f 189/3/4 190/3/4 192/3/4
f 191/2/4 189/2/4 192/2/4
f 192/3/4 190/3/4 193/3/4
f 193/3/4 194/3/4 197/3/4
f 197/3/4 194/3/4 198/3/4
f 195/2/4 196/2/4 199/2/4
f 196/3/4 197/3/4 200/3/4
f 199/2/4 196/2/4 200/2/4
f 200/3/4 197/3/4 201/3/4
f 202/2/4 203/2/4 205/2/4
f 203/3/4 204/3/4 205/3/4
f 205/3/4 204/3/4 206/3/4
f 202/2/4 205/2/4 207/2/4
f 205/4/4 206/4/4 207/4/4
f 206/3/4 204/3/4 208/3/4
f 207/4/4 206/4/4 208/4/4
f 202/2/4 207/2/4 209/2/4
f 207/3/4 208/3/4 210/3/4
f 209/2/4 207/2/4 210/2/4
f 208/3/4 204/3/4 211/3/4
f 210/3/4 208/3/4 211/3/4
f 214/2/5 213/2/5 212/2/5
f 215/2/5 213/2/5 214/2/5
f 216/2/5 213/2/5 215/2/5
f 217/2/5 213/2/5 216/2/5
f 218/2/5 216/2/5 215/2/5
f 219/2/5 216/2/5 218/2/5
f 220/3/6 221/3/6 224/3/6
f 222/3/6 223/3/6 225/3/6
f 220/3/6 224/3/6 226/3/6
f 226/3/6 224/3/6 227/3/6
f 225/3/6 223/3/6 228/3/6
f 228/3/6 223/3/6 229/3/6
f 227/3/6 228/3/6 230/3/6
f 230/3/6 228/3/6 231/3/6
f 232/4/6 233/4/6 234/4/6
f 234/4/6 233/4/6 235/4/6
f 234/3/6 235/3/6 236/3/6
f 236/3/6 235/3/6 237/3/6
f 238/1/6 239/1/6 241/1/6
f 239/6/6 240/6/6 241/6/6
f 241/6/6 240/6/6 242/6/6
f 238/1/6 241/1/6 243/1/6
f 241/1/6 242/1/6 243/1/6
f 243/1/6 242/1/6 244/1/6
f 243/6/6 244/6/6 245/6/6
f 244/1/6 242/1/6 246/1/6
f 245/6/6 244/6/6 246/6/6
f 245/1/6 246/1/6 247/1/6
f 246/1/6 242/1/6 248/1/6
f 247/1/6 246/1/6 248/1/6
f 247/6/6 248/6/6 249/6/6
f 248/1/6 242/1/6 250/1/6
f 249/6/6 248/6/6 250/6/6
f 250/1/6 242/1/6 251/1/6
