# MagicaVoxel @ Ephtracy

# group
o 

# material
mtllib pregrada.mtl
usemtl palette

# normals
vn -1 0 0
vn 1 0 0
vn 0 0 1
vn 0 0 -1
vn 0 -1 0
vn 0 1 0

# texcoords
vt 0.978516 0.5
vt 0.986328 0.5

# verts
v 0.2 0 1.1
v 0.2 0 0.7
v 0.2 0 -1.7
v 0.2 0 -2.1
v 0.2 2.7 1.1
v 0.2 2.7 0.7
v 0.2 2.7 -1.7
v 0.2 2.7 -2.1
v 0.3 0.8 0.7
v 0.3 0.8 -1.7
v 0.3 1 0.7
v 0.3 1 -1.7
v 0.3 2.4 0.7
v 0.3 2.4 -1.7
v 0.3 2.6 0.7
v 0.3 2.6 -1.7
v 0.5 0.8 0.7
v 0.5 0.8 -1.7
v 0.5 1 0.7
v 0.5 1 -1.7
v 0.5 2.4 0.7
v 0.5 2.4 -1.7
v 0.5 2.6 0.7
v 0.5 2.6 -1.7
v 0.6 0 1.1
v 0.6 0 0.7
v 0.6 0 -1.7
v 0.6 0 -2.1
v 0.6 2.7 1.1
v 0.6 2.7 0.7
v 0.6 2.7 -1.7
v 0.6 2.7 -2.1
v 0.2 0 1.1
v 0.2 2.7 1.1
v 0.6 0 1.1
v 0.6 2.7 1.1
v 0.2 0 -1.7
v 0.2 2.7 -1.7
v 0.3 0.8 -1.7
v 0.3 1 -1.7
v 0.3 2.4 -1.7
v 0.3 2.6 -1.7
v 0.5 0.8 -1.7
v 0.5 1 -1.7
v 0.5 2.4 -1.7
v 0.5 2.6 -1.7
v 0.6 0 -1.7
v 0.6 2.7 -1.7
v 0.2 0 0.7
v 0.2 2.7 0.7
v 0.3 0.8 0.7
v 0.3 1 0.7
v 0.3 2.4 0.7
v 0.3 2.6 0.7
v 0.5 0.8 0.7
v 0.5 1 0.7
v 0.5 2.4 0.7
v 0.5 2.6 0.7
v 0.6 0 0.7
v 0.6 2.7 0.7
v 0.2 0 -2.1
v 0.2 2.7 -2.1
v 0.6 0 -2.1
v 0.6 2.7 -2.1
v 0.2 0 1.1
v 0.6 0 1.1
v 0.2 0 0.7
v 0.6 0 0.7
v 0.2 0 -1.7
v 0.6 0 -1.7
v 0.2 0 -2.1
v 0.6 0 -2.1
v 0.3 0.8 0.7
v 0.5 0.8 0.7
v 0.3 0.8 -1.7
v 0.5 0.8 -1.7
v 0.3 2.4 0.7
v 0.5 2.4 0.7
v 0.3 2.4 -1.7
v 0.5 2.4 -1.7
v 0.3 1 0.7
v 0.5 1 0.7
v 0.3 1 -1.7
v 0.5 1 -1.7
v 0.3 2.6 0.7
v 0.5 2.6 0.7
v 0.3 2.6 -1.7
v 0.5 2.6 -1.7
v 0.2 2.7 1.1
v 0.6 2.7 1.1
v 0.2 2.7 0.7
v 0.6 2.7 0.7
v 0.2 2.7 -1.7
v 0.6 2.7 -1.7
v 0.2 2.7 -2.1
v 0.6 2.7 -2.1

# faces
f 5/1/1 2/1/1 1/1/1
f 6/1/1 2/1/1 5/1/1
f 7/1/1 4/1/1 3/1/1
f 8/1/1 4/1/1 7/1/1
f 11/2/1 10/2/1 9/2/1
f 12/2/1 10/2/1 11/2/1
f 15/2/1 14/2/1 13/2/1
f 16/2/1 14/2/1 15/2/1
f 17/2/2 18/2/2 19/2/2
f 19/2/2 18/2/2 20/2/2
f 21/2/2 22/2/2 23/2/2
f 23/2/2 22/2/2 24/2/2
f 25/1/2 26/1/2 29/1/2
f 29/1/2 26/1/2 30/1/2
f 27/1/2 28/1/2 31/1/2
f 31/1/2 28/1/2 32/1/2
f 35/1/3 34/1/3 33/1/3
f 36/1/3 34/1/3 35/1/3
f 39/1/3 38/1/3 37/1/3
f 40/1/3 38/1/3 39/1/3
f 41/1/3 38/1/3 40/1/3
f 42/1/3 38/1/3 41/1/3
f 43/1/3 39/1/3 37/1/3
f 44/1/3 41/1/3 40/1/3
f 45/1/3 41/1/3 44/1/3
f 46/1/3 38/1/3 42/1/3
f 47/1/3 45/1/3 44/1/3
f 47/1/3 46/1/3 45/1/3
f 47/1/3 43/1/3 37/1/3
f 47/1/3 44/1/3 43/1/3
f 48/1/3 38/1/3 46/1/3
f 48/1/3 46/1/3 47/1/3
f 49/1/4 50/1/4 51/1/4
f 51/1/4 50/1/4 52/1/4
f 52/1/4 50/1/4 53/1/4
f 53/1/4 50/1/4 54/1/4
f 49/1/4 51/1/4 55/1/4
f 52/1/4 53/1/4 56/1/4
f 56/1/4 53/1/4 57/1/4
f 54/1/4 50/1/4 58/1/4
f 56/1/4 57/1/4 59/1/4
f 57/1/4 58/1/4 59/1/4
f 49/1/4 55/1/4 59/1/4
f 55/1/4 56/1/4 59/1/4
f 58/1/4 50/1/4 60/1/4
f 59/1/4 58/1/4 60/1/4
f 61/1/4 62/1/4 63/1/4
f 63/1/4 62/1/4 64/1/4
f 67/1/5 66/1/5 65/1/5
f 68/1/5 66/1/5 67/1/5
f 71/1/5 70/1/5 69/1/5
f 72/1/5 70/1/5 71/1/5
f 75/2/5 74/2/5 73/2/5
f 76/2/5 74/2/5 75/2/5
f 79/2/5 78/2/5 77/2/5
f 80/2/5 78/2/5 79/2/5
f 81/2/6 82/2/6 83/2/6
f 83/2/6 82/2/6 84/2/6
f 85/2/6 86/2/6 87/2/6
f 87/2/6 86/2/6 88/2/6
f 89/1/6 90/1/6 91/1/6
f 91/1/6 90/1/6 92/1/6
f 93/1/6 94/1/6 95/1/6
f 95/1/6 94/1/6 96/1/6
