# MagicaVoxel @ Ephtracy

# group
o 

# material
mtllib kreslo.mtl
usemtl palette

# normals
vn -1 0 0
vn 1 0 0
vn 0 0 1
vn 0 0 -1
vn 0 -1 0
vn 0 1 0

# texcoords
vt 0.970703 0.5
vt 0.974609 0.5

# verts
v -3.7 0.7 1.3
v -3.7 0.7 1.1
v -3.7 4.3 1.3
v -3.7 4.3 1.1
v -3.4 1 1.4
v -3.4 1 1.3
v -3.4 4 1.4
v -3.4 4 1.3
v -0.7 2.1 1.5
v -0.7 2.1 1.4
v -0.7 3 1.5
v -0.7 3 1.4
v -0.5 2.2 2
v -0.5 2.2 1.9
v -0.5 2.9 2
v -0.5 2.9 1.9
v -0.3 2.4 1.9
v -0.3 2.4 1.5
v -0.3 2.7 1.9
v -0.3 2.7 1.5
v 0.1 2.4 1.9
v 0.1 2.4 1.5
v 0.1 2.7 1.9
v 0.1 2.7 1.5
v 0.3 2.2 2
v 0.3 2.2 1.9
v 0.3 2.9 2
v 0.3 2.9 1.9
v 0.5 2.1 1.5
v 0.5 2.1 1.4
v 0.5 3 1.5
v 0.5 3 1.4
v 3.3 1 1.4
v 3.3 1 1.3
v 3.3 4 1.4
v 3.3 4 1.3
v 3.6 0.7 1.3
v 3.6 0.7 1.1
v 3.6 4.3 1.3
v 3.6 4.3 1.1
v -0.5 2.2 2
v -0.5 2.9 2
v 0.3 2.2 2
v 0.3 2.9 2
v -0.7 2.1 1.5
v -0.7 3 1.5
v -0.3 2.4 1.5
v -0.3 2.7 1.5
v 0.1 2.4 1.5
v 0.1 2.7 1.5
v 0.5 2.1 1.5
v 0.5 3 1.5
v -3.4 1 1.4
v -3.4 4 1.4
v -0.7 2.1 1.4
v -0.7 3 1.4
v 0.5 2.1 1.4
v 0.5 3 1.4
v 3.3 1 1.4
v 3.3 4 1.4
v -3.7 0.7 1.3
v -3.7 4.3 1.3
v -3.4 1 1.3
v -3.4 4 1.3
v 3.3 1 1.3
v 3.3 4 1.3
v 3.6 0.7 1.3
v 3.6 4.3 1.3
v -0.5 2.2 1.9
v -0.5 2.9 1.9
v -0.3 2.4 1.9
v -0.3 2.7 1.9
v 0.1 2.4 1.9
v 0.1 2.7 1.9
v 0.3 2.2 1.9
v 0.3 2.9 1.9
v -3.7 0.7 1.1
v -3.7 4.3 1.1
v 3.6 0.7 1.1
v 3.6 4.3 1.1
v -3.7 0.7 1.3
v 3.6 0.7 1.3
v -3.7 0.7 1.1
v 3.6 0.7 1.1
v -3.4 1 1.4
v 3.3 1 1.4
v -3.4 1 1.3
v 3.3 1 1.3
v -0.7 2.1 1.5
v 0.5 2.1 1.5
v -0.7 2.1 1.4
v 0.5 2.1 1.4
v -0.5 2.2 2
v 0.3 2.2 2
v -0.5 2.2 1.9
v 0.3 2.2 1.9
v -0.3 2.4 1.9
v 0.1 2.4 1.9
v -0.3 2.4 1.5
v 0.1 2.4 1.5
v -0.3 2.7 1.9
v 0.1 2.7 1.9
v -0.3 2.7 1.5
v 0.1 2.7 1.5
v -0.5 2.9 2
v 0.3 2.9 2
v -0.5 2.9 1.9
v 0.3 2.9 1.9
v -0.7 3 1.5
v 0.5 3 1.5
v -0.7 3 1.4
v 0.5 3 1.4
v -3.4 4 1.4
v 3.3 4 1.4
v -3.4 4 1.3
v 3.3 4 1.3
v -3.7 4.3 1.3
v 3.6 4.3 1.3
v -3.7 4.3 1.1
v 3.6 4.3 1.1

# faces
f 3/1/1 2/1/1 1/1/1
f 4/1/1 2/1/1 3/1/1
f 7/1/1 6/1/1 5/1/1
f 8/1/1 6/1/1 7/1/1
f 11/2/1 10/2/1 9/2/1
f 12/2/1 10/2/1 11/2/1
f 15/2/1 14/2/1 13/2/1
f 16/2/1 14/2/1 15/2/1
f 19/2/1 18/2/1 17/2/1
f 20/2/1 18/2/1 19/2/1
f 21/2/2 22/2/2 23/2/2
f 23/2/2 22/2/2 24/2/2
f 25/2/2 26/2/2 27/2/2
f 27/2/2 26/2/2 28/2/2
f 29/2/2 30/2/2 31/2/2
f 31/2/2 30/2/2 32/2/2
f 33/1/2 34/1/2 35/1/2
f 35/1/2 34/1/2 36/1/2
f 37/1/2 38/1/2 39/1/2
f 39/1/2 38/1/2 40/1/2
f 43/2/3 42/2/3 41/2/3
f 44/2/3 42/2/3 43/2/3
f 47/2/3 46/2/3 45/2/3
f 48/2/3 46/2/3 47/2/3
f 49/2/3 47/2/3 45/2/3
f 50/2/3 46/2/3 48/2/3
f 51/2/3 49/2/3 45/2/3
f 51/2/3 50/2/3 49/2/3
f 52/2/3 46/2/3 50/2/3
f 52/2/3 50/2/3 51/2/3
f 55/1/3 54/1/3 53/1/3
f 56/1/3 54/1/3 55/1/3
f 57/1/3 55/1/3 53/1/3
f 58/1/3 54/1/3 56/1/3
f 59/1/3 57/1/3 53/1/3
f 59/1/3 58/1/3 57/1/3
f 60/1/3 54/1/3 58/1/3
f 60/1/3 58/1/3 59/1/3
f 63/1/3 62/1/3 61/1/3
f 64/1/3 62/1/3 63/1/3
f 65/1/3 63/1/3 61/1/3
f 66/1/3 62/1/3 64/1/3
f 67/1/3 65/1/3 61/1/3
f 67/1/3 66/1/3 65/1/3
f 68/1/3 62/1/3 66/1/3
f 68/1/3 66/1/3 67/1/3
f 69/2/4 70/2/4 71/2/4
f 71/2/4 70/2/4 72/2/4
f 69/2/4 71/2/4 73/2/4
f 72/2/4 70/2/4 74/2/4
f 69/2/4 73/2/4 75/2/4
f 73/2/4 74/2/4 75/2/4
f 74/2/4 70/2/4 76/2/4
f 75/2/4 74/2/4 76/2/4
f 77/1/4 78/1/4 79/1/4
f 79/1/4 78/1/4 80/1/4
f 83/1/5 82/1/5 81/1/5
f 84/1/5 82/1/5 83/1/5
f 87/1/5 86/1/5 85/1/5
f 88/1/5 86/1/5 87/1/5
f 91/2/5 90/2/5 89/2/5
f 92/2/5 90/2/5 91/2/5
f 95/2/5 94/2/5 93/2/5
f 96/2/5 94/2/5 95/2/5
f 99/2/5 98/2/5 97/2/5
f 100/2/5 98/2/5 99/2/5
f 101/2/6 102/2/6 103/2/6
f 103/2/6 102/2/6 104/2/6
f 105/2/6 106/2/6 107/2/6
f 107/2/6 106/2/6 108/2/6
f 109/2/6 110/2/6 111/2/6
f 111/2/6 110/2/6 112/2/6
f 113/1/6 114/1/6 115/1/6
f 115/1/6 114/1/6 116/1/6
f 117/1/6 118/1/6 119/1/6
f 119/1/6 118/1/6 120/1/6
