# MagicaVoxel @ Ephtracy

# group
o 

# material
mtllib l_ryka.mtl
usemtl palette

# normals
vn -1 0 0
vn 1 0 0
vn 0 0 1
vn 0 0 -1
vn 0 -1 0
vn 0 1 0

# texcoords
vt 0.947266 0.5
vt 0.955078 0.5
vt 0.958984 0.5
vt 0.962891 0.5
vt 0.966797 0.5

# verts
v -0.2 1.7 0.2
v -0.2 1.7 0.0999998
v -0.2 1.7 -0.2
v -0.2 1.7 -0.3
v -0.2 2.5 0.3
v -0.2 2.5 0.2
v -0.2 2.5 0.0999998
v -0.2 2.5 -0.2
v -0.2 2.5 -0.3
v -0.2 2.5 -0.4
v -0.2 2.6 0.3
v -0.2 2.6 0.2
v -0.2 2.6 -0.3
v -0.2 2.6 -0.4
v -0.2 2.9 0.2
v -0.2 2.9 0.0999998
v -0.2 2.9 -0.2
v -0.2 2.9 -0.3
v -0.2 3.1 0.2
v -0.2 3.1 -0.3
v -0.0999999 1.3 0.3
v -0.0999999 1.3 -0.3
v -0.0999999 1.3 -0.4
v -0.0999999 1.6 -0.3
v -0.0999999 1.6 -0.4
v -0.0999999 1.7 0.3
v -0.0999999 1.7 0.2
v -0.0999999 1.7 0.0999998
v -0.0999999 1.7 -0.2
v -0.0999999 1.7 -0.3
v -0.0999999 1.7 -0.4
v 0.3 1.3 0.3
v 0.3 1.3 0.2
v 0.3 1.3 0.0999998
v 0.3 1.3 -1.49012e-07
v 0.3 1.3 -0.1
v 0.3 1.3 -0.2
v 0.3 1.3 -0.3
v 0.3 1.3 -0.4
v 0.3 1.6 0.2
v 0.3 1.6 0.0999998
v 0.3 1.6 -1.49012e-07
v 0.3 1.6 -0.1
v 0.3 1.6 -0.2
v 0.3 1.6 -0.3
v 0.3 1.7 0.3
v 0.3 1.7 0.2
v 0.3 1.7 -0.3
v 0.3 1.7 -0.4
v 0.3 2.1 -1.49012e-07
v 0.3 2.1 -0.1
v 0.3 2.2 0.0999998
v 0.3 2.2 -1.49012e-07
v 0.3 2.2 -0.1
v 0.3 2.2 -0.2
v 0.3 2.4 -0.2
v 0.3 2.4 -0.3
v 0.3 2.5 0.2
v 0.3 2.5 0.0999998
v 0.3 2.5 -0.3
v 0.3 2.6 0.2
v 0.3 2.6 0.0999998
v 0.3 2.6 -0.2
v 0.3 2.6 -0.3
v 0.3 2.7 0.2
v 0.3 2.7 0.0999998
v 0.3 2.7 -0.2
v 0.3 2.7 -0.3
v 0.3 2.9 0.2
v 0.3 2.9 0.0999998
v 0.3 2.9 -0.1
v 0.3 2.9 -0.2
v 0.3 3 0.2
v 0.3 3 0.0999998
v 0.3 3 -1.49012e-07
v 0.3 3 -0.1
v 0.3 3 -0.2
v 0.3 3 -0.3
v 0.3 3.1 0.2
v 0.3 3.1 -1.49012e-07
v 0.3 3.1 -0.3
v 0.4 2.5 0.3
v 0.4 2.5 -0.4
v 0.4 2.6 0.3
v 0.4 2.6 -0.4
v -0.2 2.5 0.3
v -0.2 2.6 0.3
v -0.0999999 1.3 0.3
v -0.0999999 1.7 0.3
v 0.3 1.3 0.3
v 0.3 1.7 0.3
v 0.4 2.5 0.3
v 0.4 2.6 0.3
v -0.2 1.7 0.2
v -0.2 2.5 0.2
v -0.2 2.6 0.2
v -0.2 2.9 0.2
v -0.2 3.1 0.2
v -0.0999999 1.7 0.2
v -0.0999999 1.8 0.2
v -0.0999999 2.3 0.2
v -0.0999999 2.6 0.2
v -0.0999999 2.9 0.2
v 5.96046e-08 1.8 0.2
v 5.96046e-08 2 0.2
v 5.96046e-08 2.3 0.2
v 5.96046e-08 2.4 0.2
v 5.96046e-08 2.6 0.2
v 5.96046e-08 2.8 0.2
v 0.1 2 0.2
v 0.1 2.3 0.2
v 0.1 2.4 0.2
v 0.1 2.5 0.2
v 0.1 2.6 0.2
v 0.1 2.8 0.2
v 0.2 2.3 0.2
v 0.2 2.5 0.2
v 0.2 2.7 0.2
v 0.2 2.9 0.2
v 0.2 3 0.2
v 0.2 3.1 0.2
v 0.3 1.7 0.2
v 0.3 2.5 0.2
v 0.3 2.6 0.2
v 0.3 2.7 0.2
v 0.3 2.9 0.2
v 0.3 3 0.2
v 0.3 3.1 0.2
v -0.2 1.7 -0.3
v -0.2 2.5 -0.3
v -0.2 2.6 -0.3
v -0.2 2.9 -0.3
v -0.2 3.1 -0.3
v -0.0999999 1.7 -0.3
v -0.0999999 1.8 -0.3
v -0.0999999 2.3 -0.3
v -0.0999999 2.8 -0.3
v -0.0999999 2.9 -0.3
v 5.96046e-08 1.8 -0.3
v 5.96046e-08 2 -0.3
v 5.96046e-08 2.3 -0.3
v 5.96046e-08 2.4 -0.3
v 5.96046e-08 2.6 -0.3
v 5.96046e-08 2.7 -0.3
v 5.96046e-08 2.9 -0.3
v 5.96046e-08 3.1 -0.3
v 0.1 2 -0.3
v 0.1 2.2 -0.3
v 0.1 2.4 -0.3
v 0.1 2.5 -0.3
v 0.1 2.7 -0.3
v 0.1 2.8 -0.3
v 0.2 2.2 -0.3
v 0.2 2.4 -0.3
v 0.2 2.7 -0.3
v 0.2 2.9 -0.3
v 0.2 3 -0.3
v 0.2 3.1 -0.3
v 0.3 1.7 -0.3
v 0.3 2.4 -0.3
v 0.3 2.5 -0.3
v 0.3 2.6 -0.3
v 0.3 2.7 -0.3
v 0.3 3 -0.3
v 0.3 3.1 -0.3
v -0.2 2.5 -0.4
v -0.2 2.6 -0.4
v -0.0999999 1.3 -0.4
v -0.0999999 1.6 -0.4
v -0.0999999 1.7 -0.4
v 5.96046e-08 1.3 -0.4
v 5.96046e-08 1.6 -0.4
v 0.1 1.3 -0.4
v 0.1 1.6 -0.4
v 0.2 1.3 -0.4
v 0.2 1.6 -0.4
v 0.3 1.3 -0.4
v 0.3 1.7 -0.4
v 0.4 2.5 -0.4
v 0.4 2.6 -0.4
v -0.0999999 1.3 0.3
v 0.3 1.3 0.3
v 0.2 1.3 0.2
v 0.3 1.3 0.2
v 0.2 1.3 0.0999998
v 0.3 1.3 0.0999998
v 0.2 1.3 -1.49012e-07
v 0.3 1.3 -1.49012e-07
v 0.2 1.3 -0.1
v 0.3 1.3 -0.1
v 0.2 1.3 -0.2
v 0.3 1.3 -0.2
v -0.0999999 1.3 -0.3
v 5.96046e-08 1.3 -0.3
v 0.1 1.3 -0.3
v 0.2 1.3 -0.3
v 0.3 1.3 -0.3
v -0.0999999 1.3 -0.4
v 5.96046e-08 1.3 -0.4
v 0.1 1.3 -0.4
v 0.2 1.3 -0.4
v 0.3 1.3 -0.4
v -0.2 1.7 0.2
v -0.0999999 1.7 0.2
v -0.2 1.7 0.0999998
v -0.0999999 1.7 0.0999998
v -0.2 1.7 -0.2
v -0.0999999 1.7 -0.2
v -0.2 1.7 -0.3
v -0.0999999 1.7 -0.3
v -0.2 2.5 0.3
v 0.4 2.5 0.3
v -0.2 2.5 0.2
v 0.1 2.5 0.2
v 0.2 2.5 0.2
v 0.3 2.5 0.2
v 0.3 2.5 0.0999998
v -0.2 2.5 -0.3
v 0.1 2.5 -0.3
v 0.3 2.5 -0.3
v -0.2 2.5 -0.4
v 0.4 2.5 -0.4
v -0.0999999 1.7 0.3
v 0.3 1.7 0.3
v -0.0999999 1.7 0.2
v 0.3 1.7 0.2
v -0.0999999 1.7 -0.3
v 0.3 1.7 -0.3
v -0.0999999 1.7 -0.4
v 0.3 1.7 -0.4
v -0.2 2.6 0.3
v 0.4 2.6 0.3
v -0.2 2.6 0.2
v -0.0999999 2.6 0.2
v 5.96046e-08 2.6 0.2
v 0.1 2.6 0.2
v 0.3 2.6 0.2
v 0.3 2.6 0.0999998
v 0.3 2.6 -0.2
v -0.2 2.6 -0.3
v 5.96046e-08 2.6 -0.3
v 0.3 2.6 -0.3
v -0.2 2.6 -0.4
v 0.4 2.6 -0.4
v -0.2 3.1 0.2
v 0.2 3.1 0.2
v 0.3 3.1 0.2
v 0.2 3.1 -1.49012e-07
v 0.3 3.1 -1.49012e-07
v 5.96046e-08 3.1 -0.2
v 0.2 3.1 -0.2
v -0.2 3.1 -0.3
v 5.96046e-08 3.1 -0.3
v 0.2 3.1 -0.3
v 0.3 3.1 -0.3

# faces
f 6/3/1 2/3/1 1/3/1
f 7/2/1 3/2/1 2/2/1
f 7/3/1 2/3/1 6/3/1
f 8/3/1 4/3/1 3/3/1
f 8/2/1 3/2/1 7/2/1
f 9/3/1 4/3/1 8/3/1
f 11/5/1 7/5/1 6/5/1
f 11/5/1 6/5/1 5/5/1
f 12/5/1 7/5/1 11/5/1
f 13/5/1 10/5/1 9/5/1
f 13/5/1 9/5/1 8/5/1
f 14/5/1 10/5/1 13/5/1
f 15/5/1 7/5/1 12/5/1
f 16/1/1 8/1/1 7/1/1
f 16/5/1 7/5/1 15/5/1
f 17/5/1 13/5/1 8/5/1
f 17/1/1 8/1/1 16/1/1
f 18/5/1 13/5/1 17/5/1
f 19/1/1 16/1/1 15/1/1
f 19/1/1 17/1/1 16/1/1
f 19/1/1 18/1/1 17/1/1
f 20/1/1 18/1/1 19/1/1
f 24/2/1 22/2/1 21/2/1
f 24/4/1 23/4/1 22/4/1
f 25/4/1 23/4/1 24/4/1
f 26/2/1 24/2/1 21/2/1
f 26/2/1 25/2/1 24/2/1
f 27/2/1 25/2/1 26/2/1
f 28/2/1 25/2/1 27/2/1
f 29/2/1 25/2/1 28/2/1
f 30/2/1 25/2/1 29/2/1
f 31/2/1 25/2/1 30/2/1
f 32/2/2 33/2/2 40/2/2
f 33/4/2 34/4/2 40/4/2
f 34/2/2 35/2/2 41/2/2
f 40/4/2 34/4/2 41/4/2
f 35/4/2 36/4/2 42/4/2
f 41/2/2 35/2/2 42/2/2
f 36/2/2 37/2/2 43/2/2
f 42/4/2 36/4/2 43/4/2
f 37/4/2 38/4/2 44/4/2
f 43/2/2 37/2/2 44/2/2
f 38/2/2 39/2/2 45/2/2
f 44/4/2 38/4/2 45/4/2
f 43/2/2 44/2/2 46/2/2
f 42/2/2 43/2/2 46/2/2
f 44/2/2 45/2/2 46/2/2
f 41/2/2 42/2/2 46/2/2
f 40/2/2 41/2/2 46/2/2
f 32/2/2 40/2/2 46/2/2
f 46/2/2 45/2/2 47/2/2
f 45/2/2 39/2/2 48/2/2
f 47/2/2 45/2/2 48/2/2
f 48/2/2 39/2/2 49/2/2
f 47/4/2 48/4/2 50/4/2
f 50/4/2 48/4/2 51/4/2
f 47/4/2 50/4/2 52/4/2
f 50/2/2 51/2/2 53/2/2
f 52/4/2 50/4/2 53/4/2
f 51/4/2 48/4/2 54/4/2
f 53/2/2 51/2/2 54/2/2
f 54/4/2 48/4/2 55/4/2
f 52/2/2 53/2/2 56/2/2
f 55/4/2 48/4/2 56/4/2
f 54/2/2 55/2/2 56/2/2
f 53/2/2 54/2/2 56/2/2
f 56/4/2 48/4/2 57/4/2
f 47/4/2 52/4/2 58/4/2
f 52/2/2 56/2/2 59/2/2
f 58/4/2 52/4/2 59/4/2
f 56/2/2 57/2/2 59/2/2
f 59/2/2 57/2/2 60/2/2
f 61/1/2 62/1/2 65/1/2
f 62/5/2 63/5/2 66/5/2
f 65/1/2 62/1/2 66/1/2
f 63/1/2 64/1/2 67/1/2
f 66/5/2 63/5/2 67/5/2
f 67/1/2 64/1/2 68/1/2
f 65/5/2 66/5/2 69/5/2
f 66/5/2 67/5/2 69/5/2
f 67/5/2 68/5/2 69/5/2
f 69/5/2 68/5/2 70/5/2
f 70/5/2 68/5/2 71/5/2
f 71/5/2 68/5/2 72/5/2
f 69/1/2 70/1/2 73/1/2
f 70/5/2 71/5/2 74/5/2
f 73/1/2 70/1/2 74/1/2
f 74/5/2 71/5/2 75/5/2
f 71/1/2 72/1/2 76/1/2
f 75/5/2 71/5/2 76/5/2
f 72/5/2 68/5/2 77/5/2
f 76/1/2 72/1/2 77/1/2
f 77/5/2 68/5/2 78/5/2
f 74/5/2 75/5/2 79/5/2
f 73/5/2 74/5/2 79/5/2
f 75/1/2 76/1/2 80/1/2
f 79/5/2 75/5/2 80/5/2
f 77/1/2 78/1/2 80/1/2
f 76/1/2 77/1/2 80/1/2
f 80/1/2 78/1/2 81/1/2
f 82/5/2 83/5/2 84/5/2
f 84/5/2 83/5/2 85/5/2
f 90/2/3 89/2/3 88/2/3
f 91/2/3 89/2/3 90/2/3
f 92/5/3 87/5/3 86/5/3
f 93/5/3 87/5/3 92/5/3
f 99/3/3 95/3/3 94/3/3
f 100/3/3 95/3/3 99/3/3
f 101/3/3 95/3/3 100/3/3
f 102/5/3 97/5/3 96/5/3
f 103/1/3 98/1/3 97/1/3
f 103/5/3 97/5/3 102/5/3
f 104/4/3 100/4/3 99/4/3
f 104/2/3 101/2/3 100/2/3
f 105/2/3 101/2/3 104/2/3
f 106/3/3 95/3/3 101/3/3
f 106/2/3 101/2/3 105/2/3
f 107/3/3 95/3/3 106/3/3
f 108/1/3 103/1/3 102/1/3
f 109/1/3 103/1/3 108/1/3
f 110/4/3 105/4/3 104/4/3
f 110/2/3 106/2/3 105/2/3
f 110/2/3 107/2/3 106/2/3
f 111/2/3 107/2/3 110/2/3
f 112/3/3 95/3/3 107/3/3
f 112/2/3 107/2/3 111/2/3
f 113/3/3 95/3/3 112/3/3
f 114/5/3 109/5/3 108/5/3
f 115/1/3 103/1/3 109/1/3
f 115/5/3 109/5/3 114/5/3
f 116/4/3 111/4/3 110/4/3
f 116/2/3 113/2/3 112/2/3
f 116/2/3 112/2/3 111/2/3
f 117/2/3 113/2/3 116/2/3
f 118/1/3 115/1/3 114/1/3
f 119/1/3 98/1/3 103/1/3
f 119/1/3 115/1/3 118/1/3
f 119/1/3 103/1/3 115/1/3
f 120/1/3 98/1/3 119/1/3
f 121/1/3 98/1/3 120/1/3
f 122/4/3 116/4/3 110/4/3
f 122/4/3 104/4/3 99/4/3
f 122/4/3 117/4/3 116/4/3
f 122/4/3 110/4/3 104/4/3
f 123/4/3 117/4/3 122/4/3
f 124/1/3 118/1/3 114/1/3
f 125/5/3 119/5/3 118/5/3
f 125/1/3 118/1/3 124/1/3
f 126/1/3 120/1/3 119/1/3
f 126/5/3 119/5/3 125/5/3
f 127/5/3 121/5/3 120/5/3
f 127/1/3 120/1/3 126/1/3
f 128/5/3 121/5/3 127/5/3
f 129/3/4 130/3/4 134/3/4
f 134/3/4 130/3/4 135/3/4
f 135/3/4 130/3/4 136/3/4
f 131/5/4 132/5/4 137/5/4
f 132/1/4 133/1/4 138/1/4
f 137/5/4 132/5/4 138/5/4
f 134/4/4 135/4/4 139/4/4
f 135/2/4 136/2/4 139/2/4
f 139/2/4 136/2/4 140/2/4
f 136/3/4 130/3/4 141/3/4
f 140/2/4 136/2/4 141/2/4
f 141/3/4 130/3/4 142/3/4
f 131/5/4 137/5/4 143/5/4
f 143/5/4 137/5/4 144/5/4
f 138/1/4 133/1/4 145/1/4
f 137/1/4 138/1/4 145/1/4
f 145/1/4 133/1/4 146/1/4
f 139/4/4 140/4/4 147/4/4
f 140/2/4 141/2/4 147/2/4
f 141/2/4 142/2/4 147/2/4
f 147/2/4 142/2/4 148/2/4
f 142/3/4 130/3/4 149/3/4
f 148/2/4 142/2/4 149/2/4
f 149/3/4 130/3/4 150/3/4
f 144/5/4 137/5/4 151/5/4
f 143/1/4 144/1/4 151/1/4
f 137/1/4 145/1/4 152/1/4
f 151/5/4 137/5/4 152/5/4
f 147/4/4 148/4/4 153/4/4
f 149/2/4 150/2/4 153/2/4
f 148/2/4 149/2/4 153/2/4
f 153/2/4 150/2/4 154/2/4
f 151/1/4 152/1/4 155/1/4
f 143/1/4 151/1/4 155/1/4
f 152/1/4 145/1/4 156/1/4
f 155/1/4 152/1/4 156/1/4
f 145/5/4 146/5/4 156/5/4
f 156/5/4 146/5/4 157/5/4
f 157/5/4 146/5/4 158/5/4
f 139/4/4 147/4/4 159/4/4
f 134/4/4 139/4/4 159/4/4
f 147/4/4 153/4/4 159/4/4
f 153/4/4 154/4/4 159/4/4
f 154/2/4 150/2/4 160/2/4
f 159/4/4 154/4/4 160/4/4
f 160/2/4 150/2/4 161/2/4
f 143/1/4 155/1/4 162/1/4
f 156/5/4 157/5/4 163/5/4
f 162/1/4 155/1/4 163/1/4
f 155/5/4 156/5/4 163/5/4
f 157/1/4 158/1/4 164/1/4
f 163/5/4 157/5/4 164/5/4
f 164/1/4 158/1/4 165/1/4
f 168/4/4 169/4/4 171/4/4
f 169/2/4 170/2/4 172/2/4
f 171/4/4 169/4/4 172/4/4
f 171/2/4 172/2/4 173/2/4
f 172/2/4 170/2/4 174/2/4
f 173/2/4 172/2/4 174/2/4
f 173/4/4 174/4/4 175/4/4
f 174/2/4 170/2/4 176/2/4
f 175/4/4 174/4/4 176/4/4
f 175/2/4 176/2/4 177/2/4
f 176/2/4 170/2/4 178/2/4
f 177/2/4 176/2/4 178/2/4
f 166/5/4 167/5/4 179/5/4
f 179/5/4 167/5/4 180/5/4
f 183/2/5 182/2/5 181/2/5
f 184/2/5 182/2/5 183/2/5
f 185/2/5 183/2/5 181/2/5
f 185/4/5 184/4/5 183/4/5
f 186/4/5 184/4/5 185/4/5
f 187/2/5 185/2/5 181/2/5
f 187/2/5 186/2/5 185/2/5
f 188/2/5 186/2/5 187/2/5
f 189/2/5 187/2/5 181/2/5
f 189/4/5 188/4/5 187/4/5
f 190/4/5 188/4/5 189/4/5
f 191/2/5 189/2/5 181/2/5
f 191/2/5 190/2/5 189/2/5
f 192/2/5 190/2/5 191/2/5
f 193/2/5 191/2/5 181/2/5
f 194/2/5 191/2/5 193/2/5
f 195/2/5 191/2/5 194/2/5
f 196/4/5 192/4/5 191/4/5
f 196/2/5 191/2/5 195/2/5
f 197/4/5 192/4/5 196/4/5
f 198/4/5 194/4/5 193/4/5
f 199/2/5 195/2/5 194/2/5
f 199/4/5 194/4/5 198/4/5
f 200/4/5 196/4/5 195/4/5
f 200/2/5 195/2/5 199/2/5
f 201/2/5 197/2/5 196/2/5
f 201/4/5 196/4/5 200/4/5
f 202/2/5 197/2/5 201/2/5
f 205/3/5 204/3/5 203/3/5
f 206/3/5 204/3/5 205/3/5
f 207/2/5 206/2/5 205/2/5
f 208/2/5 206/2/5 207/2/5
f 209/3/5 208/3/5 207/3/5
f 210/3/5 208/3/5 209/3/5
f 213/5/5 212/5/5 211/5/5
f 214/5/5 212/5/5 213/5/5
f 215/5/5 212/5/5 214/5/5
f 216/5/5 212/5/5 215/5/5
f 217/5/5 212/5/5 216/5/5
f 220/5/5 212/5/5 217/5/5
f 221/5/5 219/5/5 218/5/5
f 221/5/5 220/5/5 219/5/5
f 222/5/5 212/5/5 220/5/5
f 222/5/5 220/5/5 221/5/5
f 223/2/6 224/2/6 225/2/6
f 225/2/6 224/2/6 226/2/6
f 227/2/6 228/2/6 229/2/6
f 229/2/6 228/2/6 230/2/6
f 231/5/6 232/5/6 233/5/6
f 233/5/6 232/5/6 234/5/6
f 234/5/6 232/5/6 235/5/6
f 235/5/6 232/5/6 236/5/6
f 236/5/6 232/5/6 237/5/6
f 237/5/6 232/5/6 238/5/6
f 238/5/6 232/5/6 239/5/6
f 239/5/6 232/5/6 242/5/6
f 240/5/6 241/5/6 243/5/6
f 241/5/6 242/5/6 243/5/6
f 242/5/6 232/5/6 244/5/6
f 243/5/6 242/5/6 244/5/6
f 245/1/6 246/1/6 248/1/6
f 246/5/6 247/5/6 248/5/6
f 248/5/6 247/5/6 249/5/6
f 245/1/6 248/1/6 250/1/6
f 248/1/6 249/1/6 250/1/6
f 250/1/6 249/1/6 251/1/6
f 245/1/6 250/1/6 252/1/6
f 250/5/6 251/5/6 253/5/6
f 252/1/6 250/1/6 253/1/6
f 251/1/6 249/1/6 254/1/6
f 253/5/6 251/5/6 254/5/6
f 254/1/6 249/1/6 255/1/6
